SplineFontDB: 3.2
FontName: ADM-3A
FullName: ADM-3A Regular
FamilyName: ADM-3A
Weight: Regular
Copyright: Copyright (c) 2022, Peter Jakubco
UComments: "2022-9-17: Created with FontForge (http://fontforge.org)"
Version: 1.0
ItalicAngle: 0
UnderlinePosition: 0
UnderlineWidth: 1792
Ascent: 1792
Descent: 0
InvalidEm: 0
LayerCount: 2
Layer: 0 1 "Back" 1
Layer: 1 1 "Fore" 0
XUID: [1021 261 208283644 15436461]
StyleMap: 0x0040
FSType: 0
OS2Version: 0
OS2_WeightWidthSlopeOnly: 0
OS2_UseTypoMetrics: 0
CreationTime: 1663397476
ModificationTime: 1679221643
PfmFamily: 49
TTFWeight: 400
TTFWidth: 5
LineGap: 0
VLineGap: 0
OS2TypoAscent: 1792
OS2TypoAOffset: 0
OS2TypoDescent: 0
OS2TypoDOffset: 0
OS2TypoLinegap: 0
OS2WinAscent: 1792
OS2WinAOffset: 0
OS2WinDescent: 0
OS2WinDOffset: 0
HheadAscent: 1792
HheadAOffset: 0
HheadDescent: 0
HheadDOffset: 0
OS2Vendor: 'PfEd'
MarkAttachClasses: 1
DEI: 91125

StartChar: SOH
Encoding: 1 1 0
Width: 1152
VWidth: 2048
Flags: MW
LayerCount: 2
Back
Fore
SplineSet
384 1280 m 25,0,-1
 768 1280 l 25,1,2
 768 1408 768 1408 768 1461 c 0,3,4
 768 1536 768 1536 712 1536 c 24,5,-1
 440 1536 l 0,6,7
 384 1536 384 1536 384 1461 c 24,8,9
 384 1461 384 1461 384 1280 c 25,0,-1
712 1792 m 0,10,11
 960 1792 960 1792 960 1461 c 24,12,13
 960 1461 960 1461 960 512 c 25,14,-1
 768 512 l 24,15,-1
 768 1024 l 25,16,-1
 384 1024 l 25,17,-1
 384 512 l 25,18,-1
 192 512 l 25,19,20
 192 1152 192 1152 192 1461 c 0,21,22
 192 1792 192 1792 440 1792 c 24,23,24
 440 1792 440 1792 712 1792 c 0,10,11
0 256 m 25,25,-1
 960 256 l 25,26,-1
 960 0 l 25,27,-1
 0 0 l 25,28,-1
 0 256 l 25,25,-1
EndSplineSet
EndChar

StartChar: STX
Encoding: 2 2 1
Width: 1152
VWidth: 2048
Flags: MW
LayerCount: 2
Back
Fore
SplineSet
136 1792 m 9,0,-1
 768 949 l 25,1,-1
 768 843 l 25,2,-1
 136 0 l 24,3,-1
 0 0 l 25,4,-1
 0 1792 l 25,5,6
 0 1792 0 1792 136 1792 c 9,0,-1
EndSplineSet
EndChar

StartChar: ETX
Encoding: 3 3 2
Width: 1152
VWidth: 2048
Flags: MW
LayerCount: 2
Back
Fore
SplineSet
768 1792 m 25,0,-1
 768 0 l 24,1,-1
 632 0 l 24,2,-1
 0 843 l 25,3,-1
 0 949 l 25,4,-1
 632 1792 l 24,5,6
 632 1792 632 1792 768 1792 c 25,0,-1
EndSplineSet
EndChar

StartChar: EOT
Encoding: 4 4 3
Width: 1152
VWidth: 2048
Flags: MW
LayerCount: 2
Back
Fore
SplineSet
384 1536 m 24,0,-1
 384 768 l 24,1,-1
 712 768 l 0,2,3
 768 768 768 768 768 843 c 24,4,5
 768 1190 768 1190 768 1461 c 0,6,7
 768 1536 768 1536 712 1536 c 24,8,9
 712 1536 712 1536 384 1536 c 24,0,-1
712 1792 m 0,10,11
 960 1792 960 1792 960 1461 c 24,12,13
 960 986 960 986 960 843 c 0,14,15
 960 512 960 512 712 512 c 24,16,-1
 192 512 l 25,17,-1
 192 1792 l 25,18,19
 192 1792 192 1792 712 1792 c 0,10,11
0 256 m 25,20,-1
 960 256 l 25,21,-1
 960 0 l 25,22,-1
 0 0 l 25,23,-1
 0 256 l 25,20,-1
EndSplineSet
EndChar

StartChar: ENQ
Encoding: 5 5 4
Width: 1152
VWidth: 2048
Flags: MW
LayerCount: 2
Back
Fore
SplineSet
0 256 m 29,0,-1
 960 256 l 25,1,-1
 960 0 l 25,2,-1
 0 0 l 25,3,-1
 0 256 l 29,0,-1
192 512 m 25,4,-1
 192 1792 l 25,5,-1
 960 1792 l 25,6,-1
 960 1536 l 25,7,-1
 384 1536 l 25,8,-1
 384 1280 l 25,9,-1
 768 1280 l 25,10,-1
 768 1024 l 25,11,-1
 384 1024 l 25,12,-1
 384 768 l 25,13,-1
 960 768 l 25,14,-1
 960 512 l 25,15,-1
 192 512 l 25,4,-1
EndSplineSet
EndChar

StartChar: ACK
Encoding: 6 6 5
Width: 1152
VWidth: 2048
Flags: MW
LayerCount: 2
Back
Fore
SplineSet
0 256 m 29,0,-1
 960 256 l 25,1,-1
 960 0 l 25,2,-1
 0 0 l 25,3,-1
 0 256 l 29,0,-1
192 512 m 25,4,-1
 192 1792 l 25,5,-1
 960 1792 l 25,6,-1
 960 1536 l 25,7,-1
 384 1536 l 25,8,-1
 384 1280 l 25,9,-1
 768 1280 l 25,10,-1
 768 1024 l 25,11,-1
 384 1024 l 25,12,-1
 384 512 l 25,13,-1
 192 512 l 25,4,-1
EndSplineSet
EndChar

StartChar: BEEP
Encoding: 7 7 6
Width: 1152
VWidth: 2048
Flags: MW
LayerCount: 2
Back
Fore
SplineSet
576 1461 m 0,0,1
 576 1536 576 1536 520 1536 c 24,2,3
 480 1536 480 1536 440 1536 c 0,4,5
 384 1536 384 1536 384 1461 c 24,6,7
 384 1114 384 1114 384 843 c 0,8,9
 384 768 384 768 440 768 c 24,10,11
 440 768 440 768 520 768 c 0,12,13
 576 768 576 768 576 843 c 24,14,15
 576 843 576 843 576 1461 c 0,0,1
520 1792 m 0,16,17
 768 1792 768 1792 768 1461 c 24,18,-1
 768 1099 l 0,19,20
 768 1024 768 1024 824 1024 c 24,21,-1
 917 1024 l 0,22,23
 960 960 960 960 960 896 c 128,-1,24
 960 832 960 832 917 768 c 8,25,-1
 632 768 l 0,26,27
 576 768 576 768 576 693 c 24,28,-1
 576 569 l 0,29,30
 528 512 528 512 479 512 c 0,31,32
 447 512 447 512 384 569 c 1,33,-1
 384 693 l 0,34,35
 384 768 384 768 328 768 c 24,36,-1
 43 768 l 0,37,38
 0 832 0 832 0 896 c 128,-1,39
 0 960 0 960 43 1024 c 8,40,-1
 136 1024 l 0,41,42
 192 1024 192 1024 192 1099 c 24,43,-1
 192 1461 l 0,44,45
 192 1792 192 1792 440 1792 c 24,46,47
 440 1792 440 1792 520 1792 c 0,16,17
0 256 m 25,48,-1
 960 256 l 25,49,-1
 960 0 l 25,50,-1
 0 0 l 25,51,-1
 0 256 l 25,48,-1
EndSplineSet
EndChar

StartChar: BS
Encoding: 8 8 7
Width: 1152
VWidth: 2048
Flags: MW
LayerCount: 2
Back
Fore
SplineSet
0 949 m 25,0,-1
 440 1536 l 24,1,-1
 576 1536 l 24,2,-1
 576 1355 l 25,3,-1
 328 1024 l 24,4,-1
 960 1024 l 25,5,-1
 960 768 l 24,6,-1
 328 768 l 24,7,-1
 576 437 l 24,8,-1
 576 256 l 25,9,-1
 440 256 l 24,10,-1
 0 843 l 25,11,-1
 0 949 l 25,0,-1
EndSplineSet
EndChar

StartChar: HT
Encoding: 9 9 8
Width: 1152
VWidth: 2048
Flags: MW
LayerCount: 2
Back
Fore
SplineSet
0 256 m 25,0,-1
 960 256 l 25,1,-1
 960 0 l 25,2,-1
 0 0 l 25,3,-1
 0 256 l 25,0,-1
384 1280 m 25,4,-1
 576 1280 l 25,5,-1
 576 1024 l 25,6,-1
 384 1024 l 25,7,-1
 384 1280 l 25,4,-1
EndSplineSet
EndChar

StartChar: LF
Encoding: 10 10 9
Width: 1152
VWidth: 2048
Flags: MW
LayerCount: 2
Back
Fore
SplineSet
576 1792 m 25,0,-1
 576 693 l 24,1,-1
 824 1024 l 24,2,-1
 960 1024 l 25,3,-1
 960 843 l 25,4,-1
 520 256 l 25,5,-1
 440 256 l 24,6,-1
 0 843 l 25,7,-1
 0 1024 l 25,8,-1
 136 1024 l 24,9,-1
 384 693 l 24,10,-1
 384 1792 l 25,11,-1
 576 1792 l 25,0,-1
EndSplineSet
EndChar

StartChar: VT
Encoding: 11 11 10
Width: 1152
VWidth: 2048
Flags: MW
LayerCount: 2
Back
Fore
SplineSet
520 1536 m 25,0,-1
 960 949 l 25,1,-1
 960 768 l 24,2,-1
 824 768 l 24,3,-1
 576 1099 l 25,4,-1
 576 0 l 25,5,-1
 384 0 l 25,6,-1
 384 1099 l 25,7,-1
 136 768 l 24,8,-1
 0 768 l 24,9,-1
 0 949 l 25,10,-1
 440 1536 l 24,11,12
 440 1536 440 1536 520 1536 c 25,0,-1
EndSplineSet
EndChar

StartChar: FF
Encoding: 12 12 11
Width: 1152
VWidth: 2048
Flags: MW
LayerCount: 2
Back
Fore
SplineSet
520 1536 m 25,0,-1
 960 949 l 25,1,-1
 960 843 l 25,2,-1
 520 256 l 25,3,-1
 384 256 l 25,4,-1
 384 437 l 24,5,-1
 632 768 l 24,6,-1
 0 768 l 24,7,-1
 0 1024 l 25,8,-1
 632 1024 l 24,9,-1
 384 1355 l 25,10,-1
 384 1536 l 17,11,12
 384 1536 384 1536 520 1536 c 25,0,-1
EndSplineSet
EndChar

StartChar: CR
Encoding: 13 13 12
Width: 1152
VWidth: 2048
Flags: MW
LayerCount: 2
Back
Fore
SplineSet
632 1536 m 9,0,-1
 192 949 l 25,1,-1
 192 843 l 25,2,-1
 632 256 l 24,3,-1
 768 256 l 25,4,-1
 768 437 l 24,5,-1
 440 843 l 25,6,-1
 440 949 l 25,7,-1
 768 1355 l 25,8,-1
 768 1536 l 17,9,10
 768 1536 768 1536 632 1536 c 9,0,-1
0 1792 m 25,11,-1
 960 1792 l 25,12,-1
 960 0 l 25,13,-1
 0 0 l 25,14,-1
 0 1792 l 25,11,-1
EndSplineSet
EndChar

StartChar: SO
Encoding: 14 14 13
Width: 1152
VWidth: 2048
Flags: MW
LayerCount: 2
Back
Fore
SplineSet
479 715 m 1,0,1
 479 715 479 715 136 256 c 1,2,3
 136 256 136 256 0 256 c 25,4,5
 0 256 0 256 0 437 c 9,6,7
 0 437 0 437 440 1024 c 24,8,9
 440 1024 440 1024 520 1024 c 25,10,11
 520 1024 520 1024 960 437 c 1,12,13
 960 437 960 437 960 256 c 25,14,15
 960 256 960 256 824 256 c 1,16,-1
 479 715 l 1,0,1
479 1483 m 1,17,18
 479 1483 479 1483 136 1024 c 1,19,20
 136 1024 136 1024 0 1024 c 25,21,22
 0 1024 0 1024 0 1205 c 9,23,24
 0 1205 0 1205 440 1792 c 24,25,26
 440 1792 440 1792 520 1792 c 25,27,28
 520 1792 520 1792 960 1205 c 1,29,30
 960 1205 960 1205 960 1024 c 25,31,32
 960 1024 960 1024 824 1024 c 1,33,-1
 479 1483 l 1,17,18
EndSplineSet
EndChar

StartChar: SI
Encoding: 15 15 14
Width: 1152
VWidth: 2048
Flags: MW
LayerCount: 2
Back
Fore
SplineSet
479 1333 m 129,-1,1
 479 1333 479 1333 824 1792 c 1,2,-1
 960 1792 l 25,3,4
 960 1611 960 1611 960 1611 c 1,5,6
 520 1024 520 1024 520 1024 c 25,7,8
 440 1024 440 1024 440 1024 c 24,9,10
 0 1611 0 1611 0 1611 c 17,11,12
 0 1792 0 1792 0 1792 c 25,13,14
 136 1792 136 1792 136 1792 c 1,15,0
 479 1333 479 1333 479 1333 c 129,-1,1
479 565 m 129,-1,17
 479 565 479 565 824 1024 c 1,18,-1
 960 1024 l 25,19,20
 960 843 960 843 960 843 c 1,21,22
 520 256 520 256 520 256 c 25,23,24
 440 256 440 256 440 256 c 24,25,26
 0 843 0 843 0 843 c 17,27,28
 0 1024 0 1024 0 1024 c 25,29,30
 136 1024 136 1024 136 1024 c 1,31,16
 479 565 479 565 479 565 c 129,-1,17
EndSplineSet
EndChar

StartChar: DLE
Encoding: 16 16 15
Width: 1152
VWidth: 2048
Flags: MW
LayerCount: 2
Back
Fore
SplineSet
328 768 m 1,0,1
 328 768 328 768 712 768 c 0,2,3
 768 768 768 768 768 843 c 0,4,5
 768 843 768 843 768 1355 c 0,6,7
 768 1355 768 1355 328 768 c 1,0,1
192 949 m 129,-1,9
 192 949 192 949 632 1536 c 1,10,11
 632 1536 632 1536 248 1536 c 0,12,13
 192 1536 192 1536 192 1461 c 0,14,8
 192 949 192 949 192 949 c 129,-1,9
0 256 m 25,15,-1
 960 255 l 25,16,-1
 960 0 l 25,17,-1
 0 0 l 25,18,-1
 0 256 l 25,15,-1
712 1792 m 0,19,20
 960 1792 960 1792 960 1461 c 24,21,22
 960 1461 960 1461 960 843 c 0,23,24
 960 512 960 512 712 512 c 24,25,-1
 248 512 l 0,26,27
 0 512 0 512 0 843 c 24,28,29
 0 843 0 843 0 1461 c 0,30,31
 0 1792 0 1792 248 1792 c 24,32,33
 248 1792 248 1792 712 1792 c 0,19,20
EndSplineSet
EndChar

StartChar: DC1
Encoding: 17 17 16
Width: 1152
VWidth: 2048
Flags: MW
LayerCount: 2
Back
Fore
SplineSet
576 1792 m 1,0,-1
 576 843 l 0,1,2
 576 768 576 768 632 768 c 0,3,-1
 725 768 l 0,4,5
 768 768 768 768 768 640 c 128,-1,6
 768 512 768 512 725 512 c 0,7,8
 480 512 480 512 235 512 c 0,9,10
 192 512 192 512 192 640 c 128,-1,11
 192 768 192 768 235 768 c 0,12,-1
 328 768 l 0,13,14
 384 768 384 768 384 843 c 0,15,16
 384 843 384 843 384 1355 c 1,17,18
 384 1355 384 1355 328 1280 c 0,19,20
 328 1280 328 1280 192 1280 c 1,21,22
 192 1280 192 1280 192 1465 c 0,23,24
 192 1465 192 1465 440 1792 c 0,25,26
 440 1792 440 1792 576 1792 c 1,0,-1
0 256 m 25,27,-1
 960 256 l 25,28,-1
 960 0 l 25,29,-1
 0 0 l 25,30,-1
 0 256 l 25,27,-1
EndSplineSet
EndChar

StartChar: DC2
Encoding: 18 18 17
Width: 1152
VWidth: 2048
Flags: MW
LayerCount: 2
Back
Fore
SplineSet
0 256 m 1,0,1
 0 256 0 256 960 256 c 1,2,3
 960 256 960 256 960 0 c 1,4,5
 960 0 960 0 0 0 c 1,6,7
 0 0 0 0 0 256 c 1,0,1
533 1792 m 0,8,9
 768 1792 768 1792 768 1461 c 0,10,11
 768 1461 768 1461 768 1355 c 1,12,-1
 384 843 l 0,13,14
 384 768 384 768 440 768 c 0,15,-1
 712 768 l 0,16,17
 768 768 768 768 768 640 c 0,18,19
 768 513 768 513 712 512 c 0,20,21
 712 512 712 512 192 512 c 0,22,23
 192 512 192 512 194 948 c 0,24,-1
 577 1460 l 0,25,26
 576 1536 576 1536 533 1536 c 0,27,-1
 192 1536 l 0,28,29
 192 1536 192 1536 192 1792 c 0,30,31
 192 1792 192 1792 533 1792 c 0,8,9
EndSplineSet
EndChar

StartChar: DC3
Encoding: 19 19 18
Width: 1152
VWidth: 2048
Flags: MW
LayerCount: 2
Back
Fore
SplineSet
0 256 m 1,0,1
 0 256 0 256 960 256 c 0,2,3
 960 256 960 256 960 0 c 0,4,5
 960 0 960 0 0 0 c 0,6,7
 0 0 0 0 0 256 c 1,0,1
533 1792 m 256,8,9
 768 1792 768 1792 768 1465 c 0,10,11
 768 1465 768 1465 768 843 c 0,12,13
 768 512 768 512 520 512 c 1,14,15
 520 512 520 512 192 512 c 0,16,17
 192 512 192 512 192 768 c 0,18,-1
 520 768 l 0,19,20
 576 768 576 768 576 843 c 1,21,-1
 576 949 l 0,22,23
 576 1024 576 1024 520 1024 c 24,24,-1
 192 1024 l 0,25,26
 192 1024 192 1024 192 1280 c 0,27,-1
 520 1280 l 0,28,29
 576 1280 576 1280 576 1355 c 24,30,31
 576 1410 576 1410 576 1465 c 0,32,33
 576 1536 576 1536 520 1536 c 0,34,-1
 192 1536 l 0,35,36
 192 1536 192 1536 192 1792 c 257,37,38
 192 1792 192 1792 533 1792 c 256,8,9
EndSplineSet
EndChar

StartChar: DC4
Encoding: 20 20 19
Width: 1152
VWidth: 2048
Flags: MW
LayerCount: 2
Back
Fore
SplineSet
0 256 m 25,0,-1
 960 256 l 25,1,-1
 960 0 l 25,2,-1
 0 0 l 25,3,-1
 0 256 l 25,0,-1
576 1355 m 0,4,-1
 328 1024 l 0,5,-1
 576 1024 l 0,6,7
 576 1024 576 1024 576 1355 c 0,4,-1
768 1792 m 0,8,-1
 768 1024 l 0,9,-1
 917 1024 l 1,10,11
 960 1024 960 1024 960 896 c 128,-1,12
 960 768 960 768 917 768 c 1,13,-1
 768 768 l 0,14,-1
 768 512 l 0,15,16
 768 512 768 512 576 512 c 0,17,-1
 576 768 l 0,18,-1
 192 768 l 0,19,20
 192 768 192 768 192 1205 c 0,21,22
 192 1205 192 1205 632 1792 c 0,23,24
 632 1792 632 1792 768 1792 c 0,8,-1
EndSplineSet
EndChar

StartChar: NAK
Encoding: 21 21 20
Width: 1152
VWidth: 2048
Flags: MW
LayerCount: 2
Back
Fore
SplineSet
0 256 m 25,0,-1
 960 256 l 25,1,-1
 960 0 l 25,2,-1
 0 0 l 25,3,-1
 0 256 l 25,0,-1
960 1792 m 25,4,5
 960 1792 960 1792 960 843 c 0,6,7
 960 512 960 512 712 512 c 16,8,9
 712 512 712 512 440 512 c 0,10,11
 192 512 192 512 192 843 c 24,12,13
 192 843 192 843 192 1792 c 25,14,-1
 384 1792 l 25,15,-1
 384 843 l 0,16,17
 384 768 384 768 440 768 c 24,18,-1
 712 768 l 2,19,20
 768 768 768 768 768 843 c 10,21,-1
 768 1792 l 24,22,23
 768 1792 768 1792 960 1792 c 25,4,5
EndSplineSet
EndChar

StartChar: SYN
Encoding: 22 22 21
Width: 1152
VWidth: 2048
Flags: MW
LayerCount: 2
Back
Fore
SplineSet
0 256 m 25,0,-1
 960 256 l 25,1,-1
 960 0 l 25,2,-1
 0 0 l 25,3,-1
 0 256 l 25,0,-1
480 852 m 1,4,5
 480 852 480 852 768 1461 c 1,6,7
 768 1461 768 1461 768 1792 c 0,8,9
 768 1792 768 1792 960 1792 c 1,10,-1
 960 1355 l 1,11,-1
 520 512 l 1,12,13
 520 512 520 512 440 512 c 0,14,15
 440 512 440 512 0 1355 c 1,16,-1
 0 1792 l 1,17,18
 0 1792 0 1792 192 1792 c 0,19,20
 192 1628 192 1628 192 1465 c 1,21,22
 192 1465 192 1465 480 852 c 1,4,5
EndSplineSet
EndChar

StartChar: ETB
Encoding: 23 23 22
Width: 1152
VWidth: 2048
Flags: MW
LayerCount: 2
Back
Fore
SplineSet
0 256 m 1,0,-1
 960 256 l 1,1,-1
 960 0 l 1,2,-1
 0 0 l 1,3,4
 0 0 0 0 0 256 c 1,0,-1
479 625 m 1,5,6
 479 512 479 512 328 512 c 0,7,8
 328 512 328 512 248 512 c 0,9,10
 0 512 0 512 0 843 c 0,11,12
 0 843 0 843 0 1792 c 1,13,14
 0 1792 0 1792 192 1792 c 1,15,-1
 192 843 l 1,16,17
 192 768 192 768 248 768 c 0,18,19
 328 768 328 768 328 768 c 0,20,21
 384 768 384 768 384 843 c 0,22,23
 384 1223 384 1223 384 1223 c 0,24,25
 384 1280 384 1280 479 1280 c 0,26,27
 576 1280 576 1280 576 1223 c 0,28,29
 576 843 576 843 576 843 c 1,30,31
 576 768 576 768 632 768 c 0,32,33
 712 768 712 768 712 768 c 0,34,35
 768 768 768 768 768 843 c 0,36,37
 768 1792 768 1792 768 1792 c 129,-1,38
 768 1792 768 1792 960 1792 c 1,39,40
 960 1792 960 1792 960 843 c 0,41,42
 960 512 960 512 712 512 c 0,43,44
 712 512 712 512 632 512 c 0,45,46
 479 512 479 512 479 625 c 1,5,6
EndSplineSet
EndChar

StartChar: CAN
Encoding: 24 24 23
Width: 1152
VWidth: 2048
Flags: MW
LayerCount: 2
Back
Fore
SplineSet
0 256 m 1,0,-1
 960 256 l 1,1,-1
 960 0 l 1,2,-1
 0 0 l 1,3,-1
 0 256 l 1,0,-1
479 1330 m 1,4,5
 479 1330 479 1330 825 1792 c 0,6,7
 825 1792 825 1792 960 1792 c 1,8,9
 960 1792 960 1792 960 1611 c 1,10,11
 960 1611 960 1611 626 1147 c 1,12,13
 626 1147 626 1147 960 693 c 0,14,-1
 960 512 l 1,15,-1
 824 512 l 0,16,-1
 479 951 l 1,17,18
 479 951 479 951 136 512 c 0,19,20
 136 512 136 512 0 512 c 1,21,22
 0 512 0 512 0 693 c 0,23,24
 0 693 0 693 344 1152 c 1,25,26
 344 1152 344 1152 0 1611 c 1,27,-1
 0 1792 l 1,28,29
 0 1792 0 1792 136 1792 c 0,30,31
 135 1792 135 1792 479 1330 c 1,4,5
EndSplineSet
EndChar

StartChar: EM
Encoding: 25 25 24
Width: 1152
VWidth: 2048
Flags: MW
LayerCount: 2
Back
Fore
SplineSet
0 256 m 25,0,-1
 960 256 l 25,1,-1
 960 0 l 25,2,-1
 0 0 l 25,3,-1
 0 256 l 25,0,-1
480 1333 m 1,4,5
 824 1792 824 1792 824 1792 c 0,6,7
 960 1792 960 1792 960 1792 c 129,-1,8
 960 1792 960 1792 960 1611 c 1,9,-1
 576 1099 l 1,10,-1
 576 512 l 1,11,-1
 384 512 l 1,12,-1
 384 1099 l 1,13,-1
 0 1611 l 1,14,-1
 0 1792 l 1,15,16
 136 1792 136 1792 136 1792 c 0,17,18
 480 1333 480 1333 480 1333 c 1,4,5
EndSplineSet
EndChar

StartChar: SUB
Encoding: 26 26 25
Width: 1152
VWidth: 2048
Flags: MW
LayerCount: 2
Back
Fore
SplineSet
0 256 m 25,0,-1
 960 256 l 25,1,-1
 960 0 l 25,2,-1
 0 0 l 25,3,-1
 0 256 l 25,0,-1
0 1792 m 24,4,-1
 960 1792 l 25,5,-1
 960 1611 l 25,6,-1
 328 768 l 24,7,-1
 960 768 l 24,8,-1
 960 512 l 25,9,-1
 0 512 l 25,10,-1
 0 693 l 24,11,-1
 632 1536 l 24,12,-1
 0 1536 l 24,13,14
 0 1536 0 1536 0 1792 c 24,4,-1
EndSplineSet
EndChar

StartChar: ESC
Encoding: 27 27 26
Width: 1152
VWidth: 2048
Flags: MW
LayerCount: 2
Back
Fore
SplineSet
768 1536 m 24,0,-1
 192 1536 l 24,1,-1
 192 256 l 25,2,-1
 768 256 l 24,3,-1
 768 512 l 25,4,-1
 384 512 l 25,5,-1
 384 768 l 24,6,-1
 576 768 l 24,7,-1
 576 1024 l 25,8,-1
 384 1024 l 25,9,-1
 384 1280 l 25,10,-1
 768 1280 l 24,11,12
 768 1280 768 1280 768 1536 c 24,0,-1
0 1792 m 25,13,-1
 960 1792 l 25,14,-1
 960 0 l 25,15,-1
 0 0 l 25,16,-1
 0 1792 l 25,13,-1
EndSplineSet
EndChar

StartChar: FS
Encoding: 28 28 27
Width: 1152
VWidth: 2048
Flags: MW
LayerCount: 2
Back
Fore
SplineSet
0 256 m 25,0,-1
 960 256 l 25,1,-1
 960 0 l 25,2,-1
 0 0 l 25,3,-1
 0 256 l 25,0,-1
136 1792 m 24,4,-1
 960 693 l 24,5,-1
 960 512 l 25,6,-1
 824 512 l 24,7,-1
 0 1611 l 25,8,-1
 0 1792 l 25,9,10
 0 1792 0 1792 136 1792 c 24,4,-1
EndSplineSet
EndChar

StartChar: GS
Encoding: 29 29 28
Width: 1152
VWidth: 2048
Flags: MW
LayerCount: 2
Back
Fore
SplineSet
0 256 m 25,0,-1
 960 256 l 25,1,-1
 960 0 l 25,2,-1
 0 0 l 25,3,-1
 0 256 l 25,0,-1
192 1792 m 25,4,-1
 768 1792 l 25,5,-1
 768 512 l 24,6,-1
 192 512 l 25,7,-1
 192 768 l 24,8,-1
 576 768 l 24,9,-1
 576 1536 l 24,10,-1
 192 1536 l 24,11,12
 192 1536 192 1536 192 1792 c 25,4,-1
EndSplineSet
EndChar

StartChar: RS
Encoding: 30 30 29
Width: 1152
VWidth: 2048
Flags: MW
LayerCount: 2
Back
Fore
SplineSet
0 1536 m 24,0,-1
 768 1536 l 24,1,-1
 768 1280 l 25,2,-1
 328 1280 l 24,3,-1
 960 437 l 24,4,-1
 960 256 l 25,5,-1
 824 256 l 24,6,-1
 192 1099 l 25,7,-1
 192 512 l 25,8,-1
 0 512 l 25,9,10
 0 512 0 512 0 1536 c 24,0,-1
EndSplineSet
EndChar

StartChar: US
Encoding: 31 31 30
Width: 1152
VWidth: 2048
Flags: MW
LayerCount: 2
Back
Fore
SplineSet
960 1792 m 25,0,-1
 960 512 l 25,1,-1
 328 512 l 24,2,-1
 576 181 l 24,3,-1
 576 0 l 25,4,-1
 440 0 l 24,5,-1
 0 587 l 25,6,-1
 0 693 l 24,7,-1
 440 1280 l 24,8,-1
 576 1280 l 25,9,-1
 576 1099 l 25,10,-1
 328 768 l 24,11,-1
 768 768 l 24,12,-1
 768 1792 l 24,13,14
 768 1792 768 1792 960 1792 c 25,0,-1
EndSplineSet
EndChar

StartChar: exclam
Encoding: 33 33 31
Width: 1152
VWidth: 2048
Flags: MW
LayerCount: 2
Back
Fore
SplineSet
192 256 m 29,0,-1
 384 256 l 25,1,-1
 384 0 l 25,2,-1
 192 0 l 25,3,-1
 192 256 l 29,0,-1
192 1792 m 25,4,-1
 384 1792 l 25,5,-1
 384 512 l 25,6,-1
 192 512 l 25,7,-1
 192 1792 l 25,4,-1
EndSplineSet
EndChar

StartChar: quotedbl
Encoding: 34 34 32
Width: 1152
VWidth: 2048
Flags: MW
LayerCount: 2
Back
Fore
SplineSet
384 1792 m 24,0,-1
 576 1792 l 24,1,-1
 576 1024 l 25,2,-1
 384 1024 l 25,3,4
 384 1024 384 1024 384 1792 c 24,0,-1
0 1792 m 24,5,-1
 192 1792 l 24,6,-1
 192 1024 l 25,7,-1
 0 1024 l 25,8,9
 0 1024 0 1024 0 1792 c 24,5,-1
EndSplineSet
EndChar

StartChar: numbersign
Encoding: 35 35 33
Width: 1152
VWidth: 2048
Flags: MW
LayerCount: 2
Back
Fore
SplineSet
576 1024 m 25,0,-1
 384 1024 l 25,1,-1
 384 768 l 24,2,-1
 576 768 l 17,3,4
 576 768 576 768 576 1024 c 25,0,-1
768 1792 m 25,5,-1
 768 1280 l 24,6,-1
 960 1280 l 25,7,-1
 960 1024 l 25,8,-1
 768 1024 l 24,9,-1
 768 768 l 24,10,-1
 960 768 l 24,11,-1
 960 512 l 25,12,-1
 768 512 l 24,13,-1
 768 0 l 24,14,-1
 576 0 l 25,15,-1
 576 512 l 25,16,-1
 384 512 l 25,17,-1
 384 0 l 25,18,-1
 192 0 l 25,19,-1
 192 512 l 25,20,-1
 0 512 l 25,21,-1
 0 768 l 24,22,-1
 192 768 l 24,23,-1
 192 1024 l 25,24,-1
 0 1024 l 25,25,-1
 0 1280 l 25,26,-1
 192 1280 l 25,27,-1
 192 1792 l 25,28,-1
 384 1792 l 25,29,-1
 384 1280 l 25,30,-1
 576 1280 l 25,31,-1
 576 1792 l 25,32,-1
 768 1792 l 25,5,-1
EndSplineSet
EndChar

StartChar: dollar
Encoding: 36 36 34
Width: 1152
VWidth: 2048
Flags: MW
LayerCount: 2
Back
Fore
SplineSet
576 768 m 9,0,-1
 576 512 l 25,1,2
 576 512 576 512 712 512 c 0,3,4
 768 512 768 512 768 587 c 24,5,6
 768 678 768 678 768 693 c 0,7,8
 768 768 768 768 712 768 c 16,9,10
 644 768 644 768 576 768 c 9,0,-1
248 1280 m 0,11,12
 192 1280 192 1280 192 1205 c 16,13,14
 192 1114 192 1114 192 1099 c 0,15,16
 192 1024 192 1024 247 1024 c 0,17,18
 248 1024 248 1024 248 1024 c 8,19,-1
 384 1024 l 25,20,-1
 384 1280 l 25,21,22
 384 1280 384 1280 248 1280 c 0,11,12
248 768 m 16,23,24
 0 768 0 768 0 1099 c 24,25,26
 0 1099 0 1099 0 1205 c 0,27,28
 0 1536 0 1536 248 1536 c 24,29,-1
 384 1536 l 24,30,-1
 384 1792 l 25,31,-1
 576 1792 l 25,32,-1
 576 1536 l 24,33,-1
 960 1536 l 24,34,35
 960 1536 960 1536 960 1280 c 25,36,-1
 576 1280 l 25,37,-1
 576 1024 l 25,38,-1
 712 1024 l 0,39,40
 960 1024 960 1024 960 693 c 24,41,42
 960 693 960 693 960 587 c 0,43,44
 960 256 960 256 712 256 c 24,45,-1
 576 256 l 25,46,-1
 576 0 l 25,47,-1
 384 0 l 25,48,-1
 384 256 l 25,49,-1
 0 256 l 25,50,-1
 0 512 l 25,51,-1
 384 512 l 25,52,53
 384 512 384 512 384 768 c 24,54,-1
 248 768 l 16,23,24
EndSplineSet
EndChar

StartChar: percent
Encoding: 37 37 35
Width: 1152
VWidth: 2048
Flags: MW
LayerCount: 2
Back
Fore
SplineSet
960 1355 m 25,0,-1
 136 256 l 24,1,-1
 0 256 l 25,2,-1
 0 437 l 24,3,-1
 824 1536 l 24,4,-1
 960 1536 l 24,5,6
 960 1536 960 1536 960 1355 c 25,0,-1
576 512 m 25,7,-1
 960 512 l 25,8,-1
 960 0 l 25,9,-1
 576 0 l 25,10,-1
 576 512 l 25,7,-1
0 1792 m 25,11,-1
 384 1792 l 25,12,-1
 384 1280 l 25,13,-1
 0 1280 l 25,14,-1
 0 1792 l 25,11,-1
EndSplineSet
EndChar

StartChar: ampersand
Encoding: 38 38 36
Width: 1152
VWidth: 2048
Flags: MW
LayerCount: 2
Back
Fore
SplineSet
808 384 m 1,0,1
 960 182 960 182 960 182 c 128,-1,2
 960 182 960 182 960 0 c 25,3,4
 960 0 960 0 824 0 c 0,5,6
 824 0 824 0 673 204 c 1,7,8
 673 204 673 204 520 0 c 1,9,10
 520 0 520 0 248 0 c 0,11,12
 0 0 0 0 0 331 c 25,13,14
 0 331 0 331 0 693 c 0,15,16
 0 693 0 693 152 896 c 9,17,-1
 0 1099 l 1,18,-1
 0 1461 l 17,19,20
 0 1792 0 1792 248 1792 c 24,21,22
 248 1792 248 1792 328 1792 c 0,23,24
 576 1792 576 1792 576 1469 c 0,25,26
 576 1465 576 1465 576 1461 c 9,27,28
 576 1461 576 1461 576 1099 c 1,29,-1
 424 896 l 1,30,31
 424 896 424 896 672 565 c 1,32,33
 672 565 672 565 824 768 c 0,34,35
 824 768 824 768 960 768 c 1,36,37
 960 768 960 768 960 587 c 1,38,39
 808 384 808 384 808 384 c 1,0,1
537 385 m 1,40,41
 537 385 537 385 290 717 c 1,42,43
 290 717 290 717 192 587 c 9,44,45
 192 422 192 422 192 331 c 0,46,47
 192 256 192 256 248 256 c 24,48,49
 358 256 358 256 440 256 c 0,50,51
 440 256 440 256 537 385 c 1,40,41
288 1077 m 16,52,-1
 384 1205 l 1,53,54
 384 1373 384 1373 384 1461 c 0,55,56
 384 1536 384 1536 328 1536 c 24,57,-1
 248 1536 l 0,58,59
 192 1536 192 1536 192 1461 c 24,60,61
 192 1461 192 1461 192 1205 c 0,62,-1
 288 1077 l 16,52,-1
EndSplineSet
EndChar

StartChar: quotesingle
Encoding: 39 39 37
Width: 1152
VWidth: 2048
Flags: MW
LayerCount: 2
Back
Fore
SplineSet
384 1792 m 29,0,-1
 576 1792 l 29,1,-1
 576 1024 l 29,2,-1
 384 1024 l 29,3,-1
 384 1792 l 29,0,-1
EndSplineSet
EndChar

StartChar: parenleft
Encoding: 40 40 38
Width: 1152
VWidth: 2048
Flags: MW
LayerCount: 2
Back
Fore
SplineSet
768 1792 m 25,0,-1
 768 1611 l 1,1,-1
 384 1099 l 0,2,3
 384 1099 384 1099 384 693 c 1,4,-1
 768 181 l 0,5,6
 768 181 768 181 768 0 c 25,7,8
 768 0 768 0 632 0 c 24,9,10
 632 0 632 0 192 587 c 25,11,12
 192 1190 192 1190 192 1205 c 28,13,14
 192 1205 192 1205 632 1792 c 28,15,16
 700 1792 700 1792 768 1792 c 25,0,-1
EndSplineSet
EndChar

StartChar: parenright
Encoding: 41 41 39
Width: 1152
VWidth: 2048
Flags: MW
LayerCount: 2
Back
Fore
SplineSet
341 1792 m 25,0,-1
 768 1205 l 24,1,-1
 768 587 l 25,2,-1
 328 0 l 25,3,-1
 192 0 l 25,4,-1
 192 182 l 24,5,-1
 576 693 l 24,6,-1
 576 1099 l 25,7,-1
 192 1611 l 25,8,-1
 192 1792 l 25,9,-1
 341 1792 l 25,0,-1
EndSplineSet
EndChar

StartChar: asterisk
Encoding: 42 42 40
Width: 1152
VWidth: 2048
Flags: MW
LayerCount: 2
Back
Fore
SplineSet
616 896 m 1,0,1
 954 454 954 454 960 437 c 0,2,3
 960 437 960 437 960 256 c 25,4,5
 960 256 960 256 824 256 c 24,6,7
 824 256 824 256 576 587 c 25,8,-1
 576 0 l 25,9,-1
 384 0 l 25,10,-1
 384 587 l 25,11,-1
 136 256 l 17,12,13
 0 256 0 256 0 256 c 25,14,15
 0 437 0 437 0 437 c 130,-1,16
 0 437 0 437 344 896 c 1,17,18
 344 896 344 896 0 1355 c 1,19,20
 0 1536 0 1536 0 1536 c 152,-1,21
 0 1536 0 1536 136 1536 c 24,22,23
 136 1536 136 1536 384 1205 c 24,24,25
 384 1205 384 1205 384 1792 c 25,26,-1
 576 1792 l 25,27,-1
 576 1205 l 0,28,-1
 824 1536 l 24,29,30
 824 1536 824 1536 960 1536 c 0,31,32
 960 1536 960 1536 960 1355 c 1,33,34
 960 1355 960 1355 616 896 c 1,0,1
EndSplineSet
EndChar

StartChar: plus
Encoding: 43 43 41
Width: 1152
VWidth: 2048
Flags: MW
LayerCount: 2
Back
Fore
SplineSet
384 1536 m 29,0,-1
 576 1536 l 25,1,-1
 576 1024 l 25,2,-1
 960 1024 l 25,3,-1
 960 768 l 24,4,-1
 576 768 l 24,5,-1
 576 256 l 25,6,-1
 384 256 l 25,7,-1
 384 768 l 24,8,-1
 0 768 l 24,9,-1
 0 1024 l 25,10,-1
 384 1024 l 25,11,-1
 384 1536 l 29,0,-1
EndSplineSet
EndChar

StartChar: comma
Encoding: 44 44 42
Width: 1152
VWidth: 2048
Flags: MW
LayerCount: 2
Back
Fore
SplineSet
672 331 m 0,0,1
 672 0 672 0 424 0 c 24,2,-1
 288 0 l 25,3,-1
 288 256 l 25,4,-1
 424 256 l 0,5,6
 480 256 480 256 480 331 c 24,7,-1
 480 768 l 24,8,-1
 672 768 l 24,9,10
 672 384 672 384 672 331 c 0,0,1
EndSplineSet
EndChar

StartChar: hyphen
Encoding: 45 45 43
Width: 1152
VWidth: 2048
Flags: MW
LayerCount: 2
Back
Fore
SplineSet
0 1024 m 25,0,-1
 960 1024 l 25,1,-1
 960 768 l 24,2,-1
 0 768 l 24,3,4
 0 768 0 768 0 1024 c 25,0,-1
EndSplineSet
EndChar

StartChar: period
Encoding: 46 46 44
Width: 1152
VWidth: 2048
Flags: MW
LayerCount: 2
Back
Fore
SplineSet
192 256 m 29,0,-1
 384 256 l 25,1,-1
 384 0 l 25,2,-1
 192 0 l 25,3,-1
 192 256 l 29,0,-1
EndSplineSet
EndChar

StartChar: slash
Encoding: 47 47 45
Width: 1152
VWidth: 2048
Flags: MW
LayerCount: 2
Back
Fore
SplineSet
149 256 m 25,0,-1
 0 256 l 25,1,-1
 0 455 l 24,2,-1
 811 1536 l 25,3,-1
 960 1536 l 25,4,-1
 960 1337 l 25,5,6
 960 1337 960 1337 149 256 c 25,0,-1
EndSplineSet
EndChar

StartChar: zero
Encoding: 48 48 46
Width: 1152
VWidth: 2048
Flags: MW
LayerCount: 2
Back
Fore
SplineSet
768 331 m 9,0,-1
 768 1099 l 1,1,2
 768 1099 768 1099 192 331 c 1,3,4
 192 256 192 256 248 256 c 24,5,-1
 712 256 l 0,6,7
 768 256 768 256 768 331 c 9,0,-1
768 1461 m 0,8,9
 768 1536 768 1536 712 1536 c 0,10,-1
 248 1536 l 0,11,12
 192 1536 192 1536 192 1461 c 24,13,14
 192 1461 192 1461 192 693 c 0,15,16
 192 693 192 693 768 1461 c 0,8,9
712 1792 m 0,17,18
 960 1792 960 1792 960 1461 c 24,19,20
 960 730 960 730 960 331 c 0,21,22
 960 0 960 0 712 0 c 24,23,-1
 248 0 l 0,24,25
 0 0 0 0 0 331 c 24,26,27
 0 1062 0 1062 0 1461 c 0,28,29
 0 1792 0 1792 248 1792 c 24,30,31
 248 1792 248 1792 712 1792 c 0,17,18
EndSplineSet
EndChar

StartChar: one
Encoding: 49 49 47
Width: 1152
VWidth: 2048
Flags: MW
LayerCount: 2
Back
Fore
SplineSet
384 1734 m 0,0,1
 384 1792 384 1792 480 1792 c 128,-1,2
 576 1792 576 1792 576 1734 c 1,3,4
 576 312 576 312 576 256 c 1,5,-1
 712 256 l 0,6,7
 768 256 768 256 768 128 c 132,-1,8
 768 0 768 0 712 0 c 2,9,10
 712 0 712 0 248 0 c 0,11,12
 192 0 192 0 192 127 c 0,13,14
 192 256 192 256 248 256 c 0,15,-1
 384 256 l 1,16,17
 384 256 384 256 384 1280 c 1,18,19
 356 1280 356 1280 236 1280 c 0,20,21
 192 1280 192 1280 192 1408 c 128,-1,22
 192 1536 192 1536 236 1536 c 0,23,-1
 328 1536 l 0,24,25
 384 1536 384 1536 384 1611 c 0,26,-1
 384 1734 l 0,0,1
EndSplineSet
EndChar

StartChar: two
Encoding: 50 50 48
Width: 1152
VWidth: 2048
Flags: MW
LayerCount: 2
Back
Fore
SplineSet
0 1461 m 0,0,1
 0 1792 0 1792 248 1792 c 0,2,-1
 712 1792 l 0,3,4
 960 1792 960 1792 960 1461 c 0,5,6
 960 1114 960 1114 960 1099 c 0,7,8
 960 1099 960 1099 712 768 c 0,9,-1
 520 768 l 1,10,11
 520 768 520 768 144 256 c 1,12,13
 144 256 144 256 904 256 c 0,14,15
 960 256 960 256 960 128 c 128,-1,16
 960 0 960 0 904 0 c 2,17,18
 904 0 904 0 0 0 c 1,19,20
 0 218 0 218 0 437 c 0,21,22
 0 437 0 437 440 1024 c 2,23,24
 440 1024 440 1024 632 1024 c 0,25,26
 632 1024 632 1024 768 1205 c 0,27,28
 768 1205 768 1205 768 1461 c 0,29,30
 768 1536 768 1536 712 1536 c 0,31,-1
 248 1536 l 0,32,33
 192 1536 192 1536 192 1461 c 0,34,-1
 192 1337 l 0,35,36
 192 1280 192 1280 97 1280 c 1,37,38
 0 1280 0 1280 0 1337 c 1,39,40
 0 1337 0 1337 0 1461 c 0,0,1
EndSplineSet
EndChar

StartChar: three
Encoding: 51 51 49
Width: 1152
VWidth: 2048
Flags: MW
LayerCount: 2
Back
Fore
SplineSet
56 1792 m 0,0,1
 508 1792 508 1792 960 1792 c 25,2,3
 960 1792 960 1792 960 1355 c 1,4,5
 960 1355 960 1355 768 1099 c 0,6,7
 768 1099 768 1099 768 1024 c 1,8,9
 960 1024 960 1024 960 696 c 0,10,11
 960 694 960 694 960 693 c 0,12,13
 960 693 960 693 960 331 c 17,14,15
 960 0 960 0 712 0 c 24,16,17
 257 0 257 0 248 0 c 0,18,19
 0 0 0 0 0 331 c 25,20,21
 0 455 0 455 0 455 c 0,22,23
 0 512 0 512 96 512 c 128,-1,24
 192 512 192 512 192 455 c 0,25,-1
 192 331 l 17,26,27
 192 256 192 256 248 256 c 24,28,29
 248 256 248 256 712 256 c 0,30,31
 768 256 768 256 768 331 c 25,32,33
 768 550 768 550 768 693 c 0,34,35
 768 768 768 768 712 768 c 24,36,-1
 427 768 l 0,37,38
 384 768 384 768 384 896 c 128,-1,39
 384 1024 384 1024 427 1024 c 8,40,-1
 440 1024 l 24,41,42
 440 1024 440 1024 768 1461 c 17,43,44
 768 1536 768 1536 712 1536 c 24,45,-1
 56 1536 l 0,46,47
 0 1536 0 1536 0 1664 c 128,-1,48
 0 1792 0 1792 56 1792 c 0,0,1
EndSplineSet
EndChar

StartChar: four
Encoding: 52 52 50
Width: 1152
VWidth: 2048
Flags: MW
LayerCount: 2
Back
Fore
SplineSet
576 768 m 24,0,-1
 576 1355 l 25,1,-1
 192 843 l 25,2,-1
 192 768 l 24,3,4
 192 768 192 768 576 768 c 24,0,-1
768 1792 m 24,5,-1
 768 768 l 24,6,-1
 917 768 l 0,7,8
 960 768 960 768 960 640 c 128,-1,9
 960 512 960 512 917 512 c 8,10,-1
 768 512 l 25,11,-1
 768 0 l 25,12,-1
 576 0 l 25,13,-1
 576 512 l 25,14,-1
 0 512 l 25,15,-1
 0 949 l 25,16,-1
 632 1792 l 24,17,18
 632 1792 632 1792 768 1792 c 24,5,-1
EndSplineSet
EndChar

StartChar: five
Encoding: 53 53 51
Width: 1152
VWidth: 2048
Flags: MW
LayerCount: 2
Back
Fore
SplineSet
917 1792 m 0,0,1
 960 1792 960 1792 960 1664 c 128,-1,2
 960 1536 960 1536 917 1536 c 8,3,-1
 192 1536 l 24,4,-1
 192 1280 l 25,5,-1
 712 1280 l 0,6,7
 960 1280 960 1280 960 949 c 24,8,9
 960 331 960 331 960 331 c 0,10,11
 960 0 960 0 712 0 c 24,12,-1
 248 0 l 0,13,14
 0 0 0 0 0 331 c 24,15,16
 0 455 0 455 0 455 c 0,17,18
 0 512 0 512 96 512 c 128,-1,19
 192 512 192 512 192 455 c 8,20,-1
 192 331 l 0,21,22
 192 256 192 256 248 256 c 24,23,-1
 712 256 l 0,24,25
 768 256 768 256 768 331 c 24,26,27
 768 949 768 949 768 949 c 0,28,29
 768 1024 768 1024 712 1024 c 24,30,-1
 0 1024 l 25,31,-1
 0 1792 l 18,32,33
 0 1792 0 1792 917 1792 c 0,0,1
EndSplineSet
EndChar

StartChar: six
Encoding: 54 54 52
Width: 1152
VWidth: 2048
Flags: MW
LayerCount: 2
Back
Fore
SplineSet
192 331 m 0,0,1
 192 256 192 256 248 256 c 24,2,-1
 712 256 l 0,3,4
 768 256 768 256 768 331 c 24,5,6
 768 550 768 550 768 693 c 0,7,8
 768 768 768 768 712 768 c 24,9,10
 712 768 712 768 192 768 c 24,11,12
 192 768 192 768 192 331 c 0,0,1
917 1792 m 0,13,14
 960 1792 960 1792 960 1664 c 128,-1,15
 960 1536 960 1536 917 1536 c 0,16,-1
 520 1536 l 25,17,-1
 192 1099 l 25,18,-1
 192 1024 l 25,19,-1
 712 1024 l 0,20,21
 960 1024 960 1024 960 693 c 24,22,23
 960 346 960 346 960 331 c 0,24,25
 960 0 960 0 712 0 c 24,26,-1
 248 0 l 0,27,28
 0 0 0 0 0 331 c 24,29,30
 0 331 0 331 0 1205 c 24,31,32
 0 1205 0 1205 440 1792 c 24,33,34
 440 1792 440 1792 917 1792 c 0,13,14
EndSplineSet
EndChar

StartChar: seven
Encoding: 55 55 53
Width: 1152
VWidth: 2048
Flags: MW
LayerCount: 2
Back
Fore
SplineSet
0 1792 m 25,0,-1
 960 1792 l 25,1,-1
 960 1355 l 25,2,-1
 384 587 l 25,3,-1
 384 0 l 25,4,-1
 192 0 l 25,5,-1
 192 693 l 24,6,-1
 768 1461 l 25,7,-1
 768 1536 l 25,8,-1
 0 1536 l 17,9,10
 0 1536 0 1536 0 1792 c 25,0,-1
EndSplineSet
EndChar

StartChar: eight
Encoding: 56 56 54
Width: 1152
VWidth: 2048
Flags: MW
LayerCount: 2
Back
Fore
SplineSet
192 331 m 0,0,1
 192 256 192 256 248 256 c 24,2,-1
 712 256 l 0,3,4
 768 256 768 256 768 331 c 24,5,6
 768 693 768 693 768 693 c 1,7,8
 768 768 768 768 712 768 c 1,9,10
 712 768 712 768 248 768 c 0,11,12
 192 768 192 768 192 693 c 24,13,14
 192 608 192 608 192 331 c 0,0,1
192 1099 m 0,15,16
 192 1024 192 1024 248 1024 c 24,17,-1
 712 1024 l 0,18,19
 768 1024 768 1024 768 1099 c 24,20,21
 768 1318 768 1318 768 1461 c 0,22,23
 768 1536 768 1536 712 1536 c 24,24,-1
 248 1536 l 0,25,26
 192 1536 192 1536 192 1461 c 24,27,28
 192 1389 192 1389 192 1099 c 0,15,16
876 896 m 1,29,30
 960 839 960 839 960 693 c 0,31,32
 960 331 960 331 960 331 c 0,33,34
 960 0 960 0 712 0 c 24,35,36
 248 0 248 0 248 0 c 0,37,38
 0 0 0 0 0 331 c 24,39,40
 0 331 0 331 0 693 c 0,41,42
 1 834 1 834 84 896 c 1,43,44
 0 957 0 957 0 1099 c 0,45,46
 0 1461 0 1461 0 1461 c 0,47,48
 0 1792 0 1792 248 1792 c 24,49,50
 712 1792 712 1792 712 1792 c 0,51,52
 960 1792 960 1792 960 1461 c 24,53,54
 960 1446 960 1446 960 1099 c 0,55,56
 960 954 960 954 876 896 c 1,29,30
EndSplineSet
EndChar

StartChar: nine
Encoding: 57 57 55
Width: 1152
VWidth: 2048
Flags: MW
LayerCount: 2
Back
Fore
SplineSet
768 1461 m 0,0,1
 768 1536 768 1536 712 1536 c 24,2,-1
 248 1536 l 0,3,4
 192 1536 192 1536 192 1461 c 24,5,6
 192 1242 192 1242 192 1099 c 0,7,8
 192 1024 192 1024 248 1024 c 24,9,-1
 768 1024 l 25,10,11
 768 1280 768 1280 768 1461 c 0,0,1
712 1792 m 0,12,13
 960 1792 960 1792 960 1461 c 24,14,15
 960 1461 960 1461 960 587 c 25,16,-1
 520 0 l 1,17,-1
 43 0 l 17,18,19
 0 0 0 0 0 128 c 128,-1,20
 0 256 0 256 43 256 c 0,21,-1
 440 256 l 24,22,23
 440 256 440 256 768 693 c 24,24,25
 768 693 768 693 768 768 c 24,26,-1
 248 768 l 0,27,28
 0 768 0 768 0 1099 c 24,29,30
 0 1446 0 1446 0 1461 c 0,31,32
 0 1792 0 1792 248 1792 c 24,33,34
 248 1792 248 1792 712 1792 c 0,12,13
EndSplineSet
EndChar

StartChar: colon
Encoding: 58 58 56
Width: 1152
VWidth: 2048
Flags: MW
LayerCount: 2
Back
Fore
SplineSet
384 768 m 29,0,-1
 576 768 l 25,1,-1
 576 512 l 25,2,-1
 384 512 l 25,3,-1
 384 768 l 29,0,-1
384 1280 m 25,4,-1
 576 1280 l 25,5,-1
 576 1024 l 25,6,-1
 384 1024 l 25,7,-1
 384 1280 l 25,4,-1
EndSplineSet
EndChar

StartChar: semicolon
Encoding: 59 59 57
Width: 1152
VWidth: 2048
Flags: MW
LayerCount: 2
Back
Fore
SplineSet
672 768 m 24,0,1
 672 768 672 768 672 331 c 0,2,3
 672 0 672 0 424 0 c 24,4,-1
 288 0 l 25,5,-1
 288 256 l 25,6,-1
 424 256 l 0,7,8
 480 256 480 256 480 331 c 24,9,-1
 480 768 l 24,10,11
 480 768 480 768 672 768 c 24,0,1
480 1280 m 25,12,-1
 672 1280 l 25,13,-1
 672 1024 l 25,14,-1
 480 1024 l 25,15,-1
 480 1280 l 25,12,-1
EndSplineSet
EndChar

StartChar: less
Encoding: 60 60 58
Width: 1152
VWidth: 2048
Flags: MW
LayerCount: 2
Back
Fore
SplineSet
232 896 m 1,0,1
 232 896 232 896 768 182 c 0,2,3
 768 182 768 182 768 0 c 25,4,5
 768 0 768 0 632 0 c 24,6,7
 632 0 632 0 0 843 c 25,8,-1
 0 949 l 25,9,10
 0 949 0 949 632 1792 c 24,11,12
 632 1792 632 1792 768 1792 c 24,13,14
 768 1792 768 1792 768 1611 c 1,15,-1
 232 896 l 1,0,1
EndSplineSet
EndChar

StartChar: equal
Encoding: 61 61 59
Width: 1152
VWidth: 2048
Flags: MW
LayerCount: 2
Back
Fore
SplineSet
0 768 m 24,0,-1
 960 768 l 24,1,-1
 960 512 l 25,2,-1
 0 512 l 25,3,4
 0 512 0 512 0 768 c 24,0,-1
0 1280 m 25,5,-1
 960 1280 l 25,6,-1
 960 1024 l 25,7,-1
 0 1024 l 25,8,-1
 0 1280 l 25,5,-1
EndSplineSet
EndChar

StartChar: greater
Encoding: 62 62 60
Width: 1152
VWidth: 2048
Flags: MW
LayerCount: 2
Back
Fore
SplineSet
536 896 m 129,-1,1
 536 896 536 896 0 1611 c 1,2,-1
 0 1792 l 25,3,4
 136 1792 136 1792 136 1792 c 24,5,6
 768 949 768 949 768 949 c 25,7,8
 768 843 768 843 768 843 c 25,9,10
 136 0 136 0 136 0 c 24,11,12
 0 0 0 0 0 0 c 25,13,14
 0 181 0 181 0 181 c 0,15,0
 536 896 536 896 536 896 c 129,-1,1
EndSplineSet
EndChar

StartChar: question
Encoding: 63 63 61
Width: 1152
VWidth: 2048
Flags: MW
LayerCount: 2
Back
Fore
SplineSet
712 1792 m 0,0,1
 960 1792 960 1792 960 1461 c 25,2,-1
 960 1355 l 1,3,-1
 576 843 l 25,4,-1
 576 512 l 1,5,-1
 384 512 l 25,6,-1
 384 949 l 25,7,-1
 768 1461 l 17,8,9
 768 1536 768 1536 712 1536 c 24,10,11
 712 1536 712 1536 248 1536 c 0,12,13
 192 1536 192 1536 192 1461 c 25,14,-1
 192 1337 l 25,15,-1
 0 1337 l 25,16,-1
 0 1461 l 17,17,18
 0 1792 0 1792 248 1792 c 24,19,20
 248 1792 248 1792 712 1792 c 0,0,1
384 256 m 25,21,-1
 576 256 l 25,22,-1
 576 0 l 25,23,-1
 384 0 l 25,24,-1
 384 256 l 25,21,-1
EndSplineSet
EndChar

StartChar: at
Encoding: 64 64 62
Width: 1152
VWidth: 2048
Flags: MW
LayerCount: 2
Back
Fore
SplineSet
768 1461 m 1,0,1
 768 1536 768 1536 712 1536 c 0,2,3
 480 1536 480 1536 248 1536 c 1,4,5
 192 1536 192 1536 192 1461 c 1,6,7
 192 1461 192 1461 192 331 c 1,8,9
 192 256 192 256 248 256 c 1,10,11
 248 256 248 256 917 256 c 0,12,13
 960 256 960 256 960 128 c 128,-1,14
 960 0 960 0 917 0 c 0,15,16
 917 0 917 0 235 0 c 0,17,18
 0 0 0 0 0 327 c 1,19,20
 0 1026 0 1026 0 1461 c 0,21,22
 0 1792 0 1792 248 1792 c 0,23,24
 248 1792 248 1792 712 1792 c 0,25,26
 960 1792 960 1792 960 1461 c 0,27,28
 960 986 960 986 960 839 c 0,29,30
 960 512 960 512 712 512 c 0,31,32
 712 512 712 512 632 512 c 0,33,34
 384 512 384 512 384 843 c 0,35,36
 384 1213 384 1213 384 1223 c 0,37,38
 384 1280 384 1280 480 1280 c 128,-1,39
 576 1280 576 1280 576 1223 c 0,40,-1
 576 896 l 0,41,42
 576 825 576 825 632 825 c 0,43,44
 632 825 632 825 712 825 c 0,45,46
 768 825 768 825 768 896 c 0,47,48
 768 896 768 896 768 1461 c 1,0,1
EndSplineSet
EndChar

StartChar: A
Encoding: 65 65 63
Width: 1152
VWidth: 2048
Flags: MW
LayerCount: 2
Back
Fore
SplineSet
480 1483 m 1,0,1
 480 1483 480 1483 192 1099 c 1,2,-1
 192 825 l 0,3,4
 192 768 192 768 235 768 c 24,5,6
 235 768 235 768 725 768 c 0,7,8
 768 768 768 768 768 825 c 24,9,10
 768 825 768 825 768 1099 c 0,11,-1
 480 1483 l 1,0,1
520 1792 m 17,12,13
 520 1792 520 1792 960 1205 c 24,14,-1
 960 0 l 25,15,-1
 768 0 l 25,16,-1
 768 455 l 0,17,18
 768 512 768 512 725 512 c 24,19,20
 480 512 480 512 235 512 c 24,21,22
 192 512 192 512 192 455 c 24,23,-1
 192 0 l 25,24,-1
 0 0 l 25,25,-1
 0 1205 l 24,26,-1
 440 1792 l 24,27,28
 440 1792 440 1792 520 1792 c 17,12,13
EndSplineSet
EndChar

StartChar: B
Encoding: 66 66 64
Width: 1152
VWidth: 2048
Flags: MW
LayerCount: 2
Back
Fore
SplineSet
192 768 m 0,0,-1
 192 256 l 1,1,-1
 725 256 l 0,2,3
 768 256 768 256 768 313 c 1,4,5
 768 640 768 640 768 711 c 0,6,7
 768 768 768 768 725 768 c 1,8,9
 192 768 192 768 192 768 c 0,0,-1
725 1024 m 1,10,11
 768 1024 768 1024 768 1081 c 0,12,-1
 768 1465 l 1,13,14
 768 1536 768 1536 725 1536 c 0,15,-1
 192 1536 l 1,16,-1
 192 1024 l 1,17,-1
 725 1024 l 1,10,11
725 1792 m 0,18,19
 960 1792 960 1792 960 1465 c 1,20,21
 960 1180 960 1180 960 1081 c 0,22,23
 960 896 960 896 864 896 c 1,24,25
 960 896 960 896 960 710 c 0,26,-1
 960 313 l 1,27,28
 960 0 960 0 725 0 c 0,29,-1
 0 0 l 1,30,-1
 0 1792 l 1,31,32
 0 1792 0 1792 725 1792 c 0,18,19
EndSplineSet
EndChar

StartChar: C
Encoding: 67 67 65
Width: 1152
VWidth: 2048
Flags: MW
LayerCount: 2
Back
Fore
SplineSet
192 313 m 1,0,1
 192 256 192 256 235 256 c 0,2,3
 480 256 480 256 725 256 c 0,4,5
 768 256 768 256 768 313 c 0,6,7
 768 313 768 313 768 512 c 1,8,9
 768 512 768 512 960 512 c 1,10,-1
 960 313 l 1,11,12
 960 0 960 0 725 0 c 0,13,14
 480 0 480 0 235 0 c 0,15,16
 0 0 0 0 0 313 c 1,17,18
 0 313 0 313 0 512 c 1,19,20
 0 512 0 512 0 1280 c 1,21,-1
 0 1465 l 1,22,23
 0 1792 0 1792 235 1792 c 0,24,25
 480 1792 480 1792 725 1792 c 0,26,27
 960 1792 960 1792 960 1465 c 1,28,29
 960 1465 960 1465 960 1280 c 1,30,-1
 768 1279 l 1,31,32
 768 1464 768 1464 768 1465 c 0,33,34
 768 1536 768 1536 725 1536 c 0,35,36
 725 1536 725 1536 235 1536 c 1,37,38
 192 1536 192 1536 192 1465 c 1,39,40
 192 889 192 889 192 313 c 1,0,1
EndSplineSet
EndChar

StartChar: D
Encoding: 68 68 66
Width: 1152
VWidth: 2048
Flags: MW
LayerCount: 2
Back
Fore
SplineSet
725 256 m 0,0,1
 768 256 768 256 768 313 c 1,2,3
 768 313 768 313 768 1465 c 1,4,5
 768 1536 768 1536 725 1536 c 1,6,7
 725 1536 725 1536 192 1536 c 1,8,-1
 192 256 l 1,9,10
 459 256 459 256 725 256 c 0,0,1
725 1792 m 0,11,12
 960 1789 960 1789 960 1465 c 0,13,14
 960 1236 960 1236 960 313 c 0,15,16
 960 0 960 0 725 0 c 1,17,18
 725 0 725 0 0 0 c 1,19,20
 0 0 0 0 0 1792 c 0,21,22
 0 1792 0 1792 725 1792 c 0,11,12
EndSplineSet
EndChar

StartChar: E
Encoding: 69 69 67
Width: 1152
VWidth: 2048
Flags: MW
LayerCount: 2
Back
Fore
SplineSet
0 0 m 29,0,-1
 0 1792 l 25,1,-1
 960 1792 l 25,2,-1
 960 1536 l 25,3,-1
 192 1536 l 25,4,-1
 192 1024 l 25,5,-1
 768 1024 l 25,6,-1
 768 768 l 25,7,-1
 192 768 l 25,8,-1
 192 256 l 25,9,-1
 960 256 l 25,10,-1
 960 0 l 25,11,-1
 0 0 l 29,0,-1
EndSplineSet
EndChar

StartChar: F
Encoding: 70 70 68
Width: 1152
VWidth: 2048
Flags: MW
LayerCount: 2
Back
Fore
SplineSet
0 0 m 29,0,-1
 0 1792 l 25,1,-1
 960 1792 l 25,2,-1
 960 1536 l 25,3,-1
 192 1536 l 25,4,-1
 192 1024 l 25,5,-1
 768 1024 l 25,6,-1
 768 768 l 25,7,-1
 192 768 l 25,8,-1
 192 0 l 25,9,-1
 0 0 l 29,0,-1
EndSplineSet
EndChar

StartChar: G
Encoding: 71 71 69
Width: 1152
VWidth: 2048
Flags: MW
LayerCount: 2
Back
Fore
SplineSet
0 1465 m 1,0,1
 0 1792 0 1792 235 1792 c 1,2,3
 235 1792 235 1792 960 1792 c 25,4,-1
 960 1536 l 1,5,-1
 235 1536 l 1,6,7
 192 1536 192 1536 192 1465 c 1,8,9
 192 1465 192 1465 192 313 c 1,10,11
 192 256 192 256 235 256 c 1,12,13
 235 256 235 256 768 256 c 1,14,-1
 768 512 l 1,15,-1
 618 512 l 0,16,17
 576 569 576 569 576 667 c 0,18,19
 576 711 576 711 618 768 c 0,20,21
 618 768 618 768 960 768 c 1,22,23
 960 768 960 768 960 0 c 25,24,-1
 235 0 l 0,25,26
 0 0 0 0 0 313 c 1,27,28
 0 610 0 610 0 1465 c 1,0,1
EndSplineSet
EndChar

StartChar: H
Encoding: 72 72 70
Width: 1152
VWidth: 2048
Flags: MW
LayerCount: 2
Back
Fore
SplineSet
0 0 m 29,0,-1
 0 1792 l 25,1,-1
 192 1792 l 25,2,-1
 192 1024 l 25,3,-1
 768 1024 l 25,4,-1
 768 1792 l 25,5,-1
 960 1792 l 25,6,-1
 960 0 l 25,7,-1
 768 0 l 25,8,-1
 768 768 l 25,9,-1
 192 768 l 25,10,-1
 192 0 l 25,11,-1
 0 0 l 29,0,-1
EndSplineSet
EndChar

StartChar: I
Encoding: 73 73 71
Width: 1152
VWidth: 2048
Flags: MW
LayerCount: 2
Back
Fore
SplineSet
192 0 m 25,0,-1
 192 256 l 25,1,-1
 384 256 l 25,2,-1
 384 1536 l 25,3,-1
 192 1536 l 25,4,-1
 192 1792 l 25,5,-1
 768 1792 l 25,6,-1
 768 1536 l 25,7,-1
 576 1536 l 25,8,-1
 576 256 l 25,9,-1
 768 256 l 25,10,-1
 768 0 l 25,11,-1
 192 0 l 25,0,-1
EndSplineSet
EndChar

StartChar: J
Encoding: 74 74 72
Width: 1152
VWidth: 2048
Flags: MW
LayerCount: 2
Back
Fore
SplineSet
192 512 m 1,0,1
 192 384 192 384 192 313 c 0,2,3
 192 256 192 256 235 256 c 0,4,5
 480 256 480 256 725 256 c 0,6,7
 768 256 768 256 768 313 c 1,8,9
 768 1054 768 1054 768 1792 c 1,10,-1
 960 1792 l 1,11,12
 960 510 960 510 960 313 c 1,13,14
 960 1 960 1 725 0 c 0,15,16
 725 0 725 0 235 0 c 0,17,18
 0 0 0 0 0 313 c 1,19,20
 0 313 0 313 0 512 c 1,21,22
 0 512 0 512 192 512 c 1,0,1
EndSplineSet
EndChar

StartChar: K
Encoding: 75 75 73
Width: 1152
VWidth: 2048
Flags: MW
LayerCount: 2
Back
Fore
SplineSet
424 896 m 1,0,1
 424 896 424 896 960 182 c 0,2,3
 960 182 960 182 960 0 c 25,4,5
 960 0 960 0 824 0 c 24,6,-1
 248 768 l 24,7,8
 248 768 248 768 192 768 c 24,9,-1
 192 0 l 25,10,-1
 0 0 l 25,11,-1
 0 1792 l 25,12,-1
 192 1792 l 25,13,-1
 192 1024 l 25,14,15
 192 1024 192 1024 248 1024 c 24,16,-1
 824 1792 l 24,17,18
 824 1792 824 1792 960 1792 c 25,19,-1
 960 1611 l 1,20,-1
 424 896 l 1,0,1
EndSplineSet
EndChar

StartChar: L
Encoding: 76 76 74
Width: 1152
VWidth: 2048
Flags: MW
LayerCount: 2
Back
Fore
SplineSet
0 0 m 29,0,-1
 0 1792 l 25,1,-1
 192 1792 l 25,2,-1
 192 256 l 25,3,-1
 960 256 l 25,4,-1
 960 0 l 25,5,-1
 0 0 l 29,0,-1
EndSplineSet
EndChar

StartChar: M
Encoding: 77 77 75
Width: 1152
VWidth: 2048
Flags: MW
LayerCount: 2
Back
Fore
SplineSet
480 1333 m 1,0,1
 480 1333 480 1333 824 1792 c 0,2,3
 824 1792 824 1792 960 1792 c 25,4,-1
 960 0 l 25,5,-1
 768 0 l 1,6,-1
 768 1355 l 25,7,8
 768 1355 768 1355 576 1099 c 1,9,-1
 576 768 l 1,10,11
 576 768 576 768 384 768 c 1,12,-1
 384 1099 l 1,13,14
 384 1099 384 1099 192 1355 c 25,15,-1
 192 0 l 1,16,-1
 0 0 l 25,17,-1
 0 1792 l 25,18,19
 0 1792 0 1792 136 1792 c 0,20,-1
 480 1333 l 1,0,1
EndSplineSet
EndChar

StartChar: N
Encoding: 78 78 76
Width: 1152
VWidth: 2048
Flags: MW
LayerCount: 2
Back
Fore
SplineSet
192 1461 m 1,0,-1
 768 693 l 1,1,2
 768 693 768 693 768 1792 c 1,3,4
 768 1792 768 1792 960 1792 c 1,5,6
 960 1792 960 1792 960 0 c 1,7,-1
 768 0 l 1,8,9
 768 0 768 0 768 331 c 1,10,-1
 192 1099 l 1,11,12
 192 1099 192 1099 192 0 c 1,13,-1
 0 0 l 1,14,-1
 0 1792 l 1,15,16
 0 1792 0 1792 192 1792 c 1,17,18
 192 1792 192 1792 192 1461 c 1,0,-1
EndSplineSet
EndChar

StartChar: O
Encoding: 79 79 77
Width: 1152
VWidth: 2048
Flags: MW
LayerCount: 2
Back
Fore
SplineSet
712 1536 m 0,0,1
 712 1536 712 1536 248 1536 c 1,2,3
 192 1536 192 1536 192 1461 c 1,4,5
 192 1461 192 1461 192 331 c 1,6,7
 192 256 192 256 248 256 c 0,8,9
 248 256 248 256 712 256 c 0,10,11
 768 256 768 256 768 331 c 1,12,13
 768 331 768 331 768 1280 c 1,14,15
 768 1536 768 1536 712 1536 c 0,0,1
960 512 m 2,16,-1
 960 331 l 1,17,18
 960 0 960 0 712 0 c 0,19,20
 248 0 248 0 248 0 c 0,21,22
 0 0 0 0 0 331 c 1,23,24
 0 331 0 331 0 512 c 1,25,26
 0 512 0 512 0 1280 c 1,27,-1
 0 1461 l 1,28,29
 0 1790 0 1790 248 1792 c 0,30,31
 248 1792 248 1792 712 1792 c 0,32,33
 960 1792 960 1792 960 1461 c 1,34,35
 960 657 960 657 960 512 c 2,16,-1
EndSplineSet
EndChar

StartChar: P
Encoding: 80 80 78
Width: 1152
VWidth: 2048
Flags: MW
LayerCount: 2
Back
Fore
SplineSet
712 1792 m 0,0,1
 960 1792 960 1792 960 1461 c 1,2,3
 960 1188 960 1188 960 1099 c 1,4,5
 960 768 960 768 712 768 c 0,6,7
 712 768 712 768 192 768 c 1,8,-1
 192 0 l 25,9,-1
 0 0 l 25,10,-1
 0 1792 l 1,11,12
 18 1792 18 1792 712 1792 c 0,0,1
712 1024 m 0,13,14
 768 1024 768 1024 768 1099 c 1,15,16
 768 1408 768 1408 768 1461 c 0,17,18
 768 1536 768 1536 712 1536 c 1,19,20
 712 1536 712 1536 192 1536 c 1,21,-1
 192 1024 l 1,22,23
 192 1024 192 1024 712 1024 c 0,13,14
EndSplineSet
EndChar

StartChar: Q
Encoding: 81 81 79
Width: 1152
VWidth: 2048
Flags: MW
LayerCount: 2
Back
Fore
SplineSet
384 587 m 1,0,-1
 384 768 l 0,1,-1
 520 768 l 1,2,-1
 960 181 l 0,3,-1
 960 0 l 1,4,-1
 824 0 l 0,5,6
 824 0 824 0 384 587 c 1,0,-1
248 0 m 1,7,8
 0 0 0 0 0 331 c 1,9,10
 0 331 0 331 0 1461 c 0,11,12
 0 1792 0 1792 248 1792 c 1,13,-1
 712 1792 l 2,14,15
 960 1792 960 1792 960 1461 c 1,16,-1
 960 569 l 1,17,18
 960 512 960 512 864 512 c 129,-1,19
 768 512 768 512 768 569 c 1,20,-1
 768 1461 l 2,21,22
 768 1536 768 1536 712 1536 c 1,23,24
 712 1536 712 1536 248 1536 c 1,25,26
 192 1536 192 1536 192 1461 c 2,27,28
 192 1461 192 1461 192 331 c 2,29,30
 192 256 192 256 248 256 c 1,31,32
 248 256 248 256 548 256 c 0,33,34
 576 256 576 256 576 128 c 128,-1,35
 576 0 576 0 548 0 c 0,36,37
 548 0 548 0 248 0 c 1,7,8
EndSplineSet
EndChar

StartChar: R
Encoding: 82 82 80
Width: 1152
VWidth: 2048
Flags: MW
LayerCount: 2
Back
Fore
SplineSet
768 1461 m 0,0,1
 768 1536 768 1536 712 1536 c 24,2,-1
 192 1536 l 24,3,-1
 192 1024 l 25,4,-1
 712 1024 l 0,5,6
 768 1024 768 1024 768 1099 c 24,7,8
 768 1099 768 1099 768 1461 c 0,0,1
520 768 m 25,9,10
 520 768 520 768 960 181 c 24,11,12
 960 181 960 181 960 0 c 25,13,14
 960 0 960 0 824 0 c 0,15,-1
 248 768 l 24,16,17
 248 768 248 768 192 768 c 0,18,-1
 192 0 l 25,19,-1
 0 0 l 25,20,-1
 0 1792 l 1,21,-1
 712 1792 l 1,22,23
 960 1792 960 1792 960 1461 c 8,24,25
 960 1461 960 1461 960 1099 c 2,26,27
 960 768 960 768 712 768 c 8,28,29
 616 768 616 768 520 768 c 25,9,10
EndSplineSet
EndChar

StartChar: S
Encoding: 83 83 81
Width: 1152
VWidth: 2048
Flags: MW
LayerCount: 2
Back
Fore
SplineSet
712 1792 m 0,0,1
 960 1792 960 1792 960 1461 c 0,2,3
 960 1337 960 1337 960 1337 c 0,4,5
 917 1280 917 1280 864 1280 c 129,-1,6
 811 1280 811 1280 768 1337 c 1,7,-1
 768 1461 l 0,8,9
 768 1536 768 1536 712 1536 c 24,10,-1
 248 1536 l 0,11,12
 192 1536 192 1536 192 1461 c 24,13,14
 192 1218 192 1218 192 1099 c 0,15,16
 192 1024 192 1024 248 1024 c 24,17,-1
 712 1024 l 0,18,19
 960 1024 960 1024 960 693 c 24,20,21
 960 346 960 346 960 331 c 0,22,23
 960 0 960 0 712 0 c 24,24,-1
 248 0 l 0,25,26
 0 0 0 0 0 331 c 0,27,28
 0 455 0 455 0 455 c 0,29,30
 49 512 49 512 97 512 c 128,-1,31
 145 512 145 512 192 455 c 8,32,-1
 192 331 l 0,33,34
 192 256 192 256 248 256 c 24,35,-1
 712 256 l 0,36,37
 768 256 768 256 768 331 c 24,38,39
 768 550 768 550 768 693 c 0,40,41
 768 768 768 768 712 768 c 24,42,-1
 248 768 l 0,43,44
 0 768 0 768 0 1099 c 24,45,46
 0 1446 0 1446 0 1461 c 0,47,48
 0 1792 0 1792 248 1792 c 24,49,50
 480 1792 480 1792 712 1792 c 0,0,1
EndSplineSet
EndChar

StartChar: T
Encoding: 84 84 82
Width: 1152
VWidth: 2048
Flags: MW
LayerCount: 2
Back
Fore
SplineSet
0 1792 m 29,0,-1
 960 1792 l 25,1,-1
 960 1536 l 25,2,-1
 576 1536 l 25,3,-1
 576 0 l 25,4,-1
 384 0 l 25,5,-1
 384 1536 l 25,6,-1
 0 1536 l 25,7,-1
 0 1792 l 29,0,-1
EndSplineSet
EndChar

StartChar: U
Encoding: 85 85 83
Width: 1152
VWidth: 2048
Flags: MW
LayerCount: 2
Back
Fore
SplineSet
192 1792 m 25,0,-1
 192 331 l 0,1,2
 192 256 192 256 248 256 c 24,3,-1
 712 256 l 0,4,5
 768 256 768 256 768 331 c 24,6,-1
 768 1792 l 24,7,-1
 960 1792 l 25,8,9
 960 1792 960 1792 960 331 c 0,10,11
 960 0 960 0 712 0 c 24,12,-1
 248 0 l 0,13,14
 0 0 0 0 0 331 c 24,15,16
 0 331 0 331 0 1792 c 25,17,-1
 192 1792 l 25,0,-1
EndSplineSet
EndChar

StartChar: V
Encoding: 86 86 84
Width: 1152
VWidth: 2048
Flags: MW
LayerCount: 2
Back
Fore
SplineSet
480 309 m 1,0,1
 480 309 480 309 768 693 c 0,2,-1
 768 1792 l 24,3,4
 768 1792 768 1792 960 1792 c 25,5,-1
 960 587 l 25,6,-1
 520 0 l 25,7,8
 520 0 520 0 440 0 c 24,9,10
 440 0 440 0 0 587 c 25,11,-1
 0 1792 l 25,12,-1
 192 1792 l 25,13,-1
 192 693 l 0,14,-1
 480 309 l 1,0,1
EndSplineSet
EndChar

StartChar: W
Encoding: 87 87 85
Width: 1152
VWidth: 2048
Flags: MW
LayerCount: 2
Back
Fore
SplineSet
480 459 m 1,0,1
 136 0 136 0 136 0 c 0,2,3
 0 0 0 0 0 0 c 153,-1,4
 0 0 0 0 0 1792 c 25,5,-1
 192 1792 l 25,6,-1
 192 437 l 24,7,-1
 384 693 l 0,8,-1
 384 1024 l 1,9,10
 384 1024 384 1024 576 1024 c 1,11,12
 576 1024 576 1024 576 693 c 0,13,-1
 768 437 l 24,14,-1
 768 1792 l 25,15,-1
 960 1792 l 25,16,-1
 960 0 l 25,17,18
 824 0 824 0 824 0 c 0,19,20
 480 459 480 459 480 459 c 1,0,1
EndSplineSet
EndChar

StartChar: X
Encoding: 88 88 86
Width: 1152
VWidth: 2048
Flags: MW
LayerCount: 2
Back
Fore
SplineSet
344 896 m 129,-1,1
 344 896 344 896 0 1355 c 1,2,-1
 0 1792 l 25,3,-1
 192 1792 l 25,4,-1
 192 1461 l 1,5,-1
 480 1077 l 1,6,7
 480 1077 480 1077 768 1461 c 1,8,-1
 768 1792 l 25,9,-1
 960 1792 l 25,10,-1
 960 1355 l 1,11,-1
 616 896 l 1,12,13
 960 437 960 437 960 437 c 0,14,15
 960 0 960 0 960 0 c 153,-1,16
 960 0 960 0 768 0 c 1,17,-1
 768 331 l 0,18,-1
 480 715 l 1,19,20
 480 715 480 715 192 331 c 1,21,-1
 192 0 l 25,22,-1
 0 0 l 25,23,24
 0 437 0 437 0 437 c 0,25,0
 344 896 344 896 344 896 c 129,-1,1
EndSplineSet
EndChar

StartChar: Y
Encoding: 89 89 87
Width: 1152
VWidth: 2048
Flags: MW
LayerCount: 2
Back
Fore
SplineSet
479 1077 m 1,0,1
 479 1077 479 1077 768 1461 c 1,2,-1
 768 1792 l 1,3,-1
 960 1792 l 25,4,-1
 960 1355 l 25,5,-1
 576 843 l 25,6,-1
 576 0 l 25,7,-1
 384 0 l 25,8,-1
 384 843 l 25,9,-1
 0 1355 l 25,10,-1
 0 1792 l 25,11,-1
 192 1792 l 1,12,-1
 192 1461 l 1,13,-1
 479 1077 l 1,0,1
EndSplineSet
EndChar

StartChar: Z
Encoding: 90 90 88
Width: 1152
VWidth: 2048
Flags: MW
LayerCount: 2
Back
Fore
SplineSet
0 1792 m 25,0,-1
 960 1792 l 25,1,-1
 960 1355 l 25,2,-1
 192 331 l 25,3,-1
 192 256 l 25,4,-1
 960 256 l 25,5,-1
 960 0 l 25,6,-1
 0 0 l 25,7,-1
 0 437 l 24,8,-1
 768 1461 l 25,9,-1
 768 1536 l 24,10,-1
 0 1536 l 24,11,12
 0 1536 0 1536 0 1792 c 25,0,-1
EndSplineSet
EndChar

StartChar: bracketleft
Encoding: 91 91 89
Width: 1152
VWidth: 2048
Flags: MW
LayerCount: 2
Back
Fore
SplineSet
0 1792 m 24,0,-1
 960 1792 l 24,1,-1
 960 1536 l 25,2,-1
 384 1536 l 25,3,-1
 384 256 l 25,4,-1
 960 256 l 25,5,-1
 960 0 l 25,6,-1
 0 0 l 25,7,8
 0 0 0 0 0 1792 c 24,0,-1
EndSplineSet
EndChar

StartChar: backslash
Encoding: 92 92 90
Width: 1152
VWidth: 2048
Flags: MW
LayerCount: 2
Back
Fore
SplineSet
136 1536 m 0,0,1
 136 1536 136 1536 960 437 c 25,2,-1
 960 256 l 1,3,4
 960 256 960 256 824 256 c 0,5,6
 824 256 824 256 0 1355 c 25,7,8
 0 1355 0 1355 0 1536 c 1,9,10
 0 1536 0 1536 136 1536 c 0,0,1
EndSplineSet
EndChar

StartChar: bracketright
Encoding: 93 93 91
Width: 1152
VWidth: 2048
Flags: MW
LayerCount: 2
Back
Fore
SplineSet
0 1792 m 24,0,-1
 960 1792 l 24,1,-1
 960 0 l 25,2,-1
 0 0 l 25,3,-1
 0 256 l 25,4,-1
 576 256 l 25,5,-1
 576 1536 l 25,6,-1
 0 1536 l 25,7,8
 0 1536 0 1536 0 1792 c 24,0,-1
EndSplineSet
EndChar

StartChar: asciicircum
Encoding: 94 94 92
Width: 1152
VWidth: 2048
Flags: MW
LayerCount: 2
Back
Fore
SplineSet
480 971 m 1,0,1
 480 971 480 971 136 512 c 0,2,3
 136 512 136 512 0 512 c 25,4,5
 0 512 0 512 0 693 c 24,6,7
 0 693 0 693 440 1280 c 24,8,9
 440 1280 440 1280 520 1280 c 25,10,11
 520 1280 520 1280 960 693 c 24,12,13
 960 693 960 693 960 512 c 25,14,15
 960 512 960 512 824 512 c 0,16,-1
 480 971 l 1,0,1
EndSplineSet
EndChar

StartChar: underscore
Encoding: 95 95 93
Width: 1152
VWidth: 2048
Flags: MW
LayerCount: 2
Back
Fore
SplineSet
0 256 m 29,0,-1
 960 256 l 25,1,-1
 960 0 l 25,2,-1
 0 0 l 25,3,-1
 0 256 l 29,0,-1
EndSplineSet
EndChar

StartChar: grave
Encoding: 96 96 94
Width: 1152
VWidth: 2048
Flags: MW
LayerCount: 2
Back
Fore
SplineSet
136 1792 m 24,0,1
 136 1792 136 1792 576 1205 c 24,2,3
 576 1205 576 1205 576 1024 c 1,4,-1
 440 1024 l 25,5,-1
 0 1611 l 25,6,-1
 0 1792 l 25,7,8
 0 1792 0 1792 136 1792 c 24,0,1
EndSplineSet
EndChar

StartChar: a
Encoding: 97 97 95
Width: 1152
VWidth: 2048
Flags: MW
LayerCount: 2
Back
Fore
SplineSet
480 768 m 1,0,1
 480 768 480 768 331 768 c 1,2,3
 288 768 288 768 288 711 c 1,4,5
 288 711 288 711 288 569 c 1,6,7
 288 512 288 512 331 512 c 1,8,9
 331 512 331 512 480 512 c 1,10,11
 480 512 480 512 480 768 c 1,0,1
331 256 m 2,12,13
 96 256 96 256 96 569 c 0,14,15
 96 640 96 640 96 711 c 0,16,17
 96 1024 96 1024 331 1024 c 2,18,19
 331 1024 331 1024 480 1024 c 1,20,21
 480 1024 480 1024 480 1223 c 1,22,23
 480 1280 480 1280 437 1280 c 1,24,25
 437 1280 437 1280 139 1280 c 0,26,27
 96 1280 96 1280 96 1408 c 0,28,29
 97 1536 97 1536 139 1536 c 0,30,31
 288 1536 288 1536 437 1536 c 0,32,33
 672 1536 672 1536 672 1223 c 0,34,35
 672 1223 672 1223 672 512 c 1,36,-1
 821 512 l 0,37,38
 864 512 864 512 864 384 c 128,-1,39
 864 256 864 256 821 256 c 0,40,-1
 331 256 l 2,12,13
EndSplineSet
EndChar

StartChar: b
Encoding: 98 98 96
Width: 1152
VWidth: 2048
Flags: MW
LayerCount: 2
Back
Fore
SplineSet
725 1280 m 0,0,1
 960 1280 960 1280 960 967 c 0,2,3
 960 868 960 868 960 768 c 1,4,5
 960 256 960 256 725 256 c 0,6,7
 725 256 725 256 43 256 c 0,8,9
 0 256 0 256 0 384 c 128,-1,10
 0 512 0 512 43 512 c 0,11,-1
 192 512 l 1,12,-1
 192 1734 l 0,13,14
 192 1792 192 1792 288 1792 c 128,-1,15
 384 1792 384 1792 384 1734 c 0,16,-1
 384 1280 l 1,17,-1
 725 1280 l 0,0,1
725 512 m 0,18,19
 768 512 768 512 768 565 c 0,20,21
 768 567 768 567 768 569 c 1,22,23
 768 896 768 896 768 967 c 0,24,25
 768 1024 768 1024 725 1024 c 1,26,27
 725 1024 725 1024 384 1024 c 1,28,-1
 384 512 l 1,29,30
 555 512 555 512 725 512 c 0,18,19
EndSplineSet
EndChar

StartChar: c
Encoding: 99 99 97
Width: 1152
VWidth: 2048
Flags: MW
LayerCount: 2
Back
Fore
SplineSet
96 1223 m 1,0,1
 96 1536 96 1536 331 1536 c 1,2,3
 331 1536 331 1536 821 1536 c 0,4,5
 864 1536 864 1536 864 1408 c 128,-1,6
 864 1280 864 1280 821 1280 c 0,7,-1
 331 1280 l 1,8,9
 288 1280 288 1280 288 1223 c 1,10,11
 288 1223 288 1223 288 569 c 1,12,13
 288 512 288 512 331 512 c 1,14,15
 331 512 331 512 821 512 c 0,16,17
 864 512 864 512 864 384 c 128,-1,18
 864 256 864 256 821 256 c 0,19,-1
 331 256 l 0,20,21
 96 256 96 256 96 569 c 1,22,23
 96 569 96 569 96 1223 c 1,0,1
EndSplineSet
EndChar

StartChar: d
Encoding: 100 100 98
Width: 1152
VWidth: 2048
Flags: MW
LayerCount: 2
Back
Fore
SplineSet
235 256 m 0,0,1
 0 256 0 256 0 512 c 0,2,3
 0 512 0 512 0 967 c 1,4,5
 0 1280 0 1280 235 1280 c 0,6,7
 235 1280 235 1280 576 1280 c 1,8,-1
 576 1735 l 0,9,10
 576 1792 576 1792 672 1792 c 128,-1,11
 768 1792 768 1792 768 1735 c 0,12,-1
 768 512 l 1,13,-1
 917 512 l 0,14,15
 960 512 960 512 960 384 c 128,-1,16
 960 256 960 256 917 256 c 0,17,18
 917 256 917 256 235 256 c 0,0,1
235 1024 m 1,19,20
 191 1024 191 1024 191 967 c 1,21,22
 192 569 192 569 192 569 c 0,23,24
 192 512 192 512 235 512 c 0,25,26
 235 512 235 512 576 512 c 0,27,28
 576 512 576 512 576 1024 c 1,29,-1
 235 1024 l 1,19,20
EndSplineSet
EndChar

StartChar: e
Encoding: 101 101 99
Width: 1152
VWidth: 2048
Flags: MW
LayerCount: 2
Back
Fore
SplineSet
616 1024 m 0,0,1
 672 1024 672 1024 672 1099 c 2,2,3
 672 1099 672 1099 672 1205 c 1,4,5
 672 1280 672 1280 616 1280 c 1,6,7
 616 1280 616 1280 344 1280 c 0,8,9
 288 1280 288 1280 288 1205 c 1,10,11
 288 1205 288 1205 288 1081 c 0,12,13
 288 1024 288 1024 331 1024 c 1,14,15
 331 1024 331 1024 616 1024 c 0,0,1
96 1205 m 0,16,17
 96 1536 96 1536 344 1536 c 1,18,19
 344 1536 344 1536 616 1536 c 1,20,21
 864 1536 864 1536 864 1205 c 0,22,23
 864 1205 864 1205 864 1099 c 0,24,25
 864 768 864 768 616 768 c 0,26,-1
 288 768 l 1,27,28
 288 595 288 595 288 587 c 0,29,30
 288 512 288 512 344 512 c 1,31,32
 629 512 629 512 629 512 c 0,33,34
 672 512 672 512 672 384 c 128,-1,35
 672 256 672 256 629 256 c 0,36,-1
 344 256 l 0,37,38
 96 256 96 256 96 587 c 1,39,40
 96 587 96 587 96 1205 c 0,16,17
EndSplineSet
EndChar

StartChar: f
Encoding: 102 102 100
Width: 1152
VWidth: 2048
Flags: MW
LayerCount: 2
Back
Fore
SplineSet
288 1465 m 0,0,1
 288 1792 288 1792 522 1792 c 0,2,3
 522 1792 522 1792 629 1792 c 0,4,5
 864 1792 864 1792 864 1465 c 0,6,7
 864 1465 864 1465 864 1280 c 1,8,9
 864 1280 864 1280 672 1280 c 1,10,11
 672 1408 672 1408 672 1465 c 0,12,13
 672 1536 672 1536 629 1536 c 0,14,15
 629 1536 629 1536 522 1536 c 0,16,17
 480 1536 480 1536 480 1465 c 0,18,19
 480 1024 480 1024 480 1024 c 1,20,-1
 629 1024 l 1,21,22
 672 1024 672 1024 672 896 c 128,-1,23
 672 768 672 768 629 768 c 0,24,-1
 480 768 l 0,25,-1
 480 256 l 25,26,-1
 288 256 l 25,27,-1
 288 768 l 0,28,-1
 139 768 l 0,29,30
 96 768 96 768 96 896 c 128,-1,31
 96 1024 96 1024 139 1024 c 1,32,-1
 288 1024 l 1,33,-1
 288 1465 l 0,0,1
EndSplineSet
EndChar

StartChar: g
Encoding: 103 103 101
Width: 1152
VWidth: 2048
Flags: MW
LayerCount: 2
Back
Fore
SplineSet
672 1223 m 1,0,1
 672 1280 672 1280 629 1280 c 1,2,3
 629 1280 629 1280 331 1280 c 0,4,5
 288 1280 288 1280 288 1223 c 1,6,7
 288 1223 288 1223 288 825 c 1,8,9
 288 768 288 768 331 768 c 1,10,11
 629 768 629 768 629 768 c 0,12,13
 672 768 672 768 672 825 c 1,14,15
 672 825 672 825 672 1223 c 1,0,1
331 512 m 2,16,17
 96 512 96 512 96 825 c 0,18,19
 96 825 96 825 96 1223 c 0,20,21
 96 1536 96 1536 331 1536 c 0,22,23
 480 1536 480 1536 629 1536 c 1,24,25
 864 1536 864 1536 864 1223 c 0,26,27
 864 612 864 612 864 313 c 0,28,29
 864 0 864 0 629 0 c 1,30,31
 629 0 629 0 288 0 c 1,32,-1
 288 256 l 1,33,-1
 629 256 l 1,34,35
 672 256 672 256 672 313 c 1,36,37
 672 413 672 413 672 512 c 1,38,-1
 331 512 l 2,16,17
EndSplineSet
EndChar

StartChar: h
Encoding: 104 104 102
Width: 1152
VWidth: 2048
Flags: MW
LayerCount: 2
Back
Fore
SplineSet
629 1280 m 17,0,1
 864 1280 864 1280 864 967 c 0,2,3
 864 836 864 836 864 256 c 25,4,-1
 672 256 l 1,5,-1
 672 967 l 1,6,7
 672 1024 672 1024 629 1024 c 1,8,9
 629 1024 629 1024 288 1024 c 1,10,-1
 288 256 l 25,11,-1
 96 256 l 1,12,-1
 96 1734 l 0,13,14
 96 1792 96 1792 192 1792 c 128,-1,15
 288 1792 288 1792 288 1734 c 8,16,-1
 288 1280 l 1,17,-1
 629 1280 l 17,0,1
EndSplineSet
EndChar

StartChar: i
Encoding: 105 105 103
Width: 1152
VWidth: 2048
Flags: MW
LayerCount: 2
Back
Fore
SplineSet
384 1223 m 4,0,1
 384 1280 384 1280 480 1280 c 129,-1,2
 576 1280 576 1280 576 1223 c 1,3,-1
 576 569 l 0,4,5
 576 512 576 512 618 512 c 0,6,-1
 768 512 l 1,7,-1
 768 256 l 1,8,-1
 192 256 l 1,9,-1
 192 512 l 1,10,-1
 340 512 l 0,11,12
 384 512 384 512 384 569 c 4,13,14
 384 569 384 569 384 1223 c 4,0,1
384 1792 m 0,15,-1
 576 1792 l 0,16,-1
 576 1536 l 1,17,-1
 384 1536 l 1,18,19
 384 1536 384 1536 384 1792 c 0,15,-1
EndSplineSet
EndChar

StartChar: j
Encoding: 106 106 104
Width: 1152
VWidth: 2048
Flags: MW
LayerCount: 2
Back
Fore
SplineSet
576 1792 m 1,0,-1
 768 1792 l 1,1,-1
 768 1536 l 1,2,-1
 576 1536 l 1,3,-1
 576 1792 l 1,0,-1
768 331 m 0,4,5
 768 0 768 0 520 0 c 0,6,7
 520 0 520 0 440 0 c 0,8,9
 192 0 192 0 192 331 c 0,10,11
 192 331 192 331 192 455 c 0,12,13
 192 512 192 512 288 512 c 128,-1,14
 384 512 384 512 384 455 c 0,15,-1
 384 331 l 0,16,17
 384 256 384 256 440 256 c 0,18,19
 440 256 440 256 520 256 c 0,20,21
 576 256 576 256 576 331 c 0,22,23
 576 331 576 331 576 1223 c 0,24,25
 576 1280 576 1280 670 1280 c 0,26,27
 768 1280 768 1280 768 1223 c 0,28,29
 768 1223 768 1223 768 331 c 0,4,5
EndSplineSet
EndChar

StartChar: k
Encoding: 107 107 105
Width: 1152
VWidth: 2048
Flags: MW
LayerCount: 2
Back
Fore
SplineSet
331 1024 m 17,0,1
 331 1024 331 1024 715 1536 c 1,2,-1
 864 1536 l 1,3,-1
 864 1337 l 1,4,-1
 533 896 l 1,5,6
 533 896 533 896 864 455 c 1,7,-1
 864 256 l 1,8,-1
 715 256 l 1,9,-1
 331 768 l 1,10,11
 331 768 331 768 288 768 c 25,12,-1
 288 256 l 25,13,-1
 96 256 l 25,14,-1
 96 1792 l 25,15,-1
 288 1792 l 25,16,-1
 288 1024 l 25,17,-1
 331 1024 l 17,0,1
EndSplineSet
EndChar

StartChar: l
Encoding: 108 108 106
Width: 1152
VWidth: 2048
Flags: MW
LayerCount: 2
Back
Fore
SplineSet
192 1792 m 24,0,-1
 576 1792 l 24,1,-1
 576 512 l 25,2,-1
 768 512 l 25,3,-1
 768 256 l 25,4,-1
 192 256 l 25,5,-1
 192 512 l 25,6,-1
 384 512 l 25,7,-1
 384 1536 l 25,8,-1
 192 1536 l 25,9,10
 192 1536 192 1536 192 1792 c 24,0,-1
EndSplineSet
EndChar

StartChar: m
Encoding: 109 109 107
Width: 1152
VWidth: 2048
Flags: MW
LayerCount: 2
Back
Fore
SplineSet
340 1536 m 2,0,1
 479 1536 479 1536 479 1280 c 1,2,3
 479 1536 479 1536 618 1536 c 0,4,5
 618 1536 618 1536 725 1536 c 0,6,7
 960 1536 960 1536 960 1223 c 1,8,9
 960 740 960 740 960 256 c 1,10,11
 960 256 960 256 768 256 c 1,12,-1
 768 1223 l 2,13,14
 768 1280 768 1280 725 1280 c 1,15,16
 725 1280 725 1280 618 1280 c 0,17,18
 576 1280 576 1280 576 1223 c 0,19,20
 576 1223 576 1223 576 256 c 1,21,-1
 384 256 l 1,22,-1
 384 1223 l 2,23,24
 384 1280 384 1280 340 1280 c 0,25,26
 340 1280 340 1280 235 1280 c 0,27,28
 192 1280 192 1280 192 1223 c 2,29,-1
 192 256 l 1,30,-1
 0 256 l 25,31,-1
 0 1536 l 1,32,-1
 340 1536 l 2,0,1
EndSplineSet
EndChar

StartChar: n
Encoding: 110 110 108
Width: 1152
VWidth: 2048
Flags: MW
LayerCount: 2
Back
Fore
SplineSet
629 1536 m 17,0,1
 864 1536 864 1536 864 1223 c 1,2,3
 864 683 864 683 864 256 c 25,4,-1
 672 256 l 1,5,-1
 672 1223 l 1,6,7
 672 1280 672 1280 629 1280 c 1,8,9
 629 1280 629 1280 288 1280 c 1,10,-1
 288 256 l 25,11,-1
 96 256 l 25,12,-1
 96 1536 l 1,13,-1
 629 1536 l 17,0,1
EndSplineSet
EndChar

StartChar: o
Encoding: 111 111 109
Width: 1152
VWidth: 2048
Flags: MW
LayerCount: 2
Back
Fore
SplineSet
672 1205 m 1,0,1
 672 1280 672 1280 616 1280 c 1,2,3
 616 1280 616 1280 344 1280 c 0,4,5
 288 1280 288 1280 288 1205 c 1,6,7
 288 1205 288 1205 288 587 c 1,8,9
 288 512 288 512 344 512 c 1,10,11
 344 512 344 512 616 512 c 0,12,13
 672 512 672 512 672 587 c 1,14,15
 672 587 672 587 672 1205 c 1,0,1
96 1205 m 0,16,17
 96 1536 96 1536 344 1536 c 1,18,19
 344 1536 344 1536 616 1536 c 1,20,21
 864 1536 864 1536 864 1205 c 0,22,23
 864 730 864 730 864 587 c 0,24,25
 864 256 864 256 616 256 c 1,26,27
 616 256 616 256 344 256 c 1,28,29
 96 256 96 256 96 587 c 0,30,31
 96 659 96 659 96 1205 c 0,16,17
EndSplineSet
EndChar

StartChar: p
Encoding: 112 112 110
Width: 1152
VWidth: 2048
Flags: MW
LayerCount: 2
Back
Fore
SplineSet
616 768 m 1,0,1
 672 768 672 768 672 843 c 1,2,3
 672 843 672 843 672 1205 c 1,4,5
 672 1280 672 1280 616 1280 c 1,6,7
 616 1280 616 1280 288 1280 c 1,8,9
 288 1024 288 1024 288 768 c 0,10,11
 288 768 288 768 616 768 c 1,0,1
616 1536 m 1,12,13
 864 1536 864 1536 864 1205 c 0,14,15
 864 858 864 858 864 843 c 0,16,17
 864 512 864 512 616 512 c 1,18,19
 616 512 616 512 288 512 c 1,20,-1
 288 0 l 1,21,-1
 96 0 l 1,22,-1
 96 1536 l 1,23,-1
 616 1536 l 1,12,13
EndSplineSet
EndChar

StartChar: q
Encoding: 113 113 111
Width: 1152
VWidth: 2048
Flags: MW
LayerCount: 2
Back
Fore
SplineSet
248 1280 m 1,0,1
 192 1280 192 1280 192 1205 c 1,2,3
 192 1205 192 1205 192 843 c 1,4,5
 192 768 192 768 248 768 c 1,6,7
 248 768 248 768 576 768 c 1,8,-1
 576 1280 l 1,9,-1
 248 1280 l 1,0,1
248 512 m 1,10,11
 0 512 0 512 0 843 c 0,12,13
 0 1023 0 1023 0 1205 c 0,14,15
 0 1536 0 1536 248 1536 c 1,16,17
 248 1536 248 1536 542 1536 c 0,18,-1
 768 1536 l 1,19,-1
 768 256 l 1,20,-1
 917 256 l 0,21,22
 960 256 960 256 960 128 c 128,-1,23
 960 0 960 0 917 0 c 0,24,-1
 576 0 l 1,25,-1
 576 512 l 1,26,-1
 248 512 l 1,10,11
EndSplineSet
EndChar

StartChar: r
Encoding: 114 114 112
Width: 1152
VWidth: 2048
Flags: MW
LayerCount: 2
Back
Fore
SplineSet
288 1280 m 1,0,1
 288 1536 288 1536 522 1536 c 1,2,3
 522 1536 522 1536 864 1536 c 1,4,-1
 864 1280 l 1,5,-1
 522 1280 l 1,6,7
 288 1280 288 1280 288 1024 c 1,8,9
 288 1024 288 1024 288 256 c 1,10,-1
 96 256 l 25,11,-1
 96 1536 l 25,12,-1
 288 1536 l 25,13,-1
 288 1280 l 1,0,1
EndSplineSet
EndChar

StartChar: s
Encoding: 115 115 113
Width: 1152
VWidth: 2048
Flags: MW
LayerCount: 2
Back
Fore
SplineSet
864 693 m 0,0,1
 864 640 864 640 864 587 c 0,2,3
 864 256 864 256 616 256 c 0,4,-1
 140 256 l 0,5,6
 96 256 96 256 96 384 c 128,-1,7
 96 512 96 512 140 512 c 0,8,-1
 616 512 l 0,9,10
 672 512 672 512 672 587 c 0,11,12
 672 678 672 678 672 693 c 0,13,14
 672 768 672 768 616 768 c 0,15,-1
 344 768 l 0,16,17
 96 768 96 768 96 1099 c 0,18,19
 96 1099 96 1099 96 1205 c 0,20,21
 96 1536 96 1536 344 1536 c 1,22,23
 344 1536 344 1536 821 1536 c 0,24,25
 864 1536 864 1536 864 1408 c 128,-1,26
 864 1280 864 1280 821 1280 c 1,27,-1
 344 1280 l 0,28,29
 288 1280 288 1280 288 1205 c 0,30,31
 288 1114 288 1114 288 1099 c 0,32,33
 288 1024 288 1024 344 1024 c 0,34,-1
 616 1024 l 0,35,36
 864 1024 864 1024 864 693 c 0,0,1
EndSplineSet
EndChar

StartChar: t
Encoding: 116 116 114
Width: 1152
VWidth: 2048
Flags: MW
LayerCount: 2
Back
Fore
SplineSet
480 587 m 1,0,1
 480 512 480 512 536 512 c 0,2,3
 536 512 536 512 672 512 c 1,4,5
 672 512 672 512 672 256 c 1,6,-1
 536 256 l 1,7,8
 288 256 288 256 288 587 c 1,9,10
 288 934 288 934 288 1280 c 1,11,-1
 140 1280 l 0,12,13
 96 1280 96 1280 96 1408 c 128,-1,14
 96 1536 96 1536 140 1536 c 0,15,-1
 288 1536 l 1,16,-1
 288 1735 l 0,17,18
 288 1792 288 1792 384 1792 c 128,-1,19
 480 1792 480 1792 480 1735 c 0,20,-1
 480 1536 l 1,21,-1
 629 1536 l 0,22,23
 672 1536 672 1536 672 1408 c 128,-1,24
 672 1280 672 1280 629 1280 c 0,25,-1
 480 1280 l 1,26,-1
 480 587 l 1,0,1
EndSplineSet
EndChar

StartChar: u
Encoding: 117 117 115
Width: 1152
VWidth: 2048
Flags: MW
LayerCount: 2
Back
Fore
SplineSet
288 587 m 1,0,1
 288 512 288 512 344 512 c 1,2,3
 344 512 344 512 672 512 c 1,4,-1
 672 1479 l 0,5,6
 672 1536 672 1536 768 1536 c 128,-1,7
 864 1536 864 1536 864 1479 c 0,8,-1
 864 256 l 1,9,-1
 344 256 l 1,10,11
 96 256 96 256 96 587 c 1,12,13
 96 1403 96 1403 96 1479 c 0,14,15
 96 1536 96 1536 192 1536 c 128,-1,16
 288 1536 288 1536 288 1479 c 0,17,-1
 288 587 l 1,0,1
EndSplineSet
EndChar

StartChar: v
Encoding: 118 118 116
Width: 1152
VWidth: 2048
Flags: MW
LayerCount: 2
Back
Fore
SplineSet
480 627 m 1,0,1
 480 627 480 627 768 1479 c 1,2,3
 768 1536 768 1536 864 1536 c 128,-1,4
 960 1536 960 1536 960 1479 c 0,5,6
 960 1479 960 1479 960 1337 c 1,7,-1
 576 256 l 1,8,-1
 384 256 l 0,9,10
 384 256 384 256 0 1337 c 1,11,12
 0 1459 0 1459 0 1479 c 0,13,14
 0 1536 0 1536 96 1536 c 128,-1,15
 192 1536 192 1536 192 1479 c 1,16,-1
 480 627 l 1,0,1
EndSplineSet
EndChar

StartChar: w
Encoding: 119 119 117
Width: 1152
VWidth: 2048
Flags: MW
LayerCount: 2
Back
Fore
SplineSet
0 1479 m 1,0,1
 0 1537 0 1537 94 1537 c 0,2,3
 95 1537 95 1537 96 1536 c 0,4,5
 192 1536 192 1536 192 1479 c 0,6,-1
 192 587 l 0,7,8
 192 512 192 512 248 512 c 0,9,10
 248 512 248 512 328 512 c 0,11,12
 384 512 384 512 384 587 c 1,13,-1
 384 967 l 0,14,15
 384 1024 384 1024 480 1024 c 128,-1,16
 576 1024 576 1024 576 967 c 0,17,-1
 576 587 l 1,18,19
 576 512 576 512 632 512 c 0,20,21
 632 512 632 512 712 512 c 0,22,23
 768 512 768 512 768 587 c 1,24,-1
 768 1479 l 0,25,26
 769 1536 769 1536 864.5 1536 c 128,-1,27
 960 1536 960 1536 960 1479 c 1,28,29
 960 1479 960 1479 960 587 c 1,30,31
 960 256 960 256 712 256 c 2,32,33
 712 256 712 256 632 256 c 0,34,35
 479 256 479 256 479 512 c 1,36,37
 479 256 479 256 328 256 c 1,38,39
 328 256 328 256 248 256 c 0,40,41
 0 256 0 256 0 587 c 2,42,43
 0 587 0 587 0 1479 c 1,0,1
EndSplineSet
EndChar

StartChar: x
Encoding: 120 120 118
Width: 1152
VWidth: 2048
Flags: MW
LayerCount: 2
Back
Fore
SplineSet
479 714 m 129,-1,1
 479 714 479 714 136 256 c 1,2,3
 0 256 0 256 0 437 c 1,4,5
 343 896 343 896 343 896 c 129,-1,6
 343 896 343 896 0 1355 c 1,7,8
 0 1536 0 1536 136 1536 c 1,9,10
 480 1077 480 1077 480 1077 c 129,-1,11
 480 1077 480 1077 824 1536 c 1,12,13
 960 1536 960 1536 960 1355 c 1,14,15
 616 897 616 897 616 897 c 129,-1,16
 616 897 616 897 960 437 c 1,17,18
 960 256 960 256 824 256 c 1,19,0
 479 714 479 714 479 714 c 129,-1,1
EndSplineSet
EndChar

StartChar: y
Encoding: 121 121 119
Width: 1152
VWidth: 2048
Flags: MW
LayerCount: 2
Back
Fore
SplineSet
288 843 m 1,0,1
 288 768 288 768 344 768 c 1,2,3
 344 768 344 768 672 768 c 1,4,-1
 672 1479 l 0,5,6
 672 1536 672 1536 768 1536 c 129,-1,7
 864 1536 864 1536 864 1479 c 1,8,-1
 864 331 l 0,9,10
 864 0 864 0 616 0 c 1,11,-1
 331 0 l 0,12,13
 288 0 288 0 288 128 c 128,-1,14
 288 256 288 256 331 256 c 0,15,-1
 616 256 l 1,16,17
 672 256 672 256 672 331 c 1,18,19
 672 331 672 331 672 512 c 0,20,-1
 344 512 l 1,21,22
 96 512 96 512 96 843 c 1,23,24
 96 843 96 843 96 1479 c 0,25,26
 96 1536 96 1536 192 1536 c 128,-1,27
 288 1536 288 1536 288 1479 c 0,28,-1
 288 843 l 1,0,1
EndSplineSet
EndChar

StartChar: z
Encoding: 122 122 120
Width: 1152
VWidth: 2048
Flags: MW
LayerCount: 2
Back
Fore
SplineSet
904 1280 m 0,0,1
 904 1280 904 1280 328 512 c 1,2,3
 328 512 328 512 917 512 c 0,4,5
 960 512 960 512 960 384 c 128,-1,6
 960 256 960 256 917 256 c 0,7,8
 918 256 918 256 44 256 c 0,9,10
 0 256 0 256 0 384 c 128,-1,11
 0 512 0 512 44 512 c 0,12,-1
 56 512 l 1,13,14
 56 512 56 512 632 1280 c 1,15,16
 632 1280 632 1280 44 1280 c 0,17,18
 0 1280 0 1280 0 1408 c 128,-1,19
 0 1536 0 1536 44 1536 c 0,20,21
 44 1536 44 1536 904 1536 c 0,22,23
 960 1536 960 1536 960 1408 c 128,-1,24
 960 1280 960 1280 904 1280 c 0,0,1
EndSplineSet
EndChar

StartChar: braceleft
Encoding: 123 123 121
Width: 1152
VWidth: 2048
Flags: MW
LayerCount: 2
Back
Fore
SplineSet
384 1461 m 1,0,1
 384 1792 384 1792 632 1792 c 1,2,3
 632 1792 632 1792 768 1792 c 1,4,-1
 768 1536 l 1,5,-1
 632 1536 l 1,6,7
 576 1536 576 1536 576 1461 c 1,8,9
 576 1280 576 1280 576 1099 c 0,10,11
 576 896 576 896 500 896 c 1,12,13
 576 896 576 896 576 693 c 0,14,15
 576 693 576 693 576 331 c 1,16,17
 576 256 576 256 632 256 c 1,18,19
 768 256 768 256 768 256 c 1,20,-1
 768 0 l 1,21,-1
 632 0 l 0,22,23
 384 0 384 0 384 331 c 1,24,25
 384 331 384 331 384 693 c 1,26,27
 384 768 384 768 328 768 c 0,28,29
 328 768 328 768 236 768 c 0,30,31
 192 768 192 768 192 896 c 128,-1,32
 192 1024 192 1024 236 1024 c 0,33,34
 236 1024 236 1024 328 1024 c 1,35,36
 384 1024 384 1024 384 1099 c 1,37,38
 384 1280 384 1280 384 1461 c 1,0,1
EndSplineSet
EndChar

StartChar: bar
Encoding: 124 124 122
Width: 1152
VWidth: 2048
Flags: MW
LayerCount: 2
Back
Fore
SplineSet
384 768 m 24,0,-1
 576 768 l 24,1,-1
 576 0 l 25,2,-1
 384 0 l 25,3,4
 384 0 384 0 384 768 c 24,0,-1
384 1792 m 25,5,-1
 576 1792 l 25,6,-1
 576 1024 l 25,7,-1
 384 1024 l 25,8,-1
 384 1792 l 25,5,-1
EndSplineSet
EndChar

StartChar: braceright
Encoding: 125 125 123
Width: 1152
VWidth: 2048
Flags: MW
LayerCount: 2
Back
Fore
SplineSet
576 1461 m 1,0,1
 576 1280 576 1280 576 1099 c 1,2,3
 576 1024 576 1024 632 1024 c 1,4,5
 632 1024 632 1024 725 1024 c 1,6,7
 768 1024 768 1024 768 896 c 128,-1,8
 768 768 768 768 725 768 c 1,9,10
 725 768 725 768 632 768 c 1,11,12
 576 768 576 768 576 693 c 1,13,14
 576 512 576 512 576 331 c 1,15,16
 576 0 576 0 328 0 c 0,17,18
 328 0 328 0 192 0 c 1,19,-1
 192 256 l 1,20,21
 328 256 328 256 328 256 c 1,22,23
 384 256 384 256 384 331 c 1,24,25
 384 331 384 331 384 693 c 0,26,27
 384 896 384 896 460 896 c 1,28,29
 384 896 384 896 384 1099 c 0,30,31
 384 1099 384 1099 384 1461 c 1,32,33
 384 1536 384 1536 328 1536 c 1,34,35
 328 1536 328 1536 192 1536 c 1,36,-1
 192 1792 l 1,37,-1
 328 1792 l 1,38,39
 576 1792 576 1792 576 1461 c 1,0,1
EndSplineSet
EndChar

StartChar: asciitilde
Encoding: 126 126 124
Width: 1152
VWidth: 2048
Flags: MW
LayerCount: 2
Back
Fore
SplineSet
960 1099 m 0,0,1
 960 768 960 768 712 768 c 24,2,-1
 248 768 l 0,3,4
 192 768 192 768 192 693 c 24,5,-1
 192 512 l 25,6,-1
 0 512 l 25,7,8
 0 514 0 514 0 693 c 0,9,10
 0 1024 0 1024 248 1024 c 24,11,-1
 712 1024 l 0,12,13
 768 1024 768 1024 768 1099 c 24,14,-1
 768 1280 l 25,15,-1
 960 1280 l 25,16,17
 960 1280 960 1280 960 1099 c 0,0,1
EndSplineSet
EndChar

StartChar: uni007F
Encoding: 127 127 125
Width: 1152
VWidth: 2048
Flags: MW
LayerCount: 2
Back
Fore
SplineSet
0 1280 m 29,0,-1
 960 1280 l 25,1,-1
 960 0 l 25,2,-1
 0 0 l 25,3,-1
 0 1280 l 29,0,-1
EndSplineSet
EndChar

StartChar: uni0080
Encoding: 128 128 126
Width: 1152
VWidth: 2048
Flags: MW
LayerCount: 2
Back
Fore
SplineSet
712 1792 m 0,0,1
 960 1792 960 1792 960 1461 c 0,2,3
 960 1461 960 1461 960 1280 c 1,4,5
 960 1280 960 1280 768 1280 c 0,6,-1
 768 1461 l 0,7,8
 768 1536 768 1536 712 1536 c 0,9,-1
 248 1536 l 0,10,11
 192 1536 192 1536 192 1461 c 0,12,13
 192 1461 192 1461 192 843 c 0,14,15
 192 768 192 768 248 768 c 0,16,-1
 712 768 l 2,17,18
 768 768 768 768 768 843 c 2,19,-1
 768 1024 l 0,20,21
 768 1024 768 1024 960 1024 c 1,22,23
 960 1024 960 1024 960 843 c 0,24,25
 960 512 960 512 712 512 c 0,26,-1
 576 512 l 25,27,-1
 576 331 l 0,28,29
 576 0 576 0 328 0 c 0,30,31
 328 0 328 0 0 0 c 1,32,-1
 0 256 l 1,33,-1
 328 256 l 0,34,35
 384 256 384 256 384 331 c 0,36,37
 384 331 384 331 384 512 c 1,38,39
 384 512 384 512 248 512 c 0,40,41
 0 512 0 512 0 843 c 0,42,43
 0 843 0 843 0 1461 c 0,44,45
 0 1792 0 1792 248 1792 c 0,46,47
 248 1792 248 1792 712 1792 c 0,0,1
EndSplineSet
EndChar

StartChar: uni0081
Encoding: 129 129 127
Width: 1152
VWidth: 2048
Flags: MW
LayerCount: 2
Back
Fore
SplineSet
288 1280 m 25,0,-1
 288 331 l 0,1,2
 288 256 288 256 344 256 c 24,3,-1
 672 256 l 24,4,-1
 672 1280 l 25,5,-1
 864 1280 l 25,6,-1
 864 0 l 25,7,-1
 344 0 l 0,8,9
 96 0 96 0 96 331 c 24,10,11
 96 331 96 331 96 1280 c 25,12,-1
 288 1280 l 25,0,-1
672 1792 m 24,13,-1
 864 1792 l 25,14,-1
 864 1536 l 24,15,-1
 672 1536 l 24,16,17
 672 1536 672 1536 672 1792 c 24,13,-1
96 1792 m 25,18,-1
 288 1792 l 25,19,-1
 288 1536 l 24,20,-1
 96 1536 l 24,21,22
 96 1536 96 1536 96 1792 c 25,18,-1
EndSplineSet
EndChar

StartChar: uni0082
Encoding: 130 130 128
Width: 1152
VWidth: 2048
Flags: MW
LayerCount: 2
Back
Fore
SplineSet
288 768 m 25,0,-1
 672 768 l 25,1,2
 672 896 672 896 672 949 c 0,3,4
 672 1024 672 1024 616 1024 c 24,5,-1
 344 1024 l 0,6,7
 288 1024 288 1024 288 949 c 24,8,9
 288 949 288 949 288 768 c 25,0,-1
864 1792 m 137,-1,11
 864 1792 864 1792 864 1536 c 24,12,-1
 536 1536 l 0,13,14
 480 1536 480 1536 480 1461 c 24,15,16
 480 1461 480 1461 480 1280 c 9,17,-1
 616 1280 l 0,18,19
 864 1280 864 1280 864 949 c 25,20,21
 864 949 864 949 864 512 c 9,22,-1
 288 512 l 24,23,24
 288 512 288 512 288 331 c 17,25,26
 288 256 288 256 344 256 c 24,27,-1
 672 256 l 24,28,29
 672 256 672 256 672 0 c 1,30,31
 508 0 508 0 344 0 c 0,32,33
 96 0 96 0 96 331 c 1,34,35
 96 331 96 331 96 949 c 1,36,37
 96 1280 96 1280 288 1280 c 1,38,-1
 288 1461 l 0,39,40
 288 1792 288 1792 535 1792 c 0,41,42
 536 1792 536 1792 536 1792 c 0,43,44
 700 1792 700 1792 782 1792 c 128,-1,45
 864 1792 864 1792 864 1792 c 137,-1,11
EndSplineSet
EndChar

StartChar: uni0083
Encoding: 131 131 129
Width: 1152
VWidth: 2048
Flags: MW
LayerCount: 2
Back
Fore
SplineSet
344 512 m 0,0,1
 288 512 288 512 288 437 c 0,2,3
 288 331 288 331 288 331 c 0,4,5
 288 256 288 256 344 256 c 0,6,7
 344 256 344 256 480 256 c 1,8,9
 480 256 480 256 480 512 c 1,10,11
 480 512 480 512 344 512 c 0,0,1
672 1461 m 1,12,13
 672 1536 672 1536 616 1536 c 24,14,15
 616 1536 616 1536 344 1536 c 0,16,17
 288 1536 288 1536 288 1461 c 1,18,19
 288 1461 288 1461 288 1280 c 1,20,21
 288 1280 288 1280 616 1280 c 0,22,23
 672 1280 672 1280 672 1355 c 0,24,25
 672 1355 672 1355 672 1461 c 1,12,13
616 1792 m 0,26,27
 864 1792 864 1792 864 1461 c 24,28,29
 864 1461 864 1461 864 1355 c 0,30,31
 864 1024 864 1024 672 1024 c 0,32,33
 672 640 672 640 672 331 c 0,34,35
 672 256 672 256 728 256 c 24,36,-1
 821 256 l 0,37,38
 864 256 864 256 864 127 c 0,39,40
 864 0 864 0 821 0 c 24,41,42
 821 0 821 0 232 0 c 0,43,44
 96 0 96 0 96 181 c 24,45,46
 96 181 96 181 96 587 c 0,47,48
 96 768 96 768 232 768 c 24,49,-1
 480 768 l 25,50,-1
 480 1024 l 24,51,-1
 96 1024 l 24,52,53
 96 1408 96 1408 96 1461 c 0,54,55
 96 1792 96 1792 344 1792 c 24,56,57
 344 1792 344 1792 616 1792 c 0,26,27
EndSplineSet
EndChar

StartChar: uni0084
Encoding: 132 132 130
Width: 1152
VWidth: 2048
Flags: MW
LayerCount: 2
Back
Fore
SplineSet
344 512 m 0,0,1
 288 512 288 512 288 437 c 24,2,3
 288 363 288 363 288 331 c 0,4,5
 288 256 288 256 344 256 c 24,6,-1
 480 256 l 25,7,-1
 480 512 l 17,8,9
 480 512 480 512 344 512 c 0,0,1
96 1280 m 24,10,11
 96 1280 96 1280 480 1280 c 0,12,13
 672 1280 672 1280 672 1024 c 24,14,-1
 672 331 l 0,15,16
 672 256 672 256 728 256 c 24,17,-1
 821 256 l 0,18,19
 864 256 864 256 864 127 c 0,20,21
 864 0 864 0 821 0 c 24,22,23
 821 0 821 0 288 0 c 0,24,25
 96 0 96 0 96 256 c 24,26,27
 96 256 96 256 96 512 c 128,-1,28
 96 768 96 768 288 768 c 24,29,-1
 480 768 l 25,30,31
 480 898 480 898 480 949 c 0,32,33
 480 1024 480 1024 424 1024 c 24,34,-1
 96 1024 l 24,35,36
 96 1152 96 1152 96 1280 c 24,10,11
480 1792 m 25,37,-1
 672 1792 l 25,38,-1
 672 1536 l 25,39,-1
 480 1536 l 17,40,41
 480 1536 480 1536 480 1792 c 25,37,-1
96 1792 m 9,42,-1
 288 1792 l 25,43,-1
 288 1536 l 25,44,-1
 96 1536 l 17,45,46
 96 1536 96 1536 96 1792 c 9,42,-1
EndSplineSet
EndChar

StartChar: uni0085
Encoding: 133 133 131
Width: 1152
VWidth: 2048
Flags: MW
LayerCount: 2
Back
Fore
SplineSet
440 512 m 0,0,1
 384 512 384 512 384 437 c 0,2,3
 384 346 384 346 384 331 c 0,4,5
 384 256 384 256 440 256 c 0,6,7
 440 256 440 256 576 256 c 24,8,9
 576 256 576 256 576 512 c 24,10,11
 576 512 576 512 440 512 c 0,0,1
0 1792 m 25,12,13
 2 1792 2 1792 328 1792 c 0,14,15
 576 1792 576 1792 576 1461 c 24,16,-1
 576 1280 l 0,17,-1
 632 1280 l 0,18,19
 768 1280 768 1280 768 1099 c 1,20,-1
 768 256 l 0,21,-1
 917 256 l 0,22,23
 960 256 960 256 960 127 c 17,24,25
 960 0 960 0 917 0 c 0,26,27
 622 0 622 0 328 0 c 0,28,29
 192 0 192 0 192 181 c 1,30,-1
 192 587 l 1,31,32
 192 768 192 768 328 768 c 0,33,-1
 576 768 l 1,34,-1
 576 949 l 17,35,36
 576 1024 576 1024 520 1024 c 24,37,-1
 192 1024 l 24,38,39
 192 1024 192 1024 192 1280 c 24,40,-1
 384 1280 l 24,41,42
 384 1282 384 1282 384 1461 c 0,43,44
 384 1536 384 1536 328 1536 c 24,45,-1
 0 1536 l 24,46,47
 0 1536 0 1536 0 1792 c 25,12,13
EndSplineSet
EndChar

StartChar: uni0086
Encoding: 134 134 132
Width: 1152
VWidth: 2048
Flags: MW
LayerCount: 2
Back
Fore
SplineSet
344 512 m 0,0,1
 288 512 288 512 288 437 c 0,2,3
 288 346 288 346 288 331 c 0,4,5
 288 256 288 256 344 256 c 0,6,7
 344 256 344 256 480 256 c 24,8,9
 480 256 480 256 480 512 c 24,10,11
 480 512 480 512 344 512 c 0,0,1
480 1355 m 0,12,13
 480 1280 480 1280 536 1280 c 16,14,15
 536 1280 536 1280 616 1280 c 0,16,17
 672 1280 672 1280 672 1355 c 0,18,19
 672 1446 672 1446 672 1461 c 0,20,21
 672 1536 672 1536 616 1536 c 0,22,-1
 536 1536 l 0,23,24
 480 1536 480 1536 480 1461 c 24,25,26
 480 1453 480 1453 480 1355 c 0,12,13
672 1280 m 145,-1,28
 672 1280 672 1280 672 256 c 0,29,-1
 821 256 l 0,30,31
 864 256 864 256 864 127 c 17,32,33
 864 0 864 0 821 0 c 0,34,35
 526 0 526 0 232 0 c 0,36,37
 96 0 96 0 96 181 c 1,38,39
 96 587 96 587 96 587 c 1,40,41
 96 768 96 768 232 768 c 0,42,43
 232 768 232 768 480 768 c 1,44,-1
 480 949 l 17,45,46
 480 1024 480 1024 424 1024 c 24,47,48
 96 1024 96 1024 96 1024 c 24,49,50
 96 1152 96 1152 96 1280 c 0,51,52
 96 1280 96 1280 288 1280 c 25,53,54
 288 1280 288 1280 288 1461 c 0,55,56
 288 1792 288 1792 536 1792 c 0,57,58
 536 1792 536 1792 616 1792 c 8,59,60
 864 1789 864 1789 864 1461 c 9,61,62
 864 1280 864 1280 864 1280 c 0,63,27
 672 1280 672 1280 672 1280 c 145,-1,28
EndSplineSet
EndChar

StartChar: uni0087
Encoding: 135 135 133
Width: 1152
VWidth: 2048
Flags: MW
LayerCount: 2
Back
Fore
SplineSet
864 1792 m 25,0,-1
 864 1536 l 24,1,-1
 344 1536 l 0,2,3
 288 1536 288 1536 288 1461 c 24,4,5
 288 1114 288 1114 288 843 c 0,6,7
 288 768 288 768 344 768 c 24,8,-1
 864 768 l 25,9,-1
 864 512 l 24,10,-1
 672 512 l 24,11,-1
 672 331 l 0,12,13
 672 0 672 0 424 0 c 24,14,-1
 96 0 l 25,15,-1
 96 256 l 24,16,-1
 424 256 l 0,17,18
 480 256 480 256 480 331 c 24,19,20
 480 331 480 331 480 512 c 24,21,-1
 344 512 l 0,22,23
 96 512 96 512 96 843 c 24,24,25
 96 1318 96 1318 96 1461 c 0,26,27
 96 1792 96 1792 344 1792 c 24,28,29
 344 1792 344 1792 864 1792 c 25,0,-1
EndSplineSet
EndChar

StartChar: uni0088
Encoding: 136 136 134
Width: 1152
VWidth: 2048
Flags: MW
LayerCount: 2
Back
Fore
SplineSet
616 1280 m 0,0,1
 672 1280 672 1280 672 1355 c 24,2,3
 672 1446 672 1446 672 1461 c 0,4,5
 672 1536 672 1536 616 1536 c 24,6,-1
 344 1536 l 0,7,8
 288 1536 288 1536 288 1461 c 24,9,10
 288 1370 288 1370 288 1355 c 0,11,12
 288 1280 288 1280 344 1280 c 24,13,14
 344 1280 344 1280 616 1280 c 0,0,1
808 1154 m 1,15,16
 864 1105 864 1105 864 967 c 0,17,18
 864 967 864 967 864 843 c 0,19,20
 864 512 864 512 616 512 c 0,21,22
 616 512 616 512 288 512 c 1,23,24
 288 384 288 384 288 331 c 0,25,26
 288 256 288 256 344 256 c 1,27,28
 486 256 486 256 629 256 c 0,29,30
 672 256 672 256 672 127 c 0,31,32
 672 0 672 0 629 0 c 0,33,34
 487 0 487 0 344 0 c 0,35,36
 96 0 96 0 96 331 c 1,37,38
 96 649 96 649 96 967 c 0,39,40
 96 1102 96 1102 151 1154 c 1,41,42
 96 1207 96 1207 96 1355 c 0,43,44
 96 1458 96 1458 96 1461 c 0,45,46
 96 1792 96 1792 344 1792 c 24,47,48
 616 1792 616 1792 616 1792 c 0,49,50
 864 1792 864 1792 864 1461 c 24,51,52
 864 1461 864 1461 864 1355 c 0,53,54
 864 1211 864 1211 808 1154 c 1,15,16
616 768 m 0,55,56
 672 768 672 768 672 843 c 2,57,58
 672 843 672 843 672 949 c 1,59,60
 672 1024 672 1024 616 1024 c 1,61,62
 344 1024 344 1024 344 1024 c 0,63,64
 288 1024 288 1024 288 949 c 1,65,66
 288 858 288 858 288 843 c 0,67,68
 288 768 288 768 344 768 c 1,69,70
 344 768 344 768 616 768 c 0,55,56
EndSplineSet
EndChar

StartChar: uni0089
Encoding: 137 137 135
Width: 1152
VWidth: 2048
Flags: MW
LayerCount: 2
Back
Fore
SplineSet
672 1792 m 25,0,-1
 864 1792 l 25,1,-1
 864 1536 l 24,2,-1
 672 1536 l 24,3,4
 672 1536 672 1536 672 1792 c 25,0,-1
96 1792 m 24,5,-1
 288 1792 l 24,6,-1
 288 1536 l 24,7,-1
 96 1536 l 24,8,9
 96 1536 96 1536 96 1792 c 24,5,-1
616 768 m 0,10,11
 672 768 672 768 672 843 c 2,12,13
 672 843 672 843 672 949 c 1,14,15
 672 1024 672 1024 616 1024 c 1,16,17
 344 1024 344 1024 344 1024 c 0,18,19
 288 1024 288 1024 288 949 c 1,20,21
 288 858 288 858 288 843 c 0,22,23
 288 768 288 768 344 768 c 1,24,25
 344 768 344 768 616 768 c 0,10,11
96 967 m 0,26,27
 96 1280 96 1280 331 1280 c 1,28,29
 331 1280 331 1280 629 1280 c 1,30,31
 864 1280 864 1280 864 967 c 0,32,33
 864 825 864 825 864 825 c 0,34,35
 864 512 864 512 629 512 c 24,36,-1
 288 512 l 1,37,38
 288 384 288 384 288 331 c 0,39,40
 288 256 288 256 344 256 c 1,41,42
 344 256 344 256 629 256 c 0,43,44
 672 256 672 256 672 127 c 0,45,46
 672 0 672 0 629 0 c 0,47,-1
 331 0 l 0,48,49
 96 0 96 0 96 313 c 1,50,51
 96 960 96 960 96 967 c 0,26,27
EndSplineSet
EndChar

StartChar: uni008A
Encoding: 138 138 136
Width: 1152
VWidth: 2048
Flags: MW
LayerCount: 2
Back
Fore
SplineSet
725 768 m 0,0,1
 768 768 768 768 768 825 c 2,2,3
 768 825 768 825 768 949 c 1,4,5
 768 1024 768 1024 712 1024 c 1,6,7
 576 1024 576 1024 440 1024 c 0,8,9
 384 1024 384 1024 384 949 c 1,10,11
 384 858 384 858 384 843 c 0,12,13
 384 768 384 768 440 768 c 1,14,15
 583 768 583 768 725 768 c 0,0,1
712 1280 m 1,16,17
 960 1280 960 1280 960 949 c 0,18,19
 960 949 960 949 960 825 c 0,20,21
 960 512 960 512 725 512 c 24,22,-1
 384 512 l 1,23,24
 384 384 384 384 384 331 c 0,25,26
 384 256 384 256 440 256 c 1,27,28
 440 256 440 256 725 256 c 0,29,30
 768 256 768 256 768 127 c 0,31,32
 768 0 768 0 725 0 c 0,33,-1
 440 0 l 0,34,35
 192 0 192 0 192 331 c 1,36,37
 192 640 192 640 192 949 c 0,38,39
 192 1280 192 1280 384 1280 c 1,40,41
 384 1280 384 1280 384 1461 c 0,42,43
 384 1536 384 1536 328 1536 c 24,44,-1
 0 1536 l 24,45,46
 0 1536 0 1536 0 1792 c 25,47,48
 328 1792 328 1792 328 1792 c 0,49,50
 576 1792 576 1792 576 1461 c 24,51,-1
 576 1280 l 0,52,-1
 712 1280 l 1,16,17
EndSplineSet
EndChar

StartChar: uni008B
Encoding: 139 139 137
Width: 1152
VWidth: 2048
Flags: MW
LayerCount: 2
Back
Fore
SplineSet
384 1024 m 24,0,-1
 576 1024 l 24,1,-1
 576 256 l 24,2,-1
 768 256 l 24,3,-1
 768 0 l 25,4,-1
 192 0 l 25,5,-1
 192 256 l 24,6,-1
 384 256 l 24,7,-1
 384 1024 l 24,0,-1
576 1536 m 24,8,-1
 768 1536 l 24,9,-1
 768 1280 l 24,10,-1
 576 1280 l 24,11,12
 576 1280 576 1280 576 1536 c 24,8,-1
192 1536 m 24,13,-1
 384 1536 l 24,14,-1
 384 1280 l 24,15,-1
 192 1280 l 24,16,17
 192 1280 192 1280 192 1536 c 24,13,-1
EndSplineSet
EndChar

StartChar: uni008C
Encoding: 140 140 138
Width: 1152
VWidth: 2048
Flags: MW
LayerCount: 2
Back
Fore
SplineSet
192 1280 m 24,0,1
 192 1280 192 1280 192 1461 c 0,2,3
 192 1792 192 1792 440 1792 c 24,4,-1
 520 1792 l 0,5,6
 768 1792 768 1792 768 1461 c 24,7,8
 768 1461 768 1461 768 1280 c 24,9,-1
 576 1280 l 24,10,-1
 576 1461 l 0,11,12
 576 1536 576 1536 520 1536 c 24,13,-1
 440 1536 l 0,14,15
 384 1536 384 1536 384 1461 c 24,16,-1
 384 1280 l 24,17,18
 384 1280 384 1280 192 1280 c 24,0,1
384 1024 m 24,19,-1
 576 1024 l 24,20,-1
 576 256 l 24,21,-1
 768 256 l 24,22,-1
 768 0 l 25,23,-1
 192 0 l 25,24,-1
 192 256 l 24,25,-1
 384 256 l 24,26,-1
 384 1024 l 24,19,-1
EndSplineSet
EndChar

StartChar: uni008D
Encoding: 141 141 139
Width: 1152
VWidth: 2048
Flags: MW
LayerCount: 2
Back
Fore
SplineSet
0 1792 m 25,0,1
 328 1792 328 1792 328 1792 c 0,2,3
 576 1792 576 1792 576 1461 c 24,4,5
 576 1461 576 1461 576 1280 c 24,6,-1
 384 1280 l 24,7,-1
 384 1461 l 0,8,9
 384 1536 384 1536 328 1536 c 24,10,-1
 0 1536 l 24,11,12
 0 1536 0 1536 0 1792 c 25,0,1
384 1024 m 24,13,-1
 576 1024 l 24,14,-1
 576 256 l 24,15,-1
 768 256 l 24,16,-1
 768 0 l 25,17,-1
 192 0 l 25,18,-1
 192 256 l 24,19,-1
 384 256 l 24,20,-1
 384 1024 l 24,13,-1
EndSplineSet
EndChar

StartChar: uni008E
Encoding: 142 142 140
Width: 1152
VWidth: 2048
Flags: MW
LayerCount: 2
Back
Fore
SplineSet
768 1792 m 25,0,-1
 960 1792 l 25,1,-1
 960 1536 l 24,2,-1
 768 1536 l 24,3,4
 768 1536 768 1536 768 1792 c 25,0,-1
0 1792 m 25,5,-1
 192 1792 l 25,6,-1
 192 1536 l 24,7,-1
 0 1536 l 24,8,9
 0 1536 0 1536 0 1792 c 25,5,-1
480 1227 m 1,10,11
 480 1227 480 1227 192 843 c 1,12,-1
 192 768 l 25,13,-1
 768 768 l 25,14,-1
 768 843 l 1,15,-1
 480 1227 l 1,10,11
0 0 m 25,16,-1
 0 949 l 25,17,-1
 440 1536 l 24,18,-1
 520 1536 l 24,19,-1
 960 949 l 25,20,-1
 960 0 l 25,21,-1
 768 0 l 25,22,-1
 768 512 l 24,23,-1
 192 512 l 24,24,-1
 192 0 l 25,25,-1
 0 0 l 25,16,-1
EndSplineSet
EndChar

StartChar: uni008F
Encoding: 143 143 141
Width: 1152
VWidth: 2048
Flags: MW
LayerCount: 2
Back
Fore
SplineSet
480 1227 m 1,0,1
 480 1227 480 1227 192 843 c 1,2,-1
 192 768 l 25,3,-1
 768 768 l 25,4,-1
 768 843 l 1,5,-1
 480 1227 l 1,0,1
576 1461 m 24,6,7
 576 1461 576 1461 960 949 c 1,8,-1
 960 0 l 25,9,-1
 768 0 l 25,10,-1
 768 512 l 24,11,12
 768 512 768 512 192 512 c 24,13,-1
 192 0 l 25,14,-1
 0 0 l 25,15,-1
 0 949 l 1,16,17
 0 949 0 949 384 1461 c 24,18,-1
 384 1536 l 24,19,-1
 248 1536 l 0,20,21
 192 1536 192 1536 192 1461 c 24,22,-1
 192 1280 l 24,23,-1
 0 1280 l 24,24,25
 0 1282 0 1282 0 1461 c 0,26,27
 0 1792 0 1792 248 1792 c 24,28,-1
 712 1792 l 0,29,30
 960 1792 960 1792 960 1461 c 24,31,32
 960 1461 960 1461 960 1280 c 24,33,-1
 768 1280 l 24,34,-1
 768 1461 l 0,35,36
 768 1536 768 1536 712 1536 c 24,37,-1
 576 1536 l 24,38,39
 576 1536 576 1536 576 1461 c 24,6,7
EndSplineSet
EndChar

StartChar: uni0090
Encoding: 144 144 142
Width: 1152
VWidth: 2048
Flags: MW
LayerCount: 2
Back
Fore
SplineSet
0 1280 m 24,0,-1
 384 1280 l 24,1,-1
 384 1461 l 0,2,3
 384 1792 384 1792 632 1792 c 24,4,-1
 960 1792 l 25,5,-1
 960 1536 l 24,6,-1
 632 1536 l 0,7,8
 576 1536 576 1536 576 1461 c 24,9,10
 576 1461 576 1461 576 1280 c 24,11,-1
 960 1280 l 24,12,-1
 960 1024 l 24,13,-1
 192 1024 l 24,14,-1
 192 768 l 25,15,-1
 768 768 l 25,16,-1
 768 512 l 24,17,-1
 192 512 l 24,18,-1
 192 256 l 24,19,-1
 960 256 l 24,20,-1
 960 0 l 25,21,-1
 0 0 l 25,22,23
 0 0 0 0 0 1280 c 24,0,-1
EndSplineSet
EndChar

StartChar: uni0091
Encoding: 145 145 143
Width: 1152
VWidth: 2048
Flags: MW
LayerCount: 2
Back
Fore
SplineSet
192 587 m 0,0,1
 192 512 192 512 248 512 c 24,2,-1
 384 512 l 24,3,-1
 384 768 l 25,4,-1
 248 768 l 0,5,6
 192 768 192 768 192 693 c 24,7,8
 192 685 192 685 192 587 c 0,0,1
576 1280 m 24,9,-1
 576 1024 l 24,10,-1
 712 1024 l 0,11,12
 768 1024 768 1024 768 1099 c 24,13,14
 768 1190 768 1190 768 1205 c 0,15,16
 768 1280 768 1280 712 1280 c 24,17,18
 712 1280 712 1280 576 1280 c 24,9,-1
0 1536 m 24,19,-1
 824 1536 l 0,20,21
 960 1536 960 1536 960 1355 c 24,22,23
 960 1062 960 1062 960 949 c 0,24,25
 960 768 960 768 824 768 c 24,26,-1
 576 768 l 25,27,-1
 576 512 l 24,28,-1
 960 512 l 24,29,-1
 960 256 l 24,30,-1
 136 256 l 0,31,32
 0 256 0 256 0 437 c 24,33,34
 0 747 0 747 0 843 c 0,35,36
 0 1024 0 1024 136 1024 c 24,37,-1
 384 1024 l 24,38,-1
 384 1280 l 24,39,-1
 0 1280 l 24,40,41
 0 1280 0 1280 0 1536 c 24,19,-1
EndSplineSet
EndChar

StartChar: uni0092
Encoding: 146 146 144
Width: 1152
VWidth: 2048
Flags: MW
LayerCount: 2
Back
Fore
SplineSet
192 1024 m 24,0,-1
 384 1024 l 24,1,2
 384 1024 384 1024 384 1461 c 0,3,4
 384 1536 384 1536 328 1536 c 24,5,6
 328 1536 328 1536 248 1536 c 0,7,8
 192 1536 192 1536 192 1461 c 24,9,10
 192 1461 192 1461 192 1024 c 24,0,-1
0 1461 m 0,11,12
 0 1792 0 1792 248 1792 c 24,13,14
 248 1792 248 1792 328 1792 c 0,15,16
 576 1792 576 1792 576 1461 c 24,17,-1
 576 1280 l 24,18,-1
 960 1280 l 24,19,-1
 960 1024 l 24,20,-1
 576 1024 l 24,21,-1
 576 768 l 25,22,-1
 768 768 l 25,23,-1
 768 512 l 24,24,-1
 576 512 l 24,25,-1
 576 256 l 24,26,-1
 960 256 l 24,27,-1
 960 0 l 25,28,-1
 384 0 l 24,29,-1
 384 768 l 25,30,-1
 192 768 l 25,31,-1
 192 0 l 25,32,-1
 0 0 l 25,33,34
 0 896 0 896 0 1461 c 0,11,12
EndSplineSet
EndChar

StartChar: uni0093
Encoding: 147 147 145
Width: 1152
VWidth: 2048
Flags: MW
LayerCount: 2
Back
Fore
SplineSet
248 1024 m 0,0,1
 192 1024 192 1024 192 949 c 24,2,3
 192 730 192 730 192 587 c 0,4,5
 192 512 192 512 248 512 c 24,6,-1
 520 512 l 0,7,8
 576 512 576 512 576 587 c 24,9,10
 576 806 576 806 576 949 c 0,11,12
 576 1024 576 1024 520 1024 c 24,13,14
 520 1024 520 1024 248 1024 c 0,0,1
248 1536 m 0,15,16
 192 1536 192 1536 192 1461 c 24,17,18
 192 1370 192 1370 192 1355 c 0,19,20
 192 1280 192 1280 248 1280 c 24,21,-1
 520 1280 l 0,22,23
 576 1280 576 1280 576 1355 c 24,24,25
 576 1446 576 1446 576 1461 c 0,26,27
 576 1536 576 1536 520 1536 c 24,28,29
 520 1536 520 1536 248 1536 c 0,15,16
711 1152 m 1,30,31
 768 1106 768 1106 768 949 c 0,32,33
 768 616 768 616 768 587 c 0,34,35
 768 256 768 256 520 256 c 24,36,37
 248 256 248 256 248 256 c 0,38,39
 0 256 0 256 0 587 c 24,40,41
 0 846 0 846 0 949 c 0,42,43
 0 1100 0 1100 56 1151 c 1,44,45
 0 1196 0 1196 0 1355 c 0,46,47
 0 1437 0 1437 0 1461 c 0,48,49
 0 1792 0 1792 248 1792 c 24,50,51
 517 1792 517 1792 520 1792 c 0,52,53
 766 1792 766 1792 768 1461 c 24,54,55
 768 1461 768 1461 768 1355 c 0,56,57
 768 1201 768 1201 711 1152 c 1,30,31
EndSplineSet
EndChar

StartChar: uni0094
Encoding: 148 148 146
Width: 1152
VWidth: 2048
Flags: MW
LayerCount: 2
Back
Fore
SplineSet
672 1792 m 25,0,-1
 864 1792 l 25,1,-1
 864 1536 l 24,2,-1
 672 1536 l 24,3,4
 672 1536 672 1536 672 1792 c 25,0,-1
96 1792 m 25,5,-1
 288 1792 l 24,6,-1
 288 1536 l 24,7,-1
 96 1536 l 24,8,9
 96 1536 96 1536 96 1792 c 25,5,-1
344 1024 m 0,10,11
 288 1024 288 1024 288 949 c 24,12,13
 288 730 288 730 288 587 c 0,14,15
 288 512 288 512 344 512 c 24,16,-1
 616 512 l 0,17,18
 672 512 672 512 672 587 c 24,19,20
 672 806 672 806 672 949 c 0,21,22
 672 1024 672 1024 616 1024 c 24,23,24
 616 1024 616 1024 344 1024 c 0,10,11
616 1280 m 0,25,26
 864 1280 864 1280 864 949 c 24,27,28
 864 602 864 602 864 587 c 0,29,30
 864 256 864 256 616 256 c 24,31,-1
 344 256 l 0,32,33
 96 256 96 256 96 587 c 24,34,35
 96 934 96 934 96 949 c 0,36,37
 96 1280 96 1280 344 1280 c 24,38,39
 344 1280 344 1280 616 1280 c 0,25,26
EndSplineSet
EndChar

StartChar: uni0095
Encoding: 149 149 147
Width: 1152
VWidth: 2048
Flags: MW
LayerCount: 2
Back
Fore
SplineSet
440 1024 m 0,0,1
 384 1024 384 1024 384 949 c 24,2,3
 384 949 384 949 384 587 c 0,4,5
 384 512 384 512 440 512 c 24,6,-1
 712 512 l 0,7,8
 768 512 768 512 768 587 c 24,9,10
 768 587 768 587 768 949 c 2,11,12
 768 1024 768 1024 712 1024 c 8,13,14
 576 1024 576 1024 440 1024 c 0,0,1
712 1280 m 2,15,16
 960 1280 960 1280 960 949 c 0,17,18
 960 949 960 949 960 587 c 0,19,20
 960 256 960 256 712 256 c 10,21,-1
 440 256 l 0,22,23
 192 256 192 256 192 587 c 24,24,25
 192 587 192 587 192 949 c 1,26,27
 192 1280 192 1280 384 1280 c 0,28,29
 384 1280 384 1280 384 1461 c 0,30,31
 384 1536 384 1536 328 1536 c 24,32,-1
 0 1536 l 24,33,34
 0 1536 0 1536 0 1792 c 25,35,36
 1 1792 1 1792 328 1792 c 0,37,38
 576 1792 576 1792 576 1461 c 24,39,-1
 576 1280 l 24,40,-1
 712 1280 l 2,15,16
EndSplineSet
EndChar

StartChar: uni0096
Encoding: 150 150 148
Width: 1152
VWidth: 2048
Flags: MW
LayerCount: 2
Back
Fore
SplineSet
576 1461 m 0,0,1
 576 1536 576 1536 520 1536 c 24,2,-1
 248 1536 l 0,3,4
 192 1536 192 1536 192 1461 c 24,5,6
 192 1461 192 1461 192 1337 c 25,7,-1
 235 1280 l 24,8,-1
 384 1280 l 24,9,-1
 384 331 l 0,10,11
 384 256 384 256 440 256 c 24,12,-1
 768 256 l 24,13,-1
 768 1280 l 24,14,-1
 576 1280 l 24,15,-1
 576 1461 l 0,0,1
0 1461 m 0,16,17
 0 1792 0 1792 248 1792 c 24,18,-1
 520 1792 l 0,19,20
 768 1792 768 1792 768 1461 c 24,21,-1
 768 1337 l 0,22,23
 768 1280 768 1280 811 1280 c 24,24,-1
 960 1280 l 24,25,-1
 960 0 l 25,26,-1
 440 0 l 0,27,28
 192 0 192 0 192 331 c 24,29,-1
 192 1280 l 24,30,-1
 0 1280 l 24,31,32
 0 1287 0 1287 0 1461 c 0,16,17
EndSplineSet
EndChar

StartChar: uni0097
Encoding: 151 151 149
Width: 1152
VWidth: 2048
Flags: MW
LayerCount: 2
Back
Fore
SplineSet
960 1280 m 24,0,-1
 960 0 l 25,1,2
 960 0 960 0 440 0 c 24,3,4
 192 0 192 0 192 331 c 0,5,6
 192 640 192 640 192 1280 c 24,7,8
 192 1280 192 1280 341 1280 c 24,9,10
 384 1280 384 1280 384 1337 c 0,11,12
 384 1461 384 1461 384 1461 c 24,13,14
 384 1536 384 1536 328 1536 c 0,15,16
 328 1536 328 1536 0 1536 c 24,17,-1
 0 1792 l 25,18,-1
 328 1792 l 24,19,20
 576 1792 576 1792 576 1461 c 0,21,22
 576 1281 576 1281 576 1280 c 24,23,24
 576 1280 576 1280 384 1280 c 24,25,-1
 384 331 l 24,26,27
 384 256 384 256 440 256 c 0,28,29
 440 256 440 256 768 256 c 24,30,-1
 768 1280 l 24,31,-1
 960 1280 l 24,0,-1
EndSplineSet
EndChar

StartChar: uni0098
Encoding: 152 152 150
Width: 1152
VWidth: 2048
Flags: MW
LayerCount: 2
Back
Fore
SplineSet
672 1792 m 25,0,-1
 864 1792 l 25,1,-1
 864 1536 l 24,2,-1
 672 1536 l 24,3,4
 672 1536 672 1536 672 1792 c 25,0,-1
288 1792 m 24,5,-1
 288 1536 l 24,6,-1
 96 1536 l 24,7,-1
 96 1792 l 25,8,9
 96 1792 96 1792 288 1792 c 24,5,-1
864 1280 m 24,10,11
 864 1280 864 1280 864 331 c 0,12,13
 864 0 864 0 616 0 c 24,14,-1
 288 0 l 24,15,-1
 288 256 l 24,16,-1
 616 256 l 0,17,18
 672 256 672 256 672 331 c 24,19,20
 672 331 672 331 672 512 c 24,21,-1
 344 512 l 0,22,23
 96 512 96 512 96 843 c 24,24,25
 96 843 96 843 96 1280 c 24,26,-1
 288 1280 l 24,27,-1
 288 843 l 0,28,29
 288 768 288 768 344 768 c 24,30,-1
 672 768 l 25,31,-1
 672 1280 l 24,32,33
 672 1280 672 1280 864 1280 c 24,10,11
EndSplineSet
EndChar

StartChar: uni0099
Encoding: 153 153 151
Width: 1152
VWidth: 2048
Flags: MW
LayerCount: 2
Back
Fore
SplineSet
768 1792 m 25,0,-1
 960 1792 l 25,1,-1
 960 1536 l 24,2,-1
 768 1536 l 24,3,4
 768 1536 768 1536 768 1792 c 25,0,-1
0 1792 m 25,5,-1
 192 1792 l 25,6,-1
 192 1536 l 24,7,-1
 0 1536 l 24,8,9
 0 1536 0 1536 0 1792 c 25,5,-1
768 949 m 0,10,11
 768 1024 768 1024 712 1024 c 24,12,-1
 248 1024 l 0,13,14
 192 1024 192 1024 192 949 c 24,15,16
 192 602 192 602 192 331 c 0,17,18
 192 256 192 256 248 256 c 24,19,-1
 712 256 l 0,20,21
 768 256 768 256 768 331 c 24,22,23
 768 467 768 467 768 949 c 0,10,11
712 1280 m 0,24,25
 960 1280 960 1280 960 949 c 24,26,27
 960 474 960 474 960 331 c 0,28,29
 960 0 960 0 712 0 c 24,30,-1
 248 0 l 0,31,32
 0 0 0 0 0 331 c 24,33,34
 0 806 0 806 0 949 c 0,35,36
 0 1280 0 1280 248 1280 c 24,37,38
 248 1280 248 1280 712 1280 c 0,24,25
EndSplineSet
EndChar

StartChar: uni009A
Encoding: 154 154 152
Width: 1152
VWidth: 2048
Flags: MW
LayerCount: 2
Back
Fore
SplineSet
768 1792 m 25,0,-1
 960 1792 l 25,1,-1
 960 1536 l 24,2,-1
 768 1536 l 24,3,4
 768 1536 768 1536 768 1792 c 25,0,-1
192 1792 m 25,5,-1
 192 1536 l 24,6,-1
 0 1536 l 24,7,-1
 0 1792 l 25,8,-1
 192 1792 l 25,5,-1
960 1280 m 24,9,10
 960 1280 960 1280 960 331 c 0,11,12
 960 0 960 0 712 0 c 24,13,-1
 248 0 l 0,14,15
 0 0 0 0 0 331 c 24,16,17
 0 331 0 331 0 1280 c 24,18,-1
 192 1280 l 24,19,-1
 192 331 l 0,20,21
 192 256 192 256 248 256 c 24,22,-1
 712 256 l 0,23,24
 768 256 768 256 768 331 c 24,25,-1
 768 1280 l 24,26,27
 768 1280 768 1280 960 1280 c 24,9,10
EndSplineSet
EndChar

StartChar: uni009B
Encoding: 155 155 153
Width: 1152
VWidth: 2048
Flags: MW
LayerCount: 2
Back
Fore
SplineSet
384 1280 m 24,0,-1
 248 1280 l 0,1,2
 192 1280 192 1280 192 1205 c 24,3,4
 192 858 192 858 192 587 c 0,5,6
 192 512 192 512 248 512 c 24,7,-1
 384 512 l 24,8,9
 384 512 384 512 384 1280 c 24,0,-1
768 1536 m 24,10,-1
 768 1280 l 24,11,-1
 576 1280 l 24,12,-1
 576 512 l 24,13,-1
 768 512 l 24,14,-1
 768 256 l 24,15,-1
 576 256 l 24,16,-1
 576 0 l 25,17,-1
 384 0 l 25,18,-1
 384 256 l 24,19,-1
 248 256 l 0,20,21
 0 256 0 256 0 587 c 24,22,23
 0 1062 0 1062 0 1205 c 0,24,25
 0 1536 0 1536 248 1536 c 24,26,-1
 384 1536 l 24,27,-1
 384 1792 l 25,28,-1
 576 1792 l 25,29,-1
 576 1536 l 24,30,-1
 768 1536 l 24,10,-1
EndSplineSet
EndChar

StartChar: uni009C
Encoding: 156 156 154
Width: 1152
VWidth: 2048
Flags: MW
LayerCount: 2
Back
Fore
SplineSet
768 1792 m 25,0,-1
 768 1536 l 24,1,-1
 440 1536 l 0,2,3
 384 1536 384 1536 384 1461 c 24,4,5
 384 1461 384 1461 384 512 c 24,6,-1
 712 512 l 0,7,8
 768 512 768 512 768 587 c 24,9,-1
 768 768 l 25,10,-1
 960 768 l 25,11,12
 960 768 960 768 960 587 c 0,13,14
 960 256 960 256 712 256 c 24,15,-1
 0 256 l 24,16,-1
 0 512 l 24,17,-1
 192 512 l 24,18,-1
 192 1461 l 0,19,20
 192 1792 192 1792 440 1792 c 24,21,22
 440 1792 440 1792 768 1792 c 25,0,-1
EndSplineSet
EndChar

StartChar: uni009D
Encoding: 157 157 155
Width: 1152
VWidth: 2048
Flags: MW
LayerCount: 2
Back
Fore
SplineSet
480 1077 m 1,0,1
 480 1077 480 1077 768 1461 c 1,2,-1
 768 1792 l 25,3,-1
 960 1792 l 0,4,5
 960 1792 960 1792 960 1355 c 8,6,-1
 712 1024 l 24,7,-1
 960 1024 l 24,8,9
 960 1024 960 1024 960 768 c 25,10,-1
 576 768 l 25,11,12
 576 768 576 768 576 512 c 24,13,-1
 960 512 l 24,14,15
 960 512 960 512 960 256 c 24,16,-1
 576 256 l 24,17,-1
 576 0 l 25,18,19
 576 0 576 0 384 0 c 24,20,-1
 384 256 l 24,21,-1
 0 256 l 24,22,23
 0 256 0 256 0 512 c 24,24,-1
 384 512 l 24,25,26
 384 512 384 512 384 768 c 25,27,-1
 0 768 l 25,28,29
 0 768 0 768 0 1024 c 24,30,-1
 248 1024 l 24,31,-1
 0 1355 l 25,32,-1
 0 1792 l 25,33,-1
 192 1792 l 1,34,-1
 192 1461 l 1,35,-1
 480 1077 l 1,0,1
EndSplineSet
EndChar

StartChar: uni009E
Encoding: 158 158 156
Width: 1152
VWidth: 2048
Flags: MW
LayerCount: 2
Back
Fore
SplineSet
384 512 m 24,0,-1
 960 512 l 24,1,-1
 960 256 l 24,2,-1
 768 256 l 24,3,-1
 768 0 l 25,4,-1
 576 0 l 25,5,-1
 576 256 l 24,6,-1
 384 256 l 24,7,8
 384 256 384 256 384 512 c 24,0,-1
768 1461 m 0,9,10
 768 1536 768 1536 712 1536 c 24,11,-1
 192 1536 l 24,12,-1
 192 1024 l 24,13,-1
 712 1024 l 0,14,15
 768 1024 768 1024 768 1099 c 24,16,17
 768 1171 768 1171 768 1461 c 0,9,10
0 1792 m 25,18,-1
 712 1792 l 0,19,20
 960 1792 960 1792 960 1461 c 24,21,22
 960 1114 960 1114 960 1099 c 0,23,24
 960 768 960 768 712 768 c 24,25,-1
 192 768 l 25,26,-1
 192 0 l 25,27,-1
 0 0 l 25,28,-1
 0 1792 l 25,18,-1
EndSplineSet
EndChar

StartChar: uni009F
Encoding: 159 159 157
Width: 1152
VWidth: 2048
Flags: MW
LayerCount: 2
Back
Fore
SplineSet
960 1792 m 25,0,1
 960 1792 960 1792 960 1536 c 24,2,-1
 632 1536 l 0,3,4
 576 1536 576 1536 576 1461 c 25,5,6
 576 1461 576 1461 576 1024 c 24,7,-1
 768 1024 l 24,8,9
 768 1024 768 1024 768 768 c 25,10,-1
 576 768 l 25,11,-1
 576 331 l 0,12,13
 576 0 576 0 328 0 c 24,14,15
 328 0 328 0 0 0 c 25,16,17
 0 0 0 0 0 256 c 24,18,-1
 328 256 l 0,19,20
 384 256 384 256 384 331 c 24,21,22
 384 331 384 331 384 768 c 25,23,-1
 192 768 l 25,24,25
 192 768 192 768 192 1024 c 0,26,-1
 384 1024 l 25,27,28
 384 1024 384 1024 384 1461 c 17,29,30
 384 1792 384 1792 632 1792 c 24,31,32
 632 1792 632 1792 960 1792 c 25,0,1
EndSplineSet
EndChar

StartChar: uni00A0
Encoding: 160 160 158
Width: 1152
VWidth: 2048
Flags: MW
LayerCount: 2
Back
Fore
SplineSet
480 437 m 0,0,1
 480 512 480 512 424 512 c 0,2,-1
 344 512 l 0,3,4
 288 512 288 512 288 437 c 0,5,6
 288 346 288 346 288 331 c 0,7,8
 288 256 288 256 344 256 c 0,9,10
 344 256 344 256 424 256 c 0,11,12
 480 256 480 256 480 331 c 0,13,14
 480 331 480 331 480 437 c 0,0,1
480 1280 m 1,15,16
 672 1280 672 1280 672 949 c 1,17,-1
 672 256 l 24,18,-1
 821 256 l 0,19,20
 864 256 864 256 864 127 c 0,21,22
 864 0 864 0 821 0 c 24,23,24
 821 0 821 0 344 0 c 0,25,26
 96 0 96 0 96 331 c 24,27,28
 96 331 96 331 96 437 c 0,29,30
 96 768 96 768 344 768 c 24,31,-1
 480 768 l 25,32,33
 480 900 480 900 480 949 c 0,34,35
 480 1024 480 1024 424 1024 c 24,36,-1
 96 1024 l 24,37,38
 96 1024 96 1024 96 1280 c 24,39,-1
 288 1280 l 24,40,-1
 288 1461 l 0,41,42
 288 1792 288 1792 536 1792 c 24,43,44
 536 1792 536 1792 864 1792 c 25,45,46
 864 1792 864 1792 864 1536 c 24,47,-1
 536 1536 l 0,48,49
 480 1536 480 1536 480 1461 c 24,50,51
 480 1461 480 1461 480 1280 c 1,15,16
EndSplineSet
EndChar

StartChar: exclamdown
Encoding: 161 161 159
Width: 1152
VWidth: 2048
Flags: MW
LayerCount: 2
Back
Fore
SplineSet
288 256 m 24,0,-1
 288 1024 l 24,1,2
 288 1024 288 1024 480 1024 c 24,3,-1
 480 256 l 24,4,-1
 672 256 l 24,5,6
 672 256 672 256 672 0 c 25,7,-1
 96 0 l 25,8,-1
 96 256 l 24,9,-1
 288 256 l 24,0,-1
288 1280 m 24,10,11
 288 1280 288 1280 288 1461 c 17,12,13
 288 1792 288 1792 536 1792 c 0,14,15
 536 1792 536 1792 864 1792 c 0,16,17
 864 1792 864 1792 864 1536 c 0,18,-1
 536 1536 l 1,19,20
 480 1536 480 1536 480 1461 c 8,21,-1
 480 1280 l 24,22,23
 480 1280 480 1280 288 1280 c 24,10,11
EndSplineSet
EndChar

StartChar: cent
Encoding: 162 162 160
Width: 1152
VWidth: 2048
Flags: MW
LayerCount: 2
Back
Fore
SplineSet
344 1024 m 0,0,1
 288 1024 288 1024 288 949 c 24,2,3
 288 949 288 949 288 331 c 0,4,5
 288 256 288 256 344 256 c 24,6,-1
 616 256 l 0,7,8
 672 256 672 256 672 331 c 24,9,10
 672 949 672 949 672 949 c 2,11,12
 672 1024 672 1024 616 1024 c 8,13,14
 480 1024 480 1024 344 1024 c 0,0,1
616 1280 m 0,15,16
 864 1280 864 1280 864 949 c 24,17,18
 864 949 864 949 864 331 c 0,19,20
 864 0 864 0 616 0 c 24,21,-1
 344 0 l 0,22,23
 96 0 96 0 96 331 c 24,24,25
 96 806 96 806 96 949 c 0,26,27
 96 1280 96 1280 288 1280 c 1,28,-1
 288 1461 l 0,29,30
 288 1792 288 1792 536 1792 c 24,31,32
 536 1792 536 1792 864 1792 c 25,33,34
 864 1792 864 1792 864 1536 c 24,35,-1
 536 1536 l 0,36,37
 480 1536 480 1536 480 1461 c 24,38,39
 480 1461 480 1461 480 1280 c 24,40,-1
 616 1280 l 0,15,16
EndSplineSet
EndChar

StartChar: sterling
Encoding: 163 163 161
Width: 1152
VWidth: 2048
Flags: MW
LayerCount: 2
Back
Fore
SplineSet
864 1280 m 24,0,-1
 864 0 l 25,1,-1
 344 0 l 0,2,3
 96 0 96 0 96 331 c 24,4,5
 96 331 96 331 96 1205 c 25,6,-1
 536 1792 l 24,7,-1
 864 1792 l 25,8,-1
 864 1536 l 24,9,-1
 629 1536 l 24,10,-1
 288 1099 l 25,11,12
 288 678 288 678 288 331 c 0,13,14
 288 256 288 256 344 256 c 24,15,-1
 672 256 l 24,16,-1
 672 1280 l 24,17,18
 672 1280 672 1280 864 1280 c 24,0,-1
EndSplineSet
EndChar

StartChar: currency
Encoding: 164 164 162
Width: 1152
VWidth: 2048
Flags: MW
LayerCount: 2
Back
Fore
SplineSet
909 902 m 1,0,1
 960 838 960 838 960 693 c 0,2,3
 960 693 960 693 960 0 c 25,4,5
 960 0 960 0 768 0 c 25,6,-1
 768 768 l 25,7,-1
 384 768 l 25,8,-1
 384 0 l 1,9,10
 192 0 192 0 192 0 c 25,11,12
 192 1024 192 1024 192 1024 c 1,13,14
 768 1024 768 1024 768 1024 c 24,15,16
 768 1088 768 1088 768 1205 c 0,17,18
 768 1280 768 1280 712 1280 c 24,19,20
 248 1280 248 1280 248 1280 c 0,21,22
 0 1280 0 1280 0 1611 c 0,23,24
 0 1790 0 1790 0 1792 c 25,25,26
 0 1792 0 1792 192 1792 c 25,27,-1
 192 1611 l 0,28,29
 192 1536 192 1536 248 1536 c 24,30,31
 712 1536 712 1536 712 1536 c 0,32,33
 960 1536 960 1536 960 1205 c 24,34,35
 960 1205 960 1205 960 1099 c 0,36,37
 960 952 960 952 909 902 c 1,0,1
EndSplineSet
EndChar

StartChar: yen
Encoding: 165 165 163
Width: 1152
VWidth: 2048
Flags: MW
LayerCount: 2
Back
Fore
SplineSet
768 1205 m 17,0,1
 768 1280 768 1280 712 1280 c 24,2,3
 712 1280 712 1280 248 1280 c 0,4,5
 192 1280 192 1280 192 1205 c 1,6,7
 192 1205 192 1205 768 437 c 1,8,-1
 768 1205 l 17,0,1
93 1487 m 1,9,10
 93 1487 93 1487 0 1611 c 1,11,-1
 0 1792 l 25,12,13
 136 1792 136 1792 136 1792 c 152,-1,14
 136 1792 136 1792 328 1536 c 25,15,-1
 712 1536 l 0,16,17
 960 1536 960 1536 960 1205 c 0,18,19
 960 0 960 0 960 0 c 153,-1,20
 960 0 960 0 768 0 c 25,21,-1
 768 75 l 25,22,-1
 192 843 l 25,23,-1
 192 0 l 25,24,-1
 0 0 l 25,25,26
 0 1205 0 1205 0 1205 c 0,27,28
 0 1420 0 1420 93 1487 c 1,9,10
EndSplineSet
EndChar

StartChar: brokenbar
Encoding: 166 166 164
Width: 1152
VWidth: 2048
Flags: MW
LayerCount: 2
Back
Fore
SplineSet
96 256 m 24,0,-1
 864 256 l 24,1,-1
 864 0 l 25,2,-1
 96 0 l 25,3,4
 96 0 96 0 96 256 c 24,0,-1
288 768 m 25,5,-1
 480 768 l 25,6,-1
 480 1024 l 24,7,-1
 288 1024 l 24,8,9
 288 1024 288 1024 288 768 c 25,5,-1
96 1792 m 25,10,-1
 424 1792 l 0,11,12
 672 1792 672 1792 672 1461 c 24,13,-1
 672 825 l 0,14,15
 672 768 672 768 715 768 c 24,16,-1
 821 768 l 0,17,18
 864 768 864 768 864 640 c 128,-1,19
 864 512 864 512 821 512 c 24,20,-1
 344 512 l 0,21,22
 96 512 96 512 96 843 c 24,23,24
 96 843 96 843 96 949 c 0,25,26
 96 1280 96 1280 344 1280 c 24,27,-1
 480 1280 l 24,28,-1
 480 1536 l 24,29,-1
 96 1536 l 24,30,31
 96 1536 96 1536 96 1792 c 25,10,-1
EndSplineSet
EndChar

StartChar: section
Encoding: 167 167 165
Width: 1152
VWidth: 2048
Flags: MW
LayerCount: 2
Back
Fore
SplineSet
96 256 m 24,0,-1
 864 256 l 24,1,-1
 864 0 l 25,2,-1
 96 0 l 24,3,4
 96 0 96 0 96 256 c 24,0,-1
344 1536 m 0,5,6
 288 1536 288 1536 288 1461 c 24,7,8
 288 1114 288 1114 288 843 c 0,9,10
 288 768 288 768 344 768 c 24,11,-1
 616 768 l 0,12,13
 672 768 672 768 672 843 c 24,14,15
 672 1190 672 1190 672 1461 c 0,16,17
 672 1536 672 1536 616 1536 c 24,18,19
 616 1536 616 1536 344 1536 c 0,5,6
616 1792 m 0,20,21
 864 1792 864 1792 864 1461 c 24,22,23
 864 986 864 986 864 843 c 0,24,25
 864 512 864 512 616 512 c 24,26,-1
 344 512 l 0,27,28
 96 512 96 512 96 843 c 24,29,30
 96 1318 96 1318 96 1461 c 0,31,32
 96 1792 96 1792 344 1792 c 24,33,34
 344 1792 344 1792 616 1792 c 0,20,21
EndSplineSet
EndChar

StartChar: dieresis
Encoding: 168 168 166
Width: 1152
VWidth: 2048
Flags: MW
LayerCount: 2
Back
Fore
SplineSet
384 1792 m 24,0,-1
 576 1792 l 25,1,-1
 576 1536 l 24,2,-1
 384 1536 l 24,3,4
 384 1536 384 1536 384 1792 c 24,0,-1
960 512 m 1,5,6
 960 512 960 512 960 331 c 0,7,8
 960 0 960 0 712 0 c 24,9,-1
 248 0 l 0,10,11
 0 0 0 0 0 331 c 24,12,13
 0 331 0 331 0 437 c 25,14,-1
 384 949 l 25,15,-1
 384 1280 l 24,16,-1
 576 1280 l 24,17,-1
 576 843 l 25,18,-1
 192 331 l 0,19,20
 192 256 192 256 248 256 c 24,21,-1
 712 256 l 0,22,23
 768 256 768 256 768 331 c 24,24,-1
 768 512 l 17,25,26
 768 512 768 512 960 512 c 1,5,6
EndSplineSet
EndChar

StartChar: copyright
Encoding: 169 169 167
Width: 1152
VWidth: 2048
Flags: MW
LayerCount: 2
Back
Fore
SplineSet
0 1280 m 24,0,-1
 960 1280 l 24,1,-1
 960 1024 l 24,2,-1
 192 1024 l 24,3,-1
 192 768 l 25,4,-1
 0 768 l 25,5,6
 0 768 0 768 0 1280 c 24,0,-1
EndSplineSet
EndChar

StartChar: ordfeminine
Encoding: 170 170 168
Width: 1152
VWidth: 2048
Flags: MW
LayerCount: 2
Back
Fore
SplineSet
0 1280 m 24,0,-1
 960 1280 l 24,1,-1
 960 768 l 25,2,-1
 768 768 l 25,3,-1
 768 1024 l 24,4,-1
 0 1024 l 24,5,6
 0 1024 0 1024 0 1280 c 24,0,-1
EndSplineSet
EndChar

StartChar: guillemotleft
Encoding: 171 171 169
Width: 1152
VWidth: 2048
Flags: MW
LayerCount: 2
Back
Fore
SplineSet
440 256 m 1,1,2
 440 256 440 256 768 693 c 0,3,4
 768 768 768 768 712 768 c 24,5,6
 712 768 712 768 520 768 c 24,7,-1
 136 256 l 24,8,9
 136 256 136 256 0 256 c 24,10,11
 0 256 0 256 0 437 c 25,12,13
 0 437 0 437 824 1536 c 1,14,15
 824 1536 824 1536 960 1536 c 1,16,17
 960 1536 960 1536 960 1355 c 9,18,-1
 768 1099 l 25,19,20
 768 1099 768 1099 768 1024 c 1,21,22
 960 1024 960 1024 960 693 c 0,23,24
 960 640 960 640 960 587 c 0,25,26
 960 587 960 587 712 256 c 1,27,28
 712 256 712 256 960 256 c 24,29,30
 960 256 960 256 960 0 c 25,31,32
 960 0 960 0 384 0 c 0,33,34
 384 0 384 0 384 256 c 0,35,0
 384 256 384 256 440 256 c 1,1,2
0 1792 m 25,36,-1
 192 1792 l 25,37,-1
 192 1024 l 24,38,-1
 0 1024 l 24,39,40
 0 1024 0 1024 0 1792 c 25,36,-1
EndSplineSet
EndChar

StartChar: logicalnot
Encoding: 172 172 170
Width: 1152
VWidth: 2048
Flags: MW
LayerCount: 2
Back
Fore
SplineSet
520 768 m 1,0,1
 520 768 520 768 576 768 c 1,2,-1
 576 587 l 0,3,4
 576 512 576 512 632 512 c 24,5,6
 632 512 632 512 768 512 c 24,7,8
 768 512 768 512 768 768 c 25,9,-1
 960 768 l 25,10,-1
 960 0 l 25,11,-1
 768 0 l 25,12,-1
 768 256 l 24,13,-1
 632 256 l 1,14,15
 384 256 384 256 384 587 c 1,16,17
 384 587 384 587 136 256 c 0,18,19
 136 256 136 256 0 256 c 24,20,21
 0 256 0 256 0 437 c 25,22,23
 0 437 0 437 824 1536 c 24,24,25
 824 1536 824 1536 960 1537 c 0,26,27
 960 1537 960 1537 960 1355 c 1,28,29
 960 1355 960 1355 520 768 c 1,0,1
0 1792 m 25,30,-1
 192 1792 l 25,31,-1
 192 1024 l 24,32,-1
 0 1024 l 24,33,34
 0 1024 0 1024 0 1792 c 25,30,-1
EndSplineSet
EndChar

StartChar: uni00AD
Encoding: 173 173 171
Width: 1152
VWidth: 2048
Flags: MW
LayerCount: 2
Back
Fore
SplineSet
384 1280 m 24,0,-1
 576 1280 l 24,1,-1
 576 0 l 25,2,-1
 384 0 l 24,3,4
 384 0 384 0 384 1280 c 24,0,-1
384 1792 m 24,5,-1
 576 1792 l 25,6,-1
 576 1536 l 24,7,-1
 384 1536 l 24,8,9
 384 1536 384 1536 384 1792 c 24,5,-1
EndSplineSet
EndChar

StartChar: registered
Encoding: 174 174 172
Width: 1152
VWidth: 2048
Flags: MW
LayerCount: 2
Back
Fore
SplineSet
781 896 m 1,0,1
 916 896 916 896 916 693 c 0,2,3
 916 693 916 693 916 313 c 0,4,5
 916 256 916 256 820 256 c 144,-1,6
 724 256 724 256 724 313 c 24,7,-1
 724 693 l 1,8,9
 724 843 724 843 576 843 c 0,10,11
 576 843 576 843 576 949 c 1,12,13
 724 949 724 949 724 1099 c 1,14,-1
 724 1479 l 0,15,16
 724 1536 724 1536 820 1536 c 128,-1,17
 916 1536 916 1536 916 1479 c 8,18,19
 916 1188 916 1188 916 1099 c 0,20,21
 916 896 916 896 781 896 c 1,0,1
205 896 m 1,22,23
 340 896 340 896 340 693 c 0,24,25
 340 474 340 474 340 313 c 0,26,27
 340 256 340 256 244 256 c 144,-1,28
 148 256 148 256 148 313 c 24,29,-1
 148 693 l 1,30,31
 148 843 148 843 0 843 c 0,32,33
 0 843 0 843 0 949 c 1,34,35
 148 949 148 949 148 1099 c 1,36,-1
 148 1479 l 0,37,38
 148 1536 148 1536 244 1536 c 128,-1,39
 340 1536 340 1536 340 1479 c 8,40,41
 340 1362 340 1362 340 1099 c 0,42,43
 340 896 340 896 205 896 c 1,22,23
EndSplineSet
EndChar

StartChar: macron
Encoding: 175 175 173
Width: 1152
VWidth: 2048
Flags: MW
LayerCount: 2
Back
Fore
SplineSet
136 896 m 1,0,1
 0 896 0 896 0 1099 c 0,2,3
 0 1188 0 1188 0 1479 c 16,4,5
 0 1536 0 1536 96 1536 c 128,-1,6
 192 1536 192 1536 192 1479 c 0,7,8
 192 1479 192 1479 192 1099 c 1,9,10
 192 949 192 949 340 949 c 1,11,12
 340 843 340 843 340 843 c 0,13,14
 192 843 192 843 192 693 c 1,15,16
 192 693 192 693 192 313 c 24,17,18
 192 256 192 256 96 256 c 136,-1,19
 0 256 0 256 0 313 c 0,20,21
 0 693 0 693 0 693 c 0,22,23
 0 896 0 896 136 896 c 1,0,1
712 896 m 1,24,25
 576 896 576 896 576 1099 c 0,26,27
 576 1188 576 1188 576 1479 c 16,28,29
 576 1536 576 1536 672 1536 c 128,-1,30
 768 1536 768 1536 768 1479 c 0,31,32
 768 1479 768 1479 768 1099 c 1,33,34
 768 949 768 949 916 949 c 1,35,36
 916 843 916 843 916 843 c 0,37,38
 768 843 768 843 768 693 c 1,39,40
 768 693 768 693 768 313 c 24,41,42
 768 256 768 256 672 256 c 136,-1,43
 576 256 576 256 576 313 c 0,44,45
 576 693 576 693 576 693 c 0,46,47
 576 896 576 896 712 896 c 1,24,25
EndSplineSet
EndChar

StartChar: degree
Encoding: 176 176 174
Width: 1152
VWidth: 2048
Flags: MW
LayerCount: 2
Back
Fore
SplineSet
768 2048 m 25,0,-1
 960 2048 l 25,1,-1
 960 1792 l 25,2,-1
 768 1792 l 25,3,-1
 768 2048 l 25,0,-1
384 2304 m 25,4,-1
 576 2304 l 25,5,-1
 576 2048 l 25,6,-1
 384 2048 l 25,7,-1
 384 2304 l 25,4,-1
0 2048 m 25,8,-1
 192 2048 l 25,9,-1
 192 1792 l 25,10,-1
 0 1792 l 25,11,-1
 0 2048 l 25,8,-1
768 512 m 25,12,-1
 960 512 l 25,13,-1
 960 256 l 25,14,-1
 768 256 l 25,15,-1
 768 512 l 25,12,-1
768 1024 m 25,16,-1
 960 1024 l 25,17,-1
 960 768 l 25,18,-1
 768 768 l 25,19,-1
 768 1024 l 25,16,-1
768 1536 m 25,20,-1
 960 1536 l 25,21,-1
 960 1280 l 25,22,-1
 768 1280 l 25,23,-1
 768 1536 l 25,20,-1
384 256 m 25,24,-1
 576 256 l 25,25,-1
 576 0 l 25,26,-1
 384 0 l 25,27,-1
 384 256 l 25,24,-1
384 768 m 25,28,-1
 576 768 l 25,29,-1
 576 512 l 25,30,-1
 384 512 l 25,31,-1
 384 768 l 25,28,-1
384 1280 m 25,32,-1
 576 1280 l 25,33,-1
 576 1024 l 25,34,-1
 384 1024 l 25,35,-1
 384 1280 l 25,32,-1
384 1792 m 25,36,-1
 576 1792 l 25,37,-1
 576 1536 l 25,38,-1
 384 1536 l 25,39,-1
 384 1792 l 25,36,-1
0 512 m 25,40,-1
 192 512 l 25,41,-1
 192 256 l 25,42,-1
 0 256 l 25,43,-1
 0 512 l 25,40,-1
0 1024 m 25,44,-1
 192 1024 l 25,45,-1
 192 768 l 25,46,-1
 0 768 l 25,47,-1
 0 1024 l 25,44,-1
0 1536 m 25,48,-1
 192 1536 l 25,49,-1
 192 1280 l 25,50,-1
 0 1280 l 25,51,-1
 0 1536 l 25,48,-1
EndSplineSet
EndChar

StartChar: plusminus
Encoding: 177 177 175
Width: 1152
VWidth: 2048
Flags: MW
LayerCount: 2
Back
Fore
SplineSet
768 2304 m 25,0,-1
 960 2304 l 25,1,-1
 960 2048 l 25,2,-1
 768 2048 l 25,3,-1
 768 2304 l 25,0,-1
576 2048 m 25,4,-1
 768 2048 l 25,5,-1
 768 1792 l 25,6,-1
 576 1792 l 25,7,-1
 576 2048 l 25,4,-1
384 2304 m 25,8,-1
 576 2304 l 25,9,-1
 576 2048 l 25,10,-1
 384 2048 l 25,11,-1
 384 2304 l 25,8,-1
192 2048 m 25,12,-1
 384 2048 l 25,13,-1
 384 1792 l 25,14,-1
 192 1792 l 25,15,-1
 192 2048 l 25,12,-1
0 2304 m 25,16,-1
 192 2304 l 25,17,-1
 192 2048 l 25,18,-1
 0 2048 l 25,19,-1
 0 2304 l 25,16,-1
768 256 m 25,20,-1
 960 256 l 25,21,-1
 960 0 l 25,22,-1
 768 0 l 25,23,-1
 768 256 l 25,20,-1
384 256 m 25,24,-1
 576 256 l 25,25,-1
 576 0 l 25,26,-1
 384 0 l 25,27,-1
 384 256 l 25,24,-1
0 256 m 25,28,-1
 192 256 l 25,29,-1
 192 0 l 25,30,-1
 0 0 l 25,31,-1
 0 256 l 25,28,-1
576 512 m 25,32,-1
 768 512 l 25,33,-1
 768 256 l 25,34,-1
 576 256 l 25,35,-1
 576 512 l 25,32,-1
192 512 m 25,36,-1
 384 512 l 25,37,-1
 384 256 l 25,38,-1
 192 256 l 25,39,-1
 192 512 l 25,36,-1
768 768 m 25,40,-1
 960 768 l 25,41,-1
 960 512 l 25,42,-1
 768 512 l 25,43,-1
 768 768 l 25,40,-1
384 768 m 25,44,-1
 576 768 l 25,45,-1
 576 512 l 25,46,-1
 384 512 l 25,47,-1
 384 768 l 25,44,-1
0 768 m 25,48,-1
 192 768 l 25,49,-1
 192 512 l 25,50,-1
 0 512 l 25,51,-1
 0 768 l 25,48,-1
576 1024 m 25,52,-1
 768 1024 l 25,53,-1
 768 768 l 25,54,-1
 576 768 l 25,55,-1
 576 1024 l 25,52,-1
192 1024 m 25,56,-1
 384 1024 l 25,57,-1
 384 768 l 25,58,-1
 192 768 l 25,59,-1
 192 1024 l 25,56,-1
768 1280 m 25,60,-1
 960 1280 l 25,61,-1
 960 1024 l 25,62,-1
 768 1024 l 25,63,-1
 768 1280 l 25,60,-1
384 1280 m 25,64,-1
 576 1280 l 25,65,-1
 576 1024 l 25,66,-1
 384 1024 l 25,67,-1
 384 1280 l 25,64,-1
0 1280 m 25,68,-1
 192 1280 l 25,69,-1
 192 1024 l 25,70,-1
 0 1024 l 25,71,-1
 0 1280 l 25,68,-1
576 1536 m 25,72,-1
 768 1536 l 25,73,-1
 768 1280 l 25,74,-1
 576 1280 l 25,75,-1
 576 1536 l 25,72,-1
192 1536 m 25,76,-1
 384 1536 l 25,77,-1
 384 1280 l 25,78,-1
 192 1280 l 25,79,-1
 192 1536 l 25,76,-1
768 1792 m 25,80,-1
 960 1792 l 25,81,-1
 960 1536 l 25,82,-1
 768 1536 l 25,83,-1
 768 1792 l 25,80,-1
384 1792 m 25,84,-1
 576 1792 l 25,85,-1
 576 1536 l 25,86,-1
 384 1536 l 25,87,-1
 384 1792 l 25,84,-1
0 1792 m 25,88,-1
 192 1792 l 25,89,-1
 192 1536 l 25,90,-1
 0 1536 l 25,91,-1
 0 1792 l 25,88,-1
EndSplineSet
EndChar

StartChar: uni00B2
Encoding: 178 178 176
Width: 1152
VWidth: 2048
Flags: MW
LayerCount: 2
Back
Fore
SplineSet
768 512 m 29,0,-1
 960 512 l 29,1,-1
 960 0 l 25,2,-1
 768 0 l 25,3,-1
 768 256 l 25,4,-1
 576 256 l 25,5,-1
 576 0 l 25,6,-1
 384 0 l 25,7,-1
 384 256 l 25,8,-1
 192 256 l 25,9,-1
 192 0 l 25,10,-1
 0 0 l 25,11,-1
 0 256 l 25,12,-1
 0 512 l 25,13,-1
 768 512 l 29,0,-1
768 1024 m 25,14,-1
 960 1024 l 25,15,-1
 960 768 l 25,16,-1
 768 768 l 29,17,-1
 768 512 l 29,18,-1
 576 512 l 25,19,-1
 576 768 l 25,20,-1
 384 768 l 25,21,-1
 384 512 l 25,22,-1
 192 512 l 25,23,-1
 192 768 l 25,24,-1
 0 768 l 25,25,-1
 0 1024 l 25,26,-1
 192 1024 l 25,27,-1
 768 1024 l 25,14,-1
0 1792 m 25,28,-1
 192 1792 l 25,29,-1
 192 1536 l 25,30,-1
 384 1536 l 25,31,-1
 384 1792 l 25,32,-1
 576 1792 l 25,33,-1
 576 1536 l 25,34,-1
 768 1536 l 25,35,-1
 768 1792 l 25,36,-1
 960 1792 l 25,37,-1
 960 1536 l 25,38,-1
 960 1280 l 25,39,-1
 768 1280 l 25,40,-1
 768 1024 l 25,41,-1
 576 1024 l 25,42,-1
 576 1280 l 25,43,-1
 384 1280 l 25,44,-1
 384 1024 l 25,45,-1
 192 1024 l 25,46,-1
 192 1280 l 25,47,-1
 0 1280 l 25,48,-1
 0 1792 l 25,28,-1
EndSplineSet
EndChar

StartChar: uni00B3
Encoding: 179 179 177
Width: 1152
VWidth: 2048
Flags: MW
LayerCount: 2
Back
Fore
SplineSet
192 2304 m 25,0,-1
 384 2304 l 25,1,-1
 384 0 l 25,2,-1
 192 0 l 25,3,-1
 192 2304 l 25,0,-1
EndSplineSet
EndChar

StartChar: acute
Encoding: 180 180 178
Width: 1152
VWidth: 2048
Flags: MW
LayerCount: 2
Back
Fore
SplineSet
192 2304 m 29,0,-1
 384 2304 l 29,1,-1
 384 0 l 29,2,-1
 192 0 l 29,3,-1
 192 768 l 29,4,-1
 0 768 l 29,5,-1
 0 1024 l 29,6,-1
 192 1024 l 29,7,-1
 192 2304 l 29,0,-1
EndSplineSet
EndChar

StartChar: mu
Encoding: 181 181 179
Width: 1152
VWidth: 2048
Flags: MW
LayerCount: 2
Back
Fore
SplineSet
384 2304 m 29,0,-1
 384 0 l 29,1,-1
 192 0 l 29,2,-1
 192 768 l 29,3,-1
 0 768 l 29,4,-1
 0 1024 l 29,5,-1
 192 1024 l 29,6,-1
 192 1280 l 29,7,-1
 0 1280 l 29,8,-1
 0 1536 l 29,9,-1
 192 1536 l 29,10,-1
 192 2304 l 29,11,-1
 384 2304 l 29,0,-1
EndSplineSet
EndChar

StartChar: paragraph
Encoding: 182 182 180
Width: 1152
VWidth: 2048
Flags: MW
LayerCount: 2
Back
Fore
SplineSet
576 2304 m 29,0,-1
 768 2304 l 29,1,-1
 768 0 l 29,2,-1
 576 0 l 29,3,-1
 576 2304 l 29,0,-1
192 2304 m 29,4,-1
 384 2304 l 29,5,-1
 384 0 l 29,6,-1
 192 0 l 29,7,-1
 192 768 l 29,8,-1
 0 768 l 29,9,-1
 0 1024 l 29,10,-1
 192 1024 l 29,11,-1
 192 2304 l 29,4,-1
EndSplineSet
EndChar

StartChar: periodcentered
Encoding: 183 183 181
Width: 1152
VWidth: 2048
Flags: MW
LayerCount: 2
Back
Fore
SplineSet
384 768 m 21,0,-1
 384 0 l 5,1,-1
 192 0 l 29,2,-1
 192 768 l 29,3,-1
 0 768 l 29,4,-1
 0 1024 l 5,5,-1
 768 1024 l 21,6,7
 768 1024 768 1024 768 0 c 5,8,-1
 576 0 l 5,9,-1
 576 768 l 13,10,11
 576 768 576 768 384 768 c 21,0,-1
EndSplineSet
EndChar

StartChar: cedilla
Encoding: 184 184 182
Width: 1152
VWidth: 2048
Flags: MW
LayerCount: 2
Back
Fore
SplineSet
192 1024 m 137,-1,1
 192 1024 192 1024 192 1280 c 25,2,-1
 0 1280 l 25,3,-1
 0 1536 l 25,4,-1
 384 1536 l 1,5,6
 384 1536 384 1536 384 0 c 1,7,-1
 192 0 l 25,8,-1
 192 768 l 25,9,-1
 0 768 l 25,10,-1
 0 1024 l 1,11,0
 192 1024 192 1024 192 1024 c 137,-1,1
EndSplineSet
EndChar

StartChar: uni00B9
Encoding: 185 185 183
Width: 1152
VWidth: 2048
Flags: MW
LayerCount: 2
Back
Fore
SplineSet
0 1280 m 25,0,-1
 0 1536 l 25,1,-1
 192 1536 l 25,2,-1
 192 2304 l 25,3,-1
 384 2304 l 25,4,-1
 384 1280 l 25,5,-1
 0 1280 l 25,0,-1
576 2304 m 25,6,-1
 768 2304 l 25,7,-1
 768 0 l 25,8,-1
 576 0 l 25,9,-1
 576 2304 l 25,6,-1
384 1024 m 25,10,-1
 384 0 l 1,11,-1
 192 0 l 25,12,-1
 192 768 l 25,13,-1
 0 768 l 25,14,-1
 0 1024 l 1,15,-1
 384 1024 l 25,10,-1
EndSplineSet
EndChar

StartChar: ordmasculine
Encoding: 186 186 184
Width: 1152
VWidth: 2048
Flags: MW
LayerCount: 2
Back
Fore
SplineSet
192 2304 m 25,0,-1
 384 2304 l 25,1,-1
 384 0 l 25,2,-1
 192 0 l 25,3,-1
 192 2304 l 25,0,-1
576 2304 m 25,4,-1
 768 2304 l 25,5,-1
 768 0 l 25,6,-1
 576 0 l 25,7,-1
 576 2304 l 25,4,-1
EndSplineSet
EndChar

StartChar: guillemotright
Encoding: 187 187 185
Width: 1152
VWidth: 2048
Flags: MW
LayerCount: 2
Back
Fore
SplineSet
384 1024 m 17,0,1
 384 1024 384 1024 384 0 c 1,2,-1
 192 0 l 25,3,-1
 192 768 l 25,4,-1
 0 768 l 25,5,-1
 0 1024 l 1,6,7
 192 1024 192 1024 384 1024 c 17,0,1
0 1280 m 25,8,-1
 0 1536 l 25,9,-1
 768 1536 l 25,10,11
 768 1024 768 1024 768 0 c 1,12,-1
 576 0 l 1,13,-1
 576 1280 l 1,14,15
 576 1280 576 1280 0 1280 c 25,8,-1
EndSplineSet
EndChar

StartChar: onequarter
Encoding: 188 188 186
Width: 1152
VWidth: 2048
Flags: MW
LayerCount: 2
Back
Fore
SplineSet
384 2304 m 25,0,-1
 384 1280 l 25,1,-1
 0 1280 l 25,2,-1
 0 1536 l 25,3,-1
 192 1536 l 25,4,-1
 192 2304 l 25,5,-1
 384 2304 l 25,0,-1
0 768 m 25,6,-1
 0 1024 l 25,7,-1
 576 1024 l 25,8,-1
 576 2304 l 25,9,-1
 768 2304 l 25,10,-1
 768 768 l 25,11,-1
 0 768 l 25,6,-1
EndSplineSet
EndChar

StartChar: onehalf
Encoding: 189 189 187
Width: 1152
VWidth: 2048
Flags: MW
LayerCount: 2
Back
Fore
SplineSet
192 1024 m 9,0,-1
 192 2304 l 1,1,-1
 384 2304 l 1,2,-1
 384 1024 l 17,3,4
 384 1024 384 1024 576 1024 c 1,5,-1
 576 2304 l 25,6,-1
 768 2304 l 25,7,-1
 768 768 l 25,8,-1
 0 768 l 25,9,-1
 0 1024 l 1,10,-1
 192 1024 l 9,0,-1
EndSplineSet
EndChar

StartChar: threequarters
Encoding: 190 190 188
Width: 1152
VWidth: 2048
Flags: MW
LayerCount: 2
Back
Fore
SplineSet
192 1536 m 17,0,1
 192 1536 192 1536 192 2304 c 1,2,-1
 384 2304 l 1,3,4
 384 1536 384 1536 384 768 c 25,5,6
 0 768 0 768 0 768 c 1,7,-1
 0 1024 l 1,8,-1
 192 1024 l 1,9,-1
 192 1280 l 1,10,11
 192 1280 192 1280 0 1280 c 25,12,-1
 0 1536 l 25,13,-1
 192 1536 l 17,0,1
EndSplineSet
EndChar

StartChar: questiondown
Encoding: 191 191 189
Width: 1152
VWidth: 2048
Flags: MW
LayerCount: 2
Back
Fore
SplineSet
384 1024 m 17,0,1
 384 1024 384 1024 384 0 c 1,2,-1
 192 0 l 25,3,-1
 192 768 l 25,4,-1
 0 768 l 25,5,-1
 0 1024 l 1,6,7
 192 1024 192 1024 384 1024 c 17,0,1
EndSplineSet
EndChar

StartChar: Agrave
Encoding: 192 192 190
Width: 1152
VWidth: 2048
Flags: MW
LayerCount: 2
Back
Fore
SplineSet
192 2304 m 5,0,-1
 384 2304 l 5,1,-1
 384 1024 l 5,2,-1
 1056 1024 l 5,3,-1
 1056 768 l 5,4,-1
 192 768 l 5,5,-1
 192 2304 l 5,0,-1
EndSplineSet
EndChar

StartChar: Aacute
Encoding: 193 193 191
Width: 1152
VWidth: 2048
Flags: MW
LayerCount: 2
Back
Fore
SplineSet
192 1024 m 21,0,1
 192 1024 192 1024 192 2304 c 5,2,-1
 384 2304 l 5,3,-1
 384 1024 l 5,4,-1
 1056 1024 l 5,5,-1
 1056 768 l 5,6,-1
 0 768 l 13,7,-1
 0 1024 l 29,8,-1
 192 1024 l 21,0,1
EndSplineSet
EndChar

StartChar: Acircumflex
Encoding: 194 194 192
Width: 1152
VWidth: 2048
Flags: MW
LayerCount: 2
Back
Fore
SplineSet
192 768 m 1,0,1
 192 768 192 768 0 768 c 25,2,-1
 0 1024 l 17,3,-1
 1056 1024 l 1,4,-1
 1056 768 l 1,5,-1
 384 768 l 1,6,-1
 384 0 l 1,7,-1
 192 0 l 1,8,-1
 192 768 l 1,0,1
EndSplineSet
EndChar

StartChar: Atilde
Encoding: 195 195 193
Width: 1152
VWidth: 2048
Flags: MW
LayerCount: 2
Back
Fore
SplineSet
384 2304 m 25,0,-1
 384 1024 l 1,1,-1
 1056 1024 l 1,2,-1
 1056 768 l 1,3,-1
 384 768 l 1,4,-1
 384 0 l 25,5,-1
 192 0 l 25,6,-1
 192 2304 l 25,7,-1
 384 2304 l 25,0,-1
EndSplineSet
EndChar

StartChar: Adieresis
Encoding: 196 196 194
Width: 1152
VWidth: 2048
Flags: MW
LayerCount: 2
Back
Fore
SplineSet
0 1024 m 17,0,-1
 1056 1024 l 1,1,-1
 1056 768 l 1,2,-1
 0 768 l 9,3,-1
 0 1024 l 17,0,-1
EndSplineSet
EndChar

StartChar: Aring
Encoding: 197 197 195
Width: 1152
VWidth: 2048
Flags: MW
LayerCount: 2
Back
Fore
SplineSet
192 1024 m 17,0,1
 192 1024 192 1024 192 2304 c 1,2,-1
 384 2304 l 25,3,-1
 384 1024 l 1,4,-1
 1056 1024 l 1,5,-1
 1056 768 l 1,6,-1
 384 768 l 1,7,-1
 384 0 l 25,8,-1
 192 0 l 1,9,-1
 192 768 l 9,10,11
 192 768 192 768 0 768 c 25,12,-1
 0 1024 l 25,13,-1
 192 1024 l 17,0,1
EndSplineSet
EndChar

StartChar: AE
Encoding: 198 198 196
Width: 1152
VWidth: 2048
Flags: MW
LayerCount: 2
Back
Fore
SplineSet
192 2304 m 25,0,-1
 384 2304 l 25,1,-1
 384 1536 l 1,2,-1
 1056 1536 l 1,3,-1
 1056 1280 l 1,4,-1
 384 1280 l 1,5,-1
 384 1024 l 1,6,-1
 1056 1024 l 1,7,-1
 1056 768 l 1,8,-1
 384 768 l 1,9,-1
 384 0 l 25,10,-1
 192 0 l 25,11,-1
 192 2304 l 25,0,-1
EndSplineSet
EndChar

StartChar: Ccedilla
Encoding: 199 199 197
Width: 1152
VWidth: 2048
Flags: MW
LayerCount: 2
Back
Fore
SplineSet
384 2304 m 1,0,-1
 384 0 l 1,1,-1
 192 0 l 1,2,-1
 192 2304 l 1,3,-1
 384 2304 l 1,0,-1
768 2304 m 1,4,-1
 768 1024 l 1,5,-1
 1056 1024 l 1,6,-1
 1056 768 l 1,7,-1
 768 768 l 1,8,-1
 768 0 l 1,9,-1
 576 0 l 1,10,-1
 576 2304 l 1,11,-1
 768 2304 l 1,4,-1
EndSplineSet
EndChar

StartChar: Egrave
Encoding: 200 200 198
Width: 1152
VWidth: 2048
Flags: MW
LayerCount: 2
Back
Fore
SplineSet
576 2304 m 25,0,-1
 768 2304 l 25,1,-1
 768 1536 l 1,2,-1
 1056 1536 l 1,3,-1
 1056 1280 l 1,4,-1
 576 1280 l 1,5,-1
 576 2304 l 25,0,-1
1056 768 m 1,6,-1
 192 768 l 1,7,-1
 192 2304 l 25,8,-1
 384 2304 l 25,9,-1
 384 1024 l 1,10,-1
 1056 1024 l 1,11,-1
 1056 768 l 1,6,-1
EndSplineSet
EndChar

StartChar: Eacute
Encoding: 201 201 199
Width: 1152
VWidth: 2048
Flags: MW
LayerCount: 2
Back
Fore
SplineSet
576 1024 m 1,0,1
 816 1024 816 1024 1056 1024 c 1,2,3
 1056 1024 1056 1024 1056 768 c 1,4,-1
 768 768 l 1,5,-1
 768 0 l 25,6,-1
 576 0 l 1,7,-1
 576 1024 l 1,0,1
1056 1280 m 1,8,-1
 384 1280 l 1,9,10
 384 1280 384 1280 384 0 c 1,11,-1
 192 0 l 1,12,-1
 192 1536 l 1,13,14
 192 1536 192 1536 1056 1536 c 1,15,-1
 1056 1280 l 1,8,-1
EndSplineSet
EndChar

StartChar: Ecircumflex
Encoding: 202 202 200
Width: 1152
VWidth: 2048
Flags: MW
LayerCount: 2
Back
Fore
SplineSet
576 2304 m 25,0,-1
 768 2304 l 25,1,-1
 768 1536 l 25,2,-1
 1056 1536 l 25,3,-1
 1056 1280 l 25,4,-1
 576 1280 l 25,5,-1
 576 2304 l 25,0,-1
0 1536 m 17,6,-1
 192 1536 l 1,7,-1
 192 2304 l 1,8,-1
 384 2304 l 25,9,-1
 384 1280 l 25,10,-1
 0 1280 l 25,11,-1
 0 1536 l 17,6,-1
0 768 m 25,12,-1
 0 1024 l 25,13,-1
 1056 1024 l 25,14,-1
 1056 768 l 25,15,-1
 0 768 l 25,12,-1
EndSplineSet
EndChar

StartChar: Edieresis
Encoding: 203 203 201
Width: 1152
VWidth: 2048
Flags: MW
LayerCount: 2
Back
Fore
SplineSet
576 0 m 25,0,-1
 576 1024 l 25,1,-1
 1056 1024 l 25,2,-1
 1056 768 l 25,3,-1
 768 768 l 25,4,-1
 768 0 l 25,5,-1
 576 0 l 25,0,-1
0 768 m 9,6,-1
 0 1024 l 25,7,-1
 384 1024 l 25,8,-1
 384 0 l 25,9,-1
 192 0 l 1,10,-1
 192 768 l 1,11,-1
 0 768 l 9,6,-1
0 1536 m 25,12,-1
 1056 1536 l 25,13,-1
 1056 1280 l 25,14,-1
 0 1280 l 25,15,-1
 0 1536 l 25,12,-1
EndSplineSet
EndChar

StartChar: Igrave
Encoding: 204 204 202
Width: 1152
VWidth: 2048
Flags: MW
LayerCount: 2
Back
Fore
SplineSet
1056 1280 m 1,0,-1
 576 1280 l 1,1,-1
 576 2304 l 25,2,-1
 768 2304 l 25,3,-1
 768 1536 l 1,4,-1
 1056 1536 l 1,5,-1
 1056 1280 l 1,0,-1
384 2304 m 25,6,-1
 384 0 l 25,7,-1
 192 0 l 25,8,-1
 192 2304 l 25,9,-1
 384 2304 l 25,6,-1
576 1024 m 1,10,-1
 1056 1024 l 1,11,-1
 1056 768 l 1,12,-1
 768 768 l 1,13,-1
 768 0 l 25,14,-1
 576 0 l 1,15,-1
 576 1024 l 1,10,-1
EndSplineSet
EndChar

StartChar: Iacute
Encoding: 205 205 203
Width: 1152
VWidth: 2048
Flags: MW
LayerCount: 2
Back
Fore
SplineSet
0 1024 m 1,0,-1
 1056 1024 l 1,1,-1
 1056 768 l 1,2,-1
 0 768 l 1,3,-1
 0 1024 l 1,0,-1
0 1536 m 1,4,-1
 1056 1536 l 1,5,-1
 1056 1280 l 1,6,-1
 0 1280 l 1,7,-1
 0 1536 l 1,4,-1
EndSplineSet
EndChar

StartChar: Icircumflex
Encoding: 206 206 204
Width: 1152
VWidth: 2048
Flags: MW
LayerCount: 2
Back
Fore
SplineSet
0 1280 m 1,0,-1
 0 1536 l 1,1,-1
 192 1536 l 1,2,-1
 192 2304 l 25,3,-1
 384 2304 l 25,4,-1
 384 1280 l 1,5,-1
 0 1280 l 1,0,-1
384 1024 m 1,6,-1
 384 0 l 1,7,-1
 192 0 l 25,8,-1
 192 768 l 1,9,-1
 0 768 l 1,10,-1
 0 1024 l 1,11,-1
 384 1024 l 1,6,-1
1056 1280 m 1,12,-1
 576 1280 l 1,13,-1
 576 2304 l 25,14,-1
 768 2304 l 25,15,-1
 768 1536 l 1,16,-1
 1056 1536 l 1,17,-1
 1056 1280 l 1,12,-1
576 1024 m 1,18,-1
 1056 1024 l 1,19,-1
 1056 768 l 1,20,-1
 768 768 l 1,21,-1
 768 0 l 25,22,-1
 576 0 l 1,23,-1
 576 1024 l 1,18,-1
EndSplineSet
EndChar

StartChar: Idieresis
Encoding: 207 207 205
Width: 1152
VWidth: 2048
Flags: MW
LayerCount: 2
Back
Fore
SplineSet
0 1024 m 1,0,-1
 1056 1024 l 1,1,-1
 1056 768 l 1,2,-1
 0 768 l 1,3,-1
 0 1024 l 1,0,-1
192 2304 m 1,4,-1
 384 2304 l 1,5,-1
 384 1536 l 1,6,-1
 1056 1536 l 1,7,-1
 1056 1280 l 1,8,-1
 0 1280 l 1,9,-1
 0 1536 l 1,10,-1
 192 1536 l 1,11,-1
 192 2304 l 1,4,-1
EndSplineSet
EndChar

StartChar: Eth
Encoding: 208 208 208
Width: 1152
VWidth: 2048
Flags: MW
LayerCount: 2
Back
Fore
SplineSet
576 2304 m 25,0,-1
 768 2304 l 1,1,-1
 768 1024 l 17,2,-1
 1056 1024 l 1,3,-1
 1056 768 l 1,4,-1
 0 768 l 1,5,-1
 0 1024 l 1,6,7
 192 1024 192 1024 192 1024 c 129,-1,8
 192 1024 192 1024 192 2304 c 1,9,-1
 384 2304 l 1,10,-1
 384 1024 l 1,11,-1
 576 1024 l 9,12,13
 576 1024 576 1024 576 2304 c 25,0,-1
EndSplineSet
EndChar

StartChar: Ntilde
Encoding: 209 209 209
Width: 1152
VWidth: 2048
Flags: MW
LayerCount: 2
Back
Fore
SplineSet
0 1280 m 1,0,-1
 0 1536 l 1,1,-1
 1056 1536 l 1,2,-1
 1056 1280 l 1,3,-1
 0 1280 l 1,0,-1
192 0 m 1,4,-1
 192 768 l 1,5,-1
 0 768 l 1,6,-1
 0 1024 l 1,7,-1
 1056 1024 l 1,8,-1
 1056 768 l 1,9,-1
 384 768 l 1,10,-1
 384 0 l 1,11,-1
 192 0 l 1,4,-1
EndSplineSet
EndChar

StartChar: Ograve
Encoding: 210 210 210
Width: 1152
VWidth: 2048
Flags: MW
LayerCount: 2
Back
Fore
SplineSet
576 0 m 1,0,-1
 576 768 l 1,1,2
 576 768 576 768 384 768 c 1,3,-1
 384 0 l 1,4,-1
 192 0 l 1,5,6
 192 379 192 379 192 768 c 1,7,8
 0 768 0 768 0 768 c 129,-1,9
 0 768 0 768 0 1024 c 1,10,-1
 1056 1024 l 1,11,-1
 1056 768 l 1,12,-1
 768 768 l 1,13,-1
 768 0 l 1,14,-1
 576 0 l 1,0,-1
2151 -1048 m 1049,15,-1
EndSplineSet
EndChar

StartChar: Oacute
Encoding: 211 211 211
Width: 1152
VWidth: 2048
Flags: MW
LayerCount: 2
Back
Fore
SplineSet
768 1024 m 1,0,-1
 1056 1024 l 1,1,-1
 1056 768 l 1,2,-1
 192 768 l 1,3,-1
 192 2304 l 25,4,-1
 384 2304 l 25,5,-1
 384 1024 l 1,6,7
 576 1024 576 1024 576 1024 c 137,-1,8
 576 1024 576 1024 576 2304 c 1,9,-1
 768 2304 l 1,10,-1
 768 1024 l 1,0,-1
EndSplineSet
EndChar

StartChar: Ocircumflex
Encoding: 212 212 212
Width: 1152
VWidth: 2048
Flags: MW
LayerCount: 2
Back
Fore
SplineSet
384 1536 m 1,0,1
 384 1536 384 1536 1056 1536 c 1,2,-1
 1056 1280 l 1,3,-1
 384 1280 l 1,4,5
 384 1280 384 1280 384 1024 c 1,6,-1
 1056 1024 l 1,7,-1
 1056 768 l 1,8,9
 624 768 624 768 192 768 c 1,10,11
 192 1536 192 1536 192 2304 c 1,12,13
 192 2304 192 2304 384 2304 c 1,14,-1
 384 1536 l 1,0,1
EndSplineSet
EndChar

StartChar: Otilde
Encoding: 213 213 213
Width: 1152
VWidth: 2048
Flags: MW
LayerCount: 2
Back
Fore
SplineSet
384 1024 m 1,0,1
 384 1024 384 1024 1056 1024 c 1,2,3
 1056 1024 1056 1024 1056 768 c 1,4,-1
 384 768 l 1,5,-1
 384 0 l 25,6,-1
 192 0 l 1,7,-1
 192 1536 l 1,8,9
 192 1536 192 1536 1056 1536 c 1,10,-1
 1056 1280 l 1,11,-1
 384 1280 l 1,12,-1
 384 1024 l 1,0,1
EndSplineSet
EndChar

StartChar: Odieresis
Encoding: 214 214 214
Width: 1152
VWidth: 2048
Flags: MW
LayerCount: 2
Back
Fore
SplineSet
576 768 m 9,0,-1
 384 768 l 17,1,2
 384 768 384 768 384 0 c 1,3,-1
 192 0 l 1,4,-1
 192 1024 l 1,5,6
 192 1024 192 1024 1056 1024 c 1,7,-1
 1056 768 l 1,8,-1
 768 768 l 1,9,-1
 768 0 l 25,10,-1
 576 0 l 1,11,-1
 576 768 l 9,0,-1
EndSplineSet
EndChar

StartChar: multiply
Encoding: 215 215 215
Width: 1152
VWidth: 2048
Flags: MW
LayerCount: 2
Back
Fore
SplineSet
576 1024 m 17,0,1
 576 1024 576 1024 576 2304 c 1,2,-1
 768 2304 l 1,3,-1
 768 1024 l 1,4,-1
 1056 1024 l 1,5,-1
 1056 768 l 1,6,-1
 768 768 l 1,7,-1
 768 0 l 1,8,-1
 576 0 l 1,9,-1
 576 768 l 1,10,11
 576 768 576 768 384 768 c 1,12,13
 384 768 384 768 384 0 c 1,14,-1
 192 0 l 1,15,-1
 192 768 l 1,16,17
 192 768 192 768 0 768 c 25,18,-1
 0 1024 l 25,19,-1
 192 1024 l 1,20,21
 192 1024 192 1024 192 2304 c 1,22,-1
 384 2304 l 1,23,-1
 384 1024 l 9,24,-1
 576 1024 l 17,0,1
EndSplineSet
EndChar

StartChar: Oslash
Encoding: 216 216 216
Width: 1152
VWidth: 2048
Flags: MW
LayerCount: 2
Back
Fore
SplineSet
384 1280 m 17,0,1
 384 1280 384 1280 384 1024 c 1,2,3
 720 1024 720 1024 1056 1024 c 1,4,-1
 1056 768 l 1,5,6
 1056 768 1056 768 384 768 c 1,7,8
 384 768 384 768 384 0 c 1,9,-1
 192 0 l 1,10,-1
 192 768 l 1,11,12
 192 768 192 768 0 768 c 25,13,-1
 0 1024 l 25,14,-1
 192 1024 l 1,15,16
 192 1024 192 1024 192 1280 c 1,17,18
 192 1280 192 1280 0 1280 c 25,19,-1
 0 1536 l 25,20,-1
 192 1536 l 17,21,22
 192 1536 192 1536 192 2304 c 1,23,-1
 384 2304 l 1,24,-1
 384 1536 l 1,25,26
 384 1536 384 1536 1056 1536 c 25,27,-1
 1056 1280 l 25,28,-1
 384 1280 l 17,0,1
EndSplineSet
EndChar

StartChar: Ugrave
Encoding: 217 217 217
Width: 1152
VWidth: 2048
Flags: MW
LayerCount: 2
Back
Fore
SplineSet
192 2304 m 1,0,-1
 384 2304 l 1,1,-1
 384 768 l 1,2,-1
 0 768 l 1,3,-1
 0 1024 l 1,4,-1
 192 1024 l 1,5,-1
 192 2304 l 1,0,-1
EndSplineSet
EndChar

StartChar: Uacute
Encoding: 218 218 218
Width: 1152
VWidth: 2048
Flags: MW
LayerCount: 2
Back
Fore
SplineSet
192 1024 m 1,0,-1
 1056 1024 l 1,1,-1
 1056 768 l 1,2,-1
 384 768 l 1,3,-1
 384 0 l 1,4,-1
 192 0 l 1,5,-1
 192 1024 l 1,0,-1
EndSplineSet
EndChar

StartChar: Ucircumflex
Encoding: 219 219 219
Width: 1152
VWidth: 2048
Flags: MW
LayerCount: 2
Back
Fore
SplineSet
0 2304 m 1,0,-1
 1056 2304 l 1,1,-1
 1056 0 l 1,2,-1
 0 0 l 1,3,-1
 0 2304 l 1,0,-1
EndSplineSet
EndChar

StartChar: Udieresis
Encoding: 220 220 220
Width: 1152
VWidth: 2048
Flags: MW
LayerCount: 2
Back
Fore
SplineSet
0 1024 m 1,0,-1
 1056 1024 l 5,1,-1
 1056 0 l 1,2,-1
 0 0 l 1,3,-1
 0 1024 l 1,0,-1
EndSplineSet
EndChar

StartChar: Yacute
Encoding: 221 221 221
Width: 1152
VWidth: 2048
Flags: MW
LayerCount: 2
Back
Fore
SplineSet
0 2304 m 1,0,-1
 384 2304 l 1,1,-1
 384 0 l 1,2,-1
 0 0 l 1,3,-1
 0 2304 l 1,0,-1
EndSplineSet
EndChar

StartChar: Thorn
Encoding: 222 222 222
Width: 1152
VWidth: 2048
Flags: MW
LayerCount: 2
Back
Fore
SplineSet
384 2304 m 1,0,-1
 1056 2304 l 1,1,-1
 1056 0 l 1,2,-1
 384 0 l 1,3,-1
 384 2304 l 1,0,-1
EndSplineSet
EndChar

StartChar: germandbls
Encoding: 223 223 223
Width: 1152
VWidth: 2048
Flags: MW
LayerCount: 2
Back
Fore
SplineSet
0 2304 m 1,0,-1
 1056 2304 l 1,1,-1
 1056 1024 l 1,2,-1
 0 1024 l 1,3,-1
 0 2304 l 1,0,-1
EndSplineSet
EndChar

StartChar: agrave
Encoding: 224 224 224
Width: 1152
VWidth: 2048
Flags: MW
LayerCount: 2
Back
Fore
SplineSet
248 1024 m 0,0,1
 192 1024 192 1024 192 949 c 0,2,3
 192 949 192 949 192 587 c 0,4,5
 192 512 192 512 248 512 c 24,6,7
 248 512 248 512 328 512 c 0,8,9
 384 512 384 512 384 587 c 24,10,11
 384 587 384 587 384 949 c 0,12,13
 384 1024 384 1024 328 1024 c 0,14,15
 328 1024 328 1024 248 1024 c 0,0,1
480 332 m 1,16,17
 440 256 440 256 328 256 c 0,18,19
 328 256 328 256 248 256 c 0,20,21
 0 256 0 256 0 587 c 24,22,23
 0 934 0 934 0 949 c 0,24,25
 0 1280 0 1280 248 1280 c 24,26,27
 248 1280 248 1280 328 1280 c 0,28,29
 444 1280 444 1280 480 1204 c 1,30,31
 520 1280 520 1280 632 1280 c 0,32,33
 632 1280 632 1280 960 1280 c 1,34,35
 960 1280 960 1280 960 1024 c 9,36,-1
 632 1024 l 0,37,38
 576 1024 576 1024 576 949 c 24,39,40
 576 730 576 730 576 587 c 0,41,42
 576 512 576 512 632 512 c 24,43,-1
 960 512 l 25,44,45
 960 512 960 512 960 256 c 1,46,47
 960 256 960 256 632 256 c 0,48,49
 522 256 522 256 480 332 c 1,16,17
EndSplineSet
EndChar

StartChar: aacute
Encoding: 225 225 225
Width: 1152
VWidth: 2048
Flags: MW
LayerCount: 2
Back
Fore
SplineSet
192 768 m 25,0,-1
 192 512 l 25,1,-1
 384 512 l 25,2,-1
 384 331 l 0,3,4
 384 256 384 256 440 256 c 24,5,6
 440 256 440 256 520 256 c 0,7,8
 576 256 576 256 576 331 c 24,9,10
 576 331 576 331 576 693 c 0,11,12
 576 768 576 768 520 768 c 24,13,14
 520 768 520 768 192 768 c 25,0,-1
192 1280 m 25,15,-1
 192 1024 l 25,16,17
 192 1024 192 1024 520 1024 c 0,18,19
 576 1024 576 1024 576 1099 c 24,20,21
 576 1099 576 1099 576 1205 c 0,22,23
 576 1280 576 1280 520 1280 c 24,24,25
 520 1280 520 1280 192 1280 c 25,15,-1
711 896 m 1,26,27
 768 842 768 842 768 693 c 0,28,29
 768 693 768 693 768 331 c 0,30,31
 768 0 768 0 520 0 c 24,32,33
 520 0 520 0 440 0 c 1,34,35
 192 0 192 0 192 256 c 1,36,-1
 192 -256 l 25,37,-1
 0 -256 l 25,38,-1
 0 1536 l 25,39,40
 2 1536 2 1536 520 1536 c 0,41,42
 768 1536 768 1536 768 1205 c 24,43,44
 768 1205 768 1205 768 1099 c 0,45,46
 768 946 768 946 711 896 c 1,26,27
EndSplineSet
EndChar

StartChar: acircumflex
Encoding: 226 226 226
Width: 1152
VWidth: 2048
Flags: MW
LayerCount: 2
Back
Fore
SplineSet
0 1536 m 25,0,-1
 960 1536 l 25,1,-1
 960 768 l 25,2,-1
 768 768 l 25,3,-1
 768 1280 l 25,4,-1
 192 1280 l 25,5,-1
 192 -256 l 25,6,-1
 0 -256 l 25,7,-1
 0 1536 l 25,0,-1
EndSplineSet
EndChar

StartChar: atilde
Encoding: 227 227 227
Width: 1152
VWidth: 2048
Flags: MW
LayerCount: 2
Back
Fore
SplineSet
0 1024 m 25,0,-1
 960 1024 l 25,1,-1
 960 768 l 25,2,-1
 768 768 l 25,3,-1
 768 0 l 25,4,-1
 576 0 l 25,5,-1
 576 768 l 25,6,-1
 384 768 l 25,7,-1
 384 0 l 25,8,-1
 192 0 l 25,9,-1
 192 768 l 25,10,-1
 0 768 l 25,11,-1
 0 1024 l 25,0,-1
EndSplineSet
EndChar

StartChar: adieresis
Encoding: 228 228 228
Width: 1152
VWidth: 2048
Flags: MW
LayerCount: 2
Back
Fore
SplineSet
344 896 m 1,0,1
 344 896 344 896 0 1355 c 1,2,-1
 0 1792 l 25,3,-1
 960 1792 l 25,4,-1
 960 1280 l 25,5,-1
 768 1280 l 25,6,-1
 768 1536 l 25,7,-1
 136 1536 l 25,8,-1
 576 949 l 25,9,-1
 576 843 l 25,10,-1
 136 256 l 25,11,-1
 768 256 l 25,12,-1
 768 512 l 25,13,-1
 960 512 l 25,14,-1
 960 0 l 25,15,-1
 0 0 l 25,16,-1
 0 437 l 1,17,-1
 344 896 l 1,0,1
EndSplineSet
EndChar

StartChar: aring
Encoding: 229 229 229
Width: 1152
VWidth: 2048
Flags: MW
LayerCount: 2
Back
Fore
SplineSet
576 768 m 25,0,1
 576 768 576 768 248 768 c 0,2,3
 192 768 192 768 192 693 c 24,4,5
 192 693 192 693 192 331 c 0,6,7
 192 256 192 256 248 256 c 24,8,9
 248 256 248 256 520 256 c 0,10,11
 576 256 576 256 576 331 c 24,12,13
 576 331 576 331 576 768 c 25,0,1
576 1280 m 25,14,-1
 768 1280 l 25,15,-1
 768 1024 l 25,16,-1
 960 1024 l 25,17,-1
 960 768 l 25,18,-1
 768 768 l 25,19,-1
 768 331 l 0,20,21
 768 0 768 0 520 0 c 0,22,23
 520 0 520 0 248 0 c 0,24,25
 0 0 0 0 0 331 c 0,26,27
 0 331 0 331 0 693 c 0,28,29
 0 1024 0 1024 248 1024 c 24,30,-1
 576 1024 l 25,31,-1
 576 1280 l 25,14,-1
EndSplineSet
EndChar

StartChar: ae
Encoding: 230 230 230
Width: 1152
VWidth: 2048
Flags: MW
LayerCount: 2
Back
Fore
SplineSet
0 1024 m 25,0,-1
 192 1024 l 25,1,-1
 192 331 l 0,2,3
 192 256 192 256 248 256 c 24,4,5
 248 256 248 256 520 256 c 0,6,7
 576 256 576 256 576 331 c 24,8,-1
 576 512 l 25,9,-1
 768 512 l 25,10,-1
 768 1024 l 25,11,-1
 960 1024 l 25,12,-1
 960 -256 l 25,13,-1
 768 -256 l 25,14,-1
 768 256 l 17,15,16
 768 0 768 0 520 0 c 8,17,18
 520 0 520 0 248 0 c 0,19,20
 0 0 0 0 0 331 c 24,21,22
 0 331 0 331 0 1024 c 25,0,-1
EndSplineSet
EndChar

StartChar: ccedilla
Encoding: 231 231 231
Width: 1152
VWidth: 2048
Flags: MW
LayerCount: 2
Back
Fore
SplineSet
0 1024 m 25,0,-1
 960 1024 l 25,1,-1
 960 768 l 25,2,-1
 576 768 l 25,3,-1
 576 0 l 25,4,-1
 384 0 l 25,5,-1
 384 768 l 25,6,-1
 0 768 l 25,7,-1
 0 1024 l 25,0,-1
EndSplineSet
EndChar

StartChar: egrave
Encoding: 232 232 232
Width: 1152
VWidth: 2048
Flags: MW
LayerCount: 2
Back
Fore
SplineSet
248 1024 m 0,0,1
 192 1024 192 1024 192 949 c 24,2,3
 192 949 192 949 192 331 c 0,4,5
 192 256 192 256 248 256 c 24,6,7
 248 256 248 256 712 256 c 0,8,9
 768 256 768 256 768 331 c 24,10,11
 768 331 768 331 768 949 c 0,12,13
 768 1024 768 1024 712 1024 c 24,14,15
 712 1024 712 1024 248 1024 c 0,0,1
192 1792 m 25,16,-1
 768 1792 l 25,17,-1
 768 1536 l 25,18,-1
 576 1536 l 25,19,-1
 576 1280 l 25,20,-1
 712 1280 l 0,21,22
 960 1280 960 1280 960 949 c 24,23,24
 960 949 960 949 960 331 c 0,25,26
 960 0 960 0 712 0 c 24,27,28
 712 0 712 0 248 0 c 0,29,30
 0 0 0 0 0 331 c 24,31,32
 0 331 0 331 0 949 c 0,33,34
 0 1280 0 1280 248 1280 c 24,35,-1
 384 1280 l 25,36,-1
 384 1536 l 25,37,-1
 192 1536 l 25,38,-1
 192 1792 l 25,16,-1
EndSplineSet
EndChar

StartChar: eacute
Encoding: 233 233 233
Width: 1152
VWidth: 2048
Flags: MW
LayerCount: 2
Back
Fore
SplineSet
192 768 m 25,0,-1
 768 768 l 25,1,2
 768 768 768 768 768 1205 c 0,3,4
 768 1280 768 1280 712 1280 c 24,5,6
 712 1280 712 1280 248 1280 c 0,7,8
 192 1280 192 1280 192 1205 c 24,9,10
 192 1205 192 1205 192 768 c 25,0,-1
712 1536 m 0,11,12
 960 1536 960 1536 960 1205 c 24,13,14
 960 1205 960 1205 960 0 c 25,15,-1
 768 0 l 25,16,-1
 768 512 l 25,17,-1
 192 512 l 25,18,-1
 192 0 l 25,19,-1
 0 0 l 25,20,21
 0 0 0 0 0 1205 c 0,22,23
 0 1536 0 1536 248 1536 c 24,24,25
 248 1536 248 1536 712 1536 c 0,11,12
EndSplineSet
EndChar

StartChar: ecircumflex
Encoding: 234 234 234
Width: 1152
VWidth: 2048
Flags: MW
LayerCount: 2
Back
Fore
SplineSet
712 1536 m 0,0,1
 960 1536 960 1536 960 1205 c 24,2,3
 960 1205 960 1205 960 768 c 0,4,5
 960 512 960 512 768 512 c 9,6,7
 768 512 768 512 768 256 c 25,8,9
 768 256 768 256 960 256 c 1,10,-1
 960 0 l 25,11,-1
 576 0 l 25,12,13
 576 0 576 0 576 512 c 17,14,15
 576 768 576 768 768 768 c 8,16,17
 768 768 768 768 768 1205 c 0,18,19
 768 1280 768 1280 712 1280 c 24,20,21
 712 1280 712 1280 248 1280 c 0,22,23
 192 1280 192 1280 192 1205 c 24,24,25
 192 1205 192 1205 192 768 c 17,26,27
 384 768 384 768 384 512 c 8,28,29
 384 512 384 512 384 0 c 25,30,-1
 0 0 l 25,31,-1
 0 256 l 25,32,-1
 192 256 l 25,33,34
 192 256 192 256 192 512 c 17,35,36
 0 512 0 512 0 768 c 8,37,38
 0 768 0 768 0 1205 c 0,39,40
 0 1536 0 1536 248 1536 c 24,41,42
 248 1536 248 1536 712 1536 c 0,0,1
EndSplineSet
EndChar

StartChar: edieresis
Encoding: 235 235 235
Width: 1152
VWidth: 2048
Flags: MW
LayerCount: 2
Back
Fore
SplineSet
768 949 m 0,0,1
 768 1024 768 1024 712 1024 c 24,2,3
 712 1024 712 1024 248 1024 c 0,4,5
 192 1024 192 1024 192 949 c 24,6,7
 192 949 192 949 192 331 c 0,8,9
 192 256 192 256 248 256 c 24,10,11
 248 256 248 256 712 256 c 0,12,13
 768 256 768 256 768 331 c 24,14,15
 768 331 768 331 768 949 c 0,0,1
576 1792 m 25,16,-1
 576 1536 l 25,17,-1
 248 1536 l 0,18,19
 192 1536 192 1536 192 1461 c 24,20,21
 192 1461 192 1461 192 1355 c 0,22,23
 192 1280 192 1280 248 1280 c 24,24,-1
 712 1280 l 0,25,26
 960 1280 960 1280 960 949 c 24,27,28
 960 949 960 949 960 331 c 0,29,30
 960 0 960 0 712 0 c 24,31,32
 712 0 712 0 248 0 c 0,33,34
 0 0 0 0 0 331 c 24,35,36
 0 331 0 331 0 949 c 17,37,38
 0 1280 0 1280 192 1280 c 9,39,-1
 0 1280 l 25,40,41
 0 1282 0 1282 0 1461 c 0,42,43
 0 1792 0 1792 248 1792 c 24,44,45
 248 1792 248 1792 576 1792 c 25,16,-1
EndSplineSet
EndChar

StartChar: igrave
Encoding: 236 236 236
Width: 1152
VWidth: 2048
Flags: MW
LayerCount: 2
Back
Fore
SplineSet
768 1205 m 0,0,1
 768 1280 768 1280 712 1280 c 24,2,3
 712 1280 712 1280 632 1280 c 0,4,5
 576 1280 576 1280 576 1205 c 24,6,7
 576 1205 576 1205 576 843 c 0,8,9
 576 768 576 768 632 768 c 24,10,11
 632 768 632 768 712 768 c 0,12,13
 768 768 768 768 768 843 c 24,14,15
 768 843 768 843 768 1205 c 0,0,1
248 1280 m 0,16,17
 192 1280 192 1280 192 1205 c 24,18,19
 192 1205 192 1205 192 843 c 0,20,21
 192 768 192 768 248 768 c 24,22,23
 248 768 248 768 328 768 c 0,24,25
 384 768 384 768 384 843 c 24,26,27
 384 843 384 843 384 1205 c 0,28,29
 384 1280 384 1280 328 1280 c 24,30,31
 328 1280 328 1280 248 1280 c 0,16,17
480 588 m 1,32,33
 442 512 442 512 328 512 c 0,34,35
 248 512 248 512 248 512 c 0,36,37
 0 512 0 512 0 843 c 0,38,39
 0 1205 0 1205 0 1205 c 0,40,41
 0 1536 0 1536 248 1536 c 24,42,43
 328 1536 328 1536 328 1536 c 0,44,45
 444 1536 444 1536 480 1460 c 1,46,47
 517 1536 517 1536 632 1536 c 0,48,49
 712 1536 712 1536 712 1536 c 0,50,51
 960 1536 960 1536 960 1205 c 24,52,53
 960 843 960 843 960 843 c 0,54,55
 960 512 960 512 712 512 c 0,56,57
 632 512 632 512 632 512 c 0,58,59
 518 512 518 512 480 588 c 1,32,33
EndSplineSet
EndChar

StartChar: iacute
Encoding: 237 237 237
Width: 1152
VWidth: 2048
Flags: MW
LayerCount: 2
Back
Fore
SplineSet
136 0 m 9,0,-1
 0 0 l 1,1,-1
 0 181 l 1,2,-1
 94 306 l 1,3,4
 0 379 0 379 0 587 c 0,5,6
 0 587 0 587 0 1205 c 0,7,8
 0 1536 0 1536 248 1536 c 24,9,10
 248 1536 248 1536 520 1536 c 0,11,12
 675 1536 675 1536 731 1411 c 1,13,14
 731 1411 731 1411 824 1536 c 1,15,-1
 960 1536 l 1,16,-1
 960 1355 l 1,17,-1
 768 1099 l 9,18,19
 768 1092 768 1092 768 587 c 16,20,21
 768 256 768 256 520 256 c 0,22,23
 520 256 520 256 328 256 c 1,24,-1
 136 0 l 9,0,-1
192 1205 m 0,25,26
 192 1205 192 1205 192 693 c 1,27,28
 192 693 192 693 576 1205 c 0,29,30
 576 1280 576 1280 520 1280 c 0,31,32
 520 1280 520 1280 248 1280 c 0,33,34
 192 1280 192 1280 192 1205 c 0,25,26
520 512 m 16,35,36
 576 512 576 512 576 587 c 0,37,38
 576 587 576 587 576 843 c 1,39,40
 576 843 576 843 328 512 c 9,41,-1
 520 512 l 16,35,36
EndSplineSet
EndChar

StartChar: icircumflex
Encoding: 238 238 238
Width: 1152
VWidth: 2048
Flags: MW
LayerCount: 2
Back
Fore
SplineSet
768 1792 m 25,0,-1
 768 1536 l 25,1,-1
 248 1536 l 0,2,3
 192 1536 192 1536 192 1461 c 24,4,5
 192 1461 192 1461 192 1024 c 25,6,-1
 576 1024 l 25,7,-1
 576 768 l 25,8,-1
 192 768 l 25,9,10
 192 768 192 768 192 331 c 0,11,12
 192 256 192 256 248 256 c 24,13,-1
 768 256 l 25,14,-1
 768 0 l 25,15,16
 768 0 768 0 248 0 c 0,17,18
 0 0 0 0 0 331 c 24,19,20
 0 331 0 331 0 1461 c 0,21,22
 0 1792 0 1792 248 1792 c 24,23,24
 248 1792 248 1792 768 1792 c 25,0,-1
EndSplineSet
EndChar

StartChar: idieresis
Encoding: 239 239 239
Width: 1152
VWidth: 2048
Flags: MW
LayerCount: 2
Back
Fore
SplineSet
712 1792 m 0,0,1
 960 1792 960 1792 960 1461 c 24,2,3
 960 1461 960 1461 960 0 c 25,4,-1
 768 0 l 25,5,-1
 768 1461 l 0,6,7
 768 1536 768 1536 712 1536 c 24,8,9
 712 1536 712 1536 248 1536 c 0,10,11
 192 1536 192 1536 192 1461 c 24,12,-1
 192 0 l 25,13,-1
 0 0 l 25,14,15
 0 0 0 0 0 1461 c 0,16,17
 0 1792 0 1792 248 1792 c 24,18,19
 248 1792 248 1792 712 1792 c 0,0,1
EndSplineSet
EndChar

StartChar: eth
Encoding: 240 240 240
Width: 1152
VWidth: 2048
Flags: MW
LayerCount: 2
Back
Fore
SplineSet
0 512 m 25,0,-1
 960 512 l 25,1,-1
 960 256 l 25,2,-1
 0 256 l 25,3,-1
 0 512 l 25,0,-1
0 1024 m 25,4,-1
 960 1024 l 25,5,-1
 960 768 l 25,6,-1
 0 768 l 25,7,-1
 0 1024 l 25,4,-1
0 1536 m 25,8,-1
 960 1536 l 25,9,-1
 960 1280 l 25,10,-1
 0 1280 l 25,11,-1
 0 1536 l 25,8,-1
EndSplineSet
EndChar

StartChar: ntilde
Encoding: 241 241 241
Width: 1152
VWidth: 2048
Flags: MW
LayerCount: 2
Back
Fore
SplineSet
0 256 m 25,0,-1
 960 256 l 25,1,-1
 960 0 l 25,2,-1
 0 0 l 25,3,-1
 0 256 l 25,0,-1
384 1792 m 25,4,-1
 576 1792 l 25,5,-1
 576 1280 l 25,6,-1
 960 1280 l 25,7,-1
 960 1024 l 25,8,-1
 576 1024 l 25,9,-1
 576 512 l 25,10,-1
 384 512 l 25,11,-1
 384 1024 l 25,12,-1
 0 1024 l 25,13,-1
 0 1280 l 25,14,-1
 384 1280 l 25,15,-1
 384 1792 l 25,4,-1
EndSplineSet
EndChar

StartChar: ograve
Encoding: 242 242 242
Width: 1152
VWidth: 2048
Flags: MW
LayerCount: 2
Back
Fore
SplineSet
0 256 m 25,0,-1
 960 256 l 25,1,-1
 960 0 l 25,2,-1
 0 0 l 25,3,-1
 0 256 l 25,0,-1
136 1792 m 25,4,-1
 960 693 l 25,5,-1
 960 512 l 25,6,-1
 824 512 l 25,7,-1
 0 1611 l 25,8,-1
 0 1792 l 25,9,-1
 136 1792 l 25,4,-1
EndSplineSet
EndChar

StartChar: oacute
Encoding: 243 243 243
Width: 1152
VWidth: 2048
Flags: MW
LayerCount: 2
Back
Fore
SplineSet
0 256 m 25,0,-1
 960 256 l 25,1,-1
 960 0 l 25,2,-1
 0 0 l 25,3,-1
 0 256 l 25,0,-1
0 693 m 25,4,-1
 824 1792 l 25,5,-1
 960 1792 l 25,6,-1
 960 1611 l 25,7,-1
 136 512 l 25,8,-1
 0 512 l 25,9,-1
 0 693 l 25,4,-1
EndSplineSet
EndChar

StartChar: ocircumflex
Encoding: 244 244 244
Width: 1152
VWidth: 2048
Flags: MW
LayerCount: 2
Back
Fore
SplineSet
328 1792 m 4,0,1
 576 1792 576 1792 576 1461 c 28,2,3
 576 1461 576 1461 576 1024 c 29,4,-1
 384 1024 l 29,5,-1
 384 1461 l 4,6,7
 384 1536 384 1536 328 1536 c 28,8,9
 328 1536 328 1536 248 1536 c 4,10,11
 192 1536 192 1536 192 1461 c 28,12,-1
 192 0 l 29,13,-1
 0 0 l 29,14,15
 0 0 0 0 0 1461 c 4,16,17
 0 1792 0 1792 248 1792 c 28,18,19
 248 1792 248 1792 328 1792 c 4,0,1
EndSplineSet
EndChar

StartChar: otilde
Encoding: 245 245 245
Width: 1152
VWidth: 2048
Flags: MW
LayerCount: 2
Back
Fore
SplineSet
248 0 m 0,0,1
 0 0 0 0 0 331 c 24,2,3
 0 331 0 331 0 768 c 25,4,-1
 192 768 l 25,5,-1
 192 331 l 0,6,7
 192 256 192 256 248 256 c 24,8,9
 248 256 248 256 328 256 c 0,10,11
 384 256 384 256 384 331 c 24,12,-1
 384 1792 l 25,13,-1
 576 1792 l 25,14,15
 576 1792 576 1792 576 331 c 0,16,17
 576 0 576 0 328 0 c 24,18,19
 328 0 328 0 248 0 c 0,0,1
EndSplineSet
EndChar

StartChar: odieresis
Encoding: 246 246 246
Width: 1152
VWidth: 2048
Flags: MW
LayerCount: 2
Back
Fore
SplineSet
384 512 m 25,0,-1
 576 512 l 25,1,-1
 576 256 l 25,2,-1
 384 256 l 25,3,-1
 384 512 l 25,0,-1
0 1024 m 25,4,-1
 960 1024 l 25,5,-1
 960 768 l 25,6,-1
 0 768 l 25,7,-1
 0 1024 l 25,4,-1
384 1536 m 25,8,-1
 576 1536 l 25,9,-1
 576 1280 l 25,10,-1
 384 1280 l 25,11,-1
 384 1536 l 25,8,-1
EndSplineSet
EndChar

StartChar: divide
Encoding: 247 247 247
Width: 1152
VWidth: 2048
Flags: MW
LayerCount: 2
Back
Fore
SplineSet
0 437 m 0,0,1
 0 768 0 768 248 768 c 24,2,-1
 712 768 l 0,3,4
 768 768 768 768 768 843 c 24,5,-1
 768 1024 l 25,6,-1
 960 1024 l 25,7,8
 960 1024 960 1024 960 843 c 0,9,10
 960 512 960 512 712 512 c 24,11,-1
 248 512 l 0,12,13
 192 512 192 512 192 437 c 24,14,-1
 192 256 l 25,15,-1
 0 256 l 25,16,17
 0 256 0 256 0 437 c 0,0,1
0 1205 m 0,18,19
 0 1536 0 1536 248 1536 c 24,20,-1
 712 1536 l 0,21,22
 768 1536 768 1536 768 1611 c 24,23,-1
 768 1792 l 25,24,-1
 960 1792 l 25,25,26
 960 1792 960 1792 960 1611 c 0,27,28
 960 1280 960 1280 712 1280 c 24,29,-1
 248 1280 l 0,30,31
 192 1280 192 1280 192 1205 c 24,32,-1
 192 1024 l 25,33,-1
 0 1024 l 25,34,35
 0 1024 0 1024 0 1205 c 0,18,19
EndSplineSet
EndChar

StartChar: oslash
Encoding: 248 248 248
Width: 1152
VWidth: 2048
Flags: MW
LayerCount: 2
Back
Fore
SplineSet
520 1536 m 0,0,1
 520 1536 520 1536 248 1536 c 0,2,3
 192 1536 192 1536 192 1461 c 24,4,5
 192 1461 192 1461 192 1355 c 0,6,7
 192 1280 192 1280 248 1280 c 24,8,9
 248 1280 248 1280 520 1280 c 0,10,11
 576 1280 576 1280 576 1355 c 24,12,13
 576 1355 576 1355 576 1461 c 0,14,15
 576 1536 576 1536 520 1536 c 0,0,1
520 1792 m 0,16,17
 768 1792 768 1792 768 1461 c 24,18,19
 768 1461 768 1461 768 1355 c 0,20,21
 768 1024 768 1024 520 1024 c 24,22,23
 520 1024 520 1024 248 1024 c 0,24,25
 0 1024 0 1024 0 1355 c 24,26,27
 0 1355 0 1355 0 1461 c 0,28,29
 0 1792 0 1792 248 1792 c 24,30,31
 248 1792 248 1792 520 1792 c 0,16,17
EndSplineSet
EndChar

StartChar: ugrave
Encoding: 249 249 249
Width: 1152
VWidth: 2048
Flags: MW
LayerCount: 2
Back
Fore
SplineSet
192 1280 m 25,0,-1
 576 1280 l 25,1,-1
 576 1024 l 25,2,-1
 768 1024 l 25,3,-1
 768 768 l 25,4,-1
 576 768 l 25,5,-1
 576 512 l 25,6,-1
 192 512 l 25,7,-1
 192 768 l 25,8,-1
 0 768 l 25,9,-1
 0 1024 l 25,10,-1
 192 1024 l 25,11,-1
 192 1280 l 25,0,-1
EndSplineSet
EndChar

StartChar: uacute
Encoding: 250 250 250
Width: 1152
VWidth: 2048
Flags: MW
LayerCount: 2
Back
Fore
SplineSet
0 1024 m 29,0,-1
 192 1024 l 25,1,-1
 192 768 l 25,2,-1
 0 768 l 25,3,-1
 0 1024 l 29,0,-1
EndSplineSet
EndChar

StartChar: ucircumflex
Encoding: 251 251 251
Width: 1152
VWidth: 2048
Flags: MW
LayerCount: 2
Back
Fore
SplineSet
384 1792 m 25,0,-1
 960 1792 l 25,1,-1
 960 1536 l 25,2,-1
 576 1536 l 25,3,-1
 576 587 l 0,4,5
 576 256 576 256 328 256 c 24,6,7
 328 256 328 256 248 256 c 0,8,9
 0 256 0 256 0 587 c 16,10,11
 0 587 0 587 0 1024 c 9,12,-1
 192 1024 l 25,13,-1
 192 587 l 0,14,15
 192 512 192 512 248 512 c 24,16,17
 248 512 248 512 328 512 c 0,18,19
 384 512 384 512 384 587 c 24,20,-1
 384 1792 l 25,0,-1
EndSplineSet
EndChar

StartChar: udieresis
Encoding: 252 252 252
Width: 1152
VWidth: 2048
Flags: MW
LayerCount: 2
Back
Fore
SplineSet
0 1280 m 25,0,1
 0 1280 0 1280 520 1280 c 0,2,3
 768 1280 768 1280 768 949 c 24,4,5
 768 949 768 949 768 256 c 25,6,-1
 576 256 l 25,7,-1
 576 949 l 0,8,9
 576 1024 576 1024 520 1024 c 24,10,11
 520 1024 520 1024 192 1024 c 25,12,-1
 192 256 l 25,13,-1
 0 256 l 25,14,-1
 0 1280 l 25,0,1
EndSplineSet
EndChar

StartChar: yacute
Encoding: 253 253 253
Width: 1152
VWidth: 2048
Flags: MW
LayerCount: 2
Back
Fore
SplineSet
0 1792 m 25,0,-1
 384 1792 l 25,1,-1
 384 1024 l 25,2,-1
 192 1024 l 25,3,-1
 192 768 l 25,4,-1
 384 768 l 25,5,-1
 384 512 l 25,6,-1
 0 512 l 25,7,-1
 0 1280 l 25,8,-1
 192 1280 l 25,9,-1
 192 1536 l 25,10,-1
 0 1536 l 25,11,-1
 0 1792 l 25,0,-1
EndSplineSet
EndChar

StartChar: thorn
Encoding: 254 254 254
Width: 1152
VWidth: 2048
Flags: MW
LayerCount: 2
Back
Fore
SplineSet
0 1280 m 25,0,-1
 576 1280 l 25,1,-1
 576 256 l 25,2,-1
 0 256 l 25,3,-1
 0 1280 l 25,0,-1
EndSplineSet
EndChar

